<?xml version="1.0" encoding="utf-8"?>
<!-- Generator: Adobe Illustrator 19.0.0, SVG Export Plug-In . SVG Version: 6.00 Build 0)  -->
<svg version="1.1" id="Layer_1" xmlns="http://www.w3.org/2000/svg" xmlns:xlink="http://www.w3.org/1999/xlink" x="0px" y="0px"
	 viewBox="-29 -62 540 724" style="enable-background:new -29 -62 540 724;" xml:space="preserve">
<style type="text/css">
	.st0{fill:#97C6C6;}
	.st1{fill:#336182;}
	.st2{fill:#FFFFFF;}
</style>
<path class="st0" d="M535-88c0-0.4,0-0.7,0.1-1h-232C158.3-89,41,215.7,41,592h262.1c53.2-6.8,162.6-99.6,231.9-240.4V-88z"/>
<path class="st1" d="M534,349H287.5C151.3,349,41,458.2,41,593h470C647.2,593,534,483.8,534,349z"/>
<path d="M252.2,459.7c-1.9-0.8-3.8-1.6-5.7-2.7c-4.1,15.7-8.1,31.2-12.2,46.6c-2.7,10.3-5.7,20.9-8.4,31.2
	c-4.6,17.4-8.7,35-10.8,52.9c-1.4,13-2.7,26.3-4.1,40.4c0-4.9-0.3-8.7,0-12.5c0.8-10,1.9-20.1,2.7-30.1s1.9-19.8,1.4-29.8
	c-0.5-12.2-2.4-24.4-4.3-36.3c-2.2-13-4.3-26.3-7.3-39.3c-1.4-6.2-3.8-12.5-6.8-18.2c-5.7-10.8-11.7-21.7-18.2-32.3
	c-2.2-3.5-5.1-6.5-7.9-9.5c-0.8-0.8-1.9-1.9-2.7-2.2c-6-1.4-8.7-6.2-11.9-10.3c-3.3-4.3-6.8-7.6-12.7-7c-3,0.3-5.1-1.6-7-3.8
	c-5.2-6.2-11.7-8.9-19.8-10c-17.3-2.7-34.2-7.3-47.4-19.5c-5.7-5.2-11.4-10.6-17.1-16c-2.7-2.7-5.7-4.3-9.5-5.4
	c-2.7-0.5-5.7-1.6-7.9-3.3c-7.3-5.4-14.1-11.4-21.1-17.1c-3.5-3-7.6-5.4-11.4-8.1c-0.8-0.8-1.9-1.6-2.4-2.4
	c-1.4-2.2-0.5-3.8,2.2-3.8c3,0,6.2,0.3,9.2,0.5c4.1,0.3,8.4,0.5,12.5,0.8c10.6,0.3,21.1,0.5,31.7,0.5c3,0,6-0.8,8.7-0.5
	c3.8,0.3,7.9,0.5,11.4,1.9c7.9,3,15.7,2.2,23.9,2.7c6.5,0.3,13.3-1.4,19.8,1.1c0.3,0,0.5,0,0.5,0c8.9,4.1,18.4,7.3,26.8,12.5
	c6.2,3.8,11.1,9.5,16.5,14.4c5.7,5.4,8.7,12.2,11.4,19.2c1.9,4.9,4.9,9.5,7.6,14.4c4.3,7.6,9.2,14.9,13.3,22.5
	c1.6,3.3,1.9,7.6,2.7,11.1c3,11.7,6,23.3,8.7,35.2c1.4,6.5,2.4,13,3.5,19.8c1.1,7,2.2,14.4,3.3,21.4c1.4,10.8,3,22,4.3,32.8
	c1.1,8.4,1.6,17.1,3.3,25.8c1.1-4.6,1.9-9.2,3-14.1c1.6-7.9,3.8-15.7,5.1-23.9c1.6-10.3,2.7-20.6,3.8-30.9c0.8-7.3,1.4-14.6,0.8-22
	c-0.5-8.4-1.9-16.8-3-24.9c-1.6-10.3-3.3-20.6-4.9-30.9c-1.9-11.4-3.3-23-5.1-34.7c-1.9-10.3-4.3-20.6-10.8-29
	c-3.8-4.6-7.6-9.2-10.6-14.4c-5.1-8.7-9.2-17.9-8.7-28.7c0.8-10.8,0.3-21.4-3.5-31.7c-3.5-9.2-8.9-17.1-15.4-24.1
	c-3.3-3.5-6.5-7-9.5-10.6c-4.1-5.2-9.5-7.9-15.7-9.2c-13.6-3-26.8-6-39.8-11.4c-6.8-3-13.8-5.7-21.1-7c-9.8-1.9-13.3-1.4-19,7
	c-4.1,6.2-6.2,12.7-1.6,19.2c2.4,3.3,6,6.5,9.8,8.1c5.7,2.4,11.9,3.5,17.9,5.2c1.1,0.3,2.2,0.8,3.3,1.9c-2.2,0-4.3,0.8-6.2,0.3
	c-10.8-2.2-21.7-4.3-32.3-7.3c-9.8-2.7-20.1-14.9-20.3-26.8c-0.5-14.9,1.9-28.7,8.9-41.7c6-10.8,14.9-18.2,26-23.9
	c3.3-1.6,6.8-3.3,8.9-5.7c3-3,5.1-7,7.6-10.8c5.1-7.3,11.1-13.6,20.3-14.9c3.8-0.5,8.1-0.3,11.9,0.5c8.4,1.6,16.8,1.6,25.2,0.3
	c6.2-1.1,12.5-0.8,18.7-2.2c14.4-3.3,28.5-7.3,42.8-11.1c10.8-3,19,1.1,26,8.9c8.4,9.2,8.4,20.3,8.1,31.7c0,5.7-1.4,11.4-2.2,17.1
	c5.1-1.6,10.6-3.5,16-5.4c3.8-1.1,6.8-0.3,9.5,2.4c2.7,3.3,1.9,7,0.8,10.6c-1.1,3.8-3,7.3-4.9,10.6c-4.1,6.8-7.9,13.6-12.7,19.5
	c-6.2,7.3-9.8,15.7-13.3,24.4c-3.8,9.5-5.1,19-4.1,29.3c1.1,10.6,5.2,20.3,8.7,30.4c6.5,18.7,5.4,36.9-0.8,55.3
	c-2.7,7.9-5.7,15.7-6.8,23.9c-2.2,14.6-0.8,29.5,2.4,43.9c2.7,12.7,6.2,25.2,8.9,38c1.1,4.3,1.4,8.7,2.7,13c0.5-2.4,0.8-4.9,1.4-7.3
	c2.2-15.7,5.4-31.4,12.7-45.8c3-6,3.8-12.2,3.8-19c0-1.6-1.1-3.5-1.9-4.9c-3.8-5.2-6.2-11.1-7.9-17.1c-2.4-8.7,1.4-14.9,7.3-20.9
	c5.7-5.4,11.7-5.2,19.2,2.2c-0.8-4.1-1.9-7.9-2.7-11.9c-2.7-13.8,4.1-29.3,16.5-35.5c9.8-4.9,20.1-6.5,29.8,0.8
	c4.3,3.3,9.5,5.2,15.2,6c6.2,0.8,12.2,3.5,16.5,8.4c4.9,5.7,11.4,7.9,18.2,8.4c7.9,0.8,15.7,2.2,22.2,7.3
	c13.6,10.3,23.6,23,27.6,40.4c2.4,10.6,6.2,20.6,8.9,30.9c1.1,3.5,1.1,7.3,1.6,11.1c-0.3,0-0.5,0-0.8,0.3c-1.6-4.3-3.3-8.9-5.1-13.3
	c-8.4-16.8-22-27.4-40.9-30.1c-6.2-0.8-12.5,1.9-18.2,4.9c-7.6,4.3-14.9,9.5-22.8,13.3c-7,3.3-14.9,5.4-22.5,7.9
	c-4.3,1.4-9.2,1.9-13.6,3c-5.1,1.4-8.4,5.2-11.9,8.7c-7,7.3-11.9,16.3-16.3,25.2c-4.3,8.7-8.9,17.1-16.5,23
	c-10.6,8.7-15.7,20.1-18.7,32.8c-4.1,16.5-8.1,33.3-11.9,50.2c-2.7,11.7-5.4,23.3-7.6,35c-1.6,8.9-3,18.2-4.1,27.1
	c-0.8,7.6-1.4,14.9-1.9,22.5c-0.3,5.7-0.3,11.4-0.5,17.1c0,0.8,0,1.6-0.8,2.4c-0.3-1.9-1.1-3.5-1.1-5.4c0-5.4,0-10.8,0.8-16.3
	c1.4-12.2,2.2-24.4,4.3-36.6c3.3-18.7,7-37.4,11.1-55.8c4.1-19.2,8.9-38.2,15.4-56.9C250.6,463,251.4,461.6,252.2,459.7z
	 M204.5,185.4c2.4-3.3,4.3-6.2,6.8-8.9c10-11.7,16.8-25.5,21.7-39.9c2.7-7.9,1.9-16.3-0.8-23.9c-3-8.4-14.6-13.6-23.6-11.4
	c-3.3,0.8-6.2,1.6-9.5,2.4c-12.7,3.3-25.7,6.5-38.8,9.5c-2.4,0.5-4.9,0.5-7.3,0.8c-2.7,0.3-5.7-0.3-8.4,0.5c-8.1,3-16.3,1.4-24.4,0
	c-8.4-1.6-16.5-2.2-23.3,4.1c-3.8,3.5-7.6,7.6-10,12.2c-3.3,6.2-8.4,10-14.1,13c-9.8,5.1-18.7,11.4-24.7,20.9
	c-8.9,14.6-12.5,30.4-9.8,47.2c0.8,4.3,2.2,8.7,5.1,11.4c2.2-3.5,3.8-7.3,6.2-10.3c2.7-3.3,5.7-5.7,8.9-8.1c8.9-6.8,19-9.2,29.8-5.1
	c7.9,2.7,15.4,6,23.3,8.7c18.2,5.7,36.3,11.4,55.6,11.9c9.2,0.3,19,0,27.9-1.6c9.2-1.6,18.4-4.9,27.1-8.4c8.4-3.5,16.5-7.9,22-15.7
	c5.2-7.3,10-14.6,14.4-22.2c1.9-3.5,3-7.9,3.8-11.9c0.5-3.8-1.6-6-5.4-6c-6.8,0.3-13,2.2-18.2,6.2c-5.4,4.1-9.8,9.5-14.4,14.4
	c-2.7,3-5.2,6-8.1,9.5c8.9-2.4,17.6-9.5,24.1-18.7c0.8-1.4,2.7-1.9,4.1-2.7c-0.5,1.4-0.8,3.3-1.6,4.3c-14.6,16.8-33.6,24.4-55.3,26
	c-16.8,1.4-32.5-2.4-47.2-10.6c-1.4-0.8-2.7-1.6-3.8-2.2c0.3-0.3,0.3-0.8,0.5-1.1c15.4,6.2,30.6,14.4,48.8,11.9
	c-7-16.5-16-31.2-26-45.5c-3.8-5.4-7.9-10.8-11.7-16.3c-2.2-3-1.4-6.2,1.6-6.8c1.6-0.3,4.1,0.8,5.1,2.2c7.3,7.3,14.6,14.6,21.7,22.5
	C187.5,158.3,196.1,171.6,204.5,185.4z M217,564.9c0.3,0,0.5,0,1.1,0c0.5-4.1,1.4-8.4,1.1-12.5c-0.5-8.1-1.4-16-2.4-24.1
	c-1.1-9.2-2.2-18.7-3.3-27.9c-1.1-8.9-2.7-17.9-3.8-26.8c-1.1-6.8-1.6-13.8-3-20.6c-2.7-11.7-5.7-23.3-8.7-35
	c-1.6-6.5-2.4-13.3-6.5-19.2c-5.7-8.7-10.3-17.6-15.4-26.6c-1.9-3.5-4.1-7-5.7-10.8c-0.8-1.9-0.5-4.6-1.6-6.2
	c-4.1-5.2-8.1-10.3-12.7-14.9c-6.8-6.8-14.4-12.5-24.4-13.3c-1.9-0.3-4.1-1.9-6-2.7c-3-1.6-5.7-4.1-8.7-4.6
	c-4.9-0.8-10.3-0.8-15.4-0.5c-8.9,0.5-17.6,1.1-26-3c-4.3-2.2-9.2-2.2-14.4-1.4c-4.9,0.5-10,0.8-14.9,0.3
	c-5.7-0.8-11.4-1.4-17.3-0.8c-6,0.5-11.9,1.6-17.9-0.5c-2.7-0.8-5.7,0.3-9.5,0.5c1.4,1.6,1.6,2.4,2.4,2.7c8.4,5.1,15.4,11.9,23,18.2
	c5.4,4.3,10.6,9.5,17.9,10.6c7,1.1,12.2,5.2,16.5,10.6c2.4,3,5.1,5.7,8.1,8.4c8.1,7.6,17.1,14.1,28.2,16.8
	c7.3,1.6,14.9,2.7,22.2,4.3c4.1,1.1,8.1,2.4,11.9,4.3c5.1,2.7,9.8,6.2,14.9,8.7c4.3,2.2,8.1,4.1,11.1,8.1c3,4.3,6.8,8.1,11.9,10
	c1.9,0.5,3.5,2.2,4.6,3.8c7.9,10,14.4,20.9,20.1,32c4.9,9.5,9.5,19,11.7,29.3c1.9,9.2,3.3,18.2,4.6,27.4c2.2,14.6,4.3,29.3,6.5,43.9
	C217.3,557,217,561.1,217,564.9z M322.4,346.4c-3,1.6-5.7,2.7-8.4,4.3c-2.7,1.9-5.1,3.8-7.6,6.2c-7,6.5-15.4,6-23,1.6
	c-7.3-4.1-10.6-11.9-5.4-17.1c-1.6-1.4-3-2.7-4.6-3.8c-3-1.9-6.2-3.3-9.5-1.1c-2.4,1.6-4.9,3.8-6.2,6.5c-5.4,9.8-3.3,19.2,2.4,27.9
	c3.8,5.4,8.7,10.3,13.8,14.6c6.2,4.9,13.3,7.3,21.7,4.6c3.3-1.1,7-1.1,10.6-1.4c4.3-0.3,7.6-2.2,10.6-4.9c1.6-1.6,3-3.3,4.9-4.9
	c9.5-8.4,18.4-18.2,30.9-22.8c9.2-3.5,18.4-6.5,28.2-4.6c1.9,0.3,4.1,0.8,6,1.1c9.2,1.1,17.1,5.2,23.6,11.7
	c4.9,4.9,10,9.8,14.9,14.4c-0.3-1.1-0.5-2.7-1.1-4.1c-2.4-7.6-4.3-15.2-7.6-22.2c-4.1-9.2-10-17.4-17.9-24.1
	c-7.9-6.8-16.5-10.3-27.1-10c-6.5,0.3-13-1.6-17.3-6.8c-4.9-5.7-10.6-8.9-17.6-10.6c-4.9-1.4-9.8-3.3-14.6-5.2
	c-3.3-1.4-6.2-4.1-9.8-5.1c-8.7-2.7-16.5,0.5-23,6c-6.8,5.4-11.7,12.2-11.7,21.7c-0.3,8.1,1.4,16,5.1,23c2.2,4.1,4.3,4.1,7.6,0.8
	c11.1-11.9,23-22.5,39.8-26c5.1-1.1,10.3-1.6,15.7-1.9c1.4,0,3,1.9,4.3,3c-1.1,0.8-1.9,2.2-3,2.7c-1.9,1.1-4.3,1.6-6.2,2.4
	c-14.9,5.7-28.5,13.6-38.5,26.3c-2.2,2.7-4.6,5.2-5.1,10c4.6-2.4,8.7-4.3,12.5-6.8C313.5,349.4,317,346.1,322.4,346.4z M237.6,204.6
	c-24.4,15.2-51,19.2-79.4,16.8c6,6.5,11.7,12.2,16.5,18.4c4.9,6.5,8.9,13.3,13.6,20.1c3.5,5.4,4.6,11.7,4.9,17.9
	c0.3,7.9,0.5,15.7,1.4,23.6c1.4,10,4.3,19.5,10.8,27.4c8.1,9.8,13.6,20.6,17.9,32.3c0.3,0.8,1.6,1.9,2.4,1.6c0.8,0,1.6-1.4,1.9-2.2
	c2.7-8.9,5.1-17.6,8.1-26.6c3.5-11.4,6.5-23,5.4-35.2c-0.5-7.6-2.4-14.9-5.4-22c-3-6.8-6.5-13.8-7.6-21.1c-1.9-15.5-0.3-30.6,6.5-45
	C235.7,208.7,236.5,206.5,237.6,204.6z M264.7,381.1C264.7,380.8,264.7,380.8,264.7,381.1c0,0.5,0,1.4,0,2.2
	c-0.5,8.9-1.1,17.9-7,25.5c-0.5,0.5-0.8,1.6-1.1,2.2c-4.9,13.3-9.2,26.6-7.3,40.9c0.3,1.6-0.5,3.8,1.9,4.6c2.7,1.1,4.1-0.3,5.7-1.9
	c2.2-2.2,4.6-4.6,7-6.8c6.8-6.5,12.2-13.6,15.7-22.2c1.1-2.7,1.9-5.4,3.3-8.1c2.4-5.4,4.6-10.8,9.5-14.9c3.5-3,6.8-6.5,10.3-9.8
	c-7-0.3-13.8,2.4-20.1-0.8C275.8,388.7,270.4,384.9,264.7,381.1z M316.2,387.9c2.2-0.5,3.5-0.5,4.9-1.1c8.4-3,17.1-5.2,25.2-8.9
	c7-3.3,13.6-7.9,20.3-11.9c14.6-8.9,28.7-6.8,42.3,2.2c4.9,3.3,9.2,7.9,13.8,11.7c-3.3-4.1-7-7.6-10.6-11.1
	c-7.3-7.6-16-12.7-26.8-13.8c-4.9-0.5-10-1.9-14.6-1.1c-6.8,1.1-13.6,3.5-20.1,6.2c-10.3,4.3-18.2,12.2-26.3,19.8
	C322.2,382.2,319.5,384.6,316.2,387.9z M204.5,188.6c-5.7-8.7-10.8-16.8-16-24.7c-7.3-10.8-16.3-20.1-25.5-29.5
	c-3-3-5.7-6.5-8.9-9.5c-0.8-0.8-2.7-1.4-3.5-1.1c-1.9,0.8-1.1,2.4,0,3.8c0.5,0.8,1.1,1.9,1.9,2.7c7,10.6,14.6,20.9,21.4,31.7
	c5.1,8.1,8.9,17.1,13.6,25.8c0.5,1.1,2.2,2.4,3,2.4C194.5,190.3,198.9,189.4,204.5,188.6z M222.7,365.9c0,1.1,0,1.9,0.3,2.7
	c1.9,13.3,3.5,26.8,5.7,40.1c1.6,10,3.3,20.3,5.4,30.4c1.6,7.6,3.3,15.2,2.7,23s-0.8,15.5-1.4,23.3c0,0.5-0.3,1.1-0.3,1.6
	c-1.4,6.8-2.7,13.3-4.1,20.1c-0.3,1.6-0.5,3.3-0.8,4.9c0.8-1.1,1.1-2.2,1.6-3.3c2.7-10.3,4.9-20.9,8.1-31.2c2.7-8.7,4.1-17.3,2.4-26
	c-2.2-13-5.7-25.5-8.4-38.5c-1.6-8.1-3.3-16.5-4.3-24.9c-1.1-7-1.4-14.4-1.9-21.7C226.2,366.2,224.6,365.9,222.7,365.9z M284.2,357
	c1.9,0.5,3.8,1.1,5.4,1.4c3,0.5,4.6-0.5,6.5-3.3c3.8-6,7.9-11.9,13-16.3c10.3-8.7,21.7-14.9,34.4-19.5c1.6-0.5,3-1.4,4.9-2.2
	C332.2,311.7,295.1,331.2,284.2,357z M236.8,122.5c-0.5,4.1-0.5,9.8-2.2,14.9c-4.3,13.6-10.8,26.3-20.1,37.7
	c-3.3,4.1-6,8.1-8.9,12.2c0.3,0.3,0.5,0.5,0.5,0.8c1.9-1.1,4.3-1.4,5.7-3c6.2-6.8,13-13,17.6-20.6
	C237.9,151.2,241.9,136.9,236.8,122.5z M68.5,234.7c-10.8-9.8-11.9-18.2-1.6-32.5c-6.8,4.1-13.3,8.4-17.9,15.5
	c-2.7,4.3-2.2,9.2,1.9,12.2C56,233.4,62.3,234.4,68.5,234.7z M281.8,354.5c-1.1-3.8-1.9-7-2.7-11.1
	C276.9,347.8,277.7,351.3,281.8,354.5z M282.1,344.2c-0.3,0-0.3,0.3-0.5,0.3c0.5,2.4,1.1,4.9,1.6,8.1c1.1-1.9,1.9-3,2.4-4.1
	C284.2,346.7,283.1,345.6,282.1,344.2z"/>
<path class="st2" d="M204.5,185.4c-8.4-13.8-17.1-27.1-27.4-39c-6.8-7.9-14.4-15.2-21.7-22.5c-1.4-1.4-3.5-2.4-5.1-2.2
	c-3,0.5-3.5,3.8-1.6,6.8c3.8,5.4,7.9,10.8,11.7,16.3c10,14.4,19,29,26,45.5c-17.9,2.7-33.1-5.4-48.8-11.9c-0.3,0.3-0.3,0.8-0.5,1.1
	c1.4,0.8,2.4,1.6,3.8,2.2c14.6,8.1,30.4,11.9,47.2,10.6c21.7-1.6,40.7-9.5,55.3-26c1.1-1.1,1.1-3,1.6-4.3c-1.4,0.8-3.3,1.6-4.1,2.7
	c-6.5,9.2-15.2,16-24.1,18.7c3-3.5,5.4-6.8,8.1-9.5c4.6-4.9,9.2-10.3,14.4-14.4c5.1-4.1,11.4-6,18.2-6.2c3.8,0,6.2,2.2,5.4,6
	c-0.8,4.1-1.6,8.4-3.8,11.9c-4.3,7.6-9.5,15.2-14.4,22.2c-5.4,7.6-13.6,12.2-22,15.7c-8.7,3.5-17.9,6.8-27.1,8.4
	c-9.2,1.6-18.7,1.6-27.9,1.6c-19.2-0.3-37.4-6-55.6-11.9c-7.9-2.4-15.4-5.7-23.3-8.7c-10.8-3.8-20.9-1.6-29.8,5.2
	c-3.3,2.4-6.5,5.2-8.9,8.1c-2.4,3-4.1,6.5-6.2,10.3c-3.3-2.4-4.6-7-5.1-11.4c-2.7-16.8,0.8-32.8,9.8-47.2c6-9.5,14.9-16,24.7-20.9
	c6-3,10.8-6.8,14.1-13c2.4-4.6,6.2-8.7,10-12.2c6.8-6.2,14.9-5.7,23.3-4.1c8.1,1.6,16,3,24.4,0c2.4-0.8,5.4-0.3,8.4-0.5
	c2.4-0.3,4.9-0.3,7.3-0.8c13-3,25.7-6.2,38.8-9.5c3.3-0.8,6.2-1.9,9.5-2.4c8.9-2.2,20.3,3,23.6,11.4c2.7,7.6,3.5,16,0.8,23.9
	c-5.1,14.4-11.7,28.2-21.7,39.8C208.9,179.1,207,182.4,204.5,185.4z"/>
<path class="st2" d="M217,564.9c0-4.1,0.5-7.9,0-11.9c-1.9-14.6-4.1-29.3-6.5-43.9c-1.4-9.2-3-18.4-4.6-27.4
	c-2.2-10.6-6.8-20.1-11.7-29.3c-5.7-11.4-12.2-22.2-20.1-32c-1.1-1.6-2.7-3.3-4.6-3.8c-5.1-1.9-8.9-5.7-11.9-10
	c-2.7-4.1-6.8-6.2-11.1-8.1c-5.1-2.4-9.8-6.2-14.9-8.7c-3.8-1.9-7.9-3.3-11.9-4.3c-7.3-1.6-14.9-2.7-22.2-4.3
	c-11.1-2.7-20.1-8.9-28.2-16.8c-2.7-2.7-5.4-5.4-8.1-8.4c-4.6-5.2-9.8-9.5-16.5-10.6c-7.3-1.1-12.7-6-17.9-10.6
	c-7.6-6.2-14.6-13-23-18.2c-0.8-0.5-1.1-1.4-2.4-2.7c3.8-0.3,7-1.4,9.5-0.5c6,1.9,11.9,1.1,17.9,0.5c6-0.5,11.7,0,17.3,0.8
	c4.9,0.5,10,0.5,14.9-0.3s9.8-0.5,14.4,1.4c8.4,4.1,17.1,3.5,26,3c5.1-0.3,10.3-0.3,15.4,0.5c3,0.5,6,3,8.7,4.6
	c1.9,1.1,3.8,2.7,6,2.7c10.3,0.8,17.6,6.5,24.4,13.3c4.6,4.6,8.7,9.8,12.7,14.9c1.4,1.6,0.8,4.3,1.6,6.2c1.6,3.8,3.8,7.3,5.7,10.8
	c5.1,8.9,9.8,18.2,15.4,26.6c3.8,6,4.6,12.7,6.5,19.2c3,11.7,6.2,23.3,8.7,35c1.4,6.8,1.9,13.6,3,20.6c1.4,8.9,2.7,17.9,3.8,26.8
	c1.4,9.2,2.2,18.7,3.3,27.9c0.8,8.1,1.9,16,2.4,24.1c0.3,4.1-0.8,8.4-1.1,12.5C217.6,564.9,217.3,564.9,217,564.9z M104.8,353.5
	c-0.3,0.3-0.5,0.5-0.5,0.8c2.7,1.6,5.7,2.7,8.1,4.6c13.6,9.5,28.7,17.1,41.5,27.9c6,5.2,12.7,9.8,16.8,16.8c2.7,4.6,6,8.7,9.2,12.7
	c6.5,8.4,11.4,17.6,15.4,27.1c2.2,4.9,4.1,9.8,6,14.6c0.3,0,0.5-0.3,0.8-0.3c-1.9-4.9-3.8-9.5-5.7-14.4
	c-4.9-12.2-11.7-22.8-19.5-33.1c-4.3-6-8.4-12.5-13.8-17.3c-14.6-13.3-31.7-23.6-48.5-34.2C111.3,357,108.1,355.1,104.8,353.5z
	 M54.4,324.7c0,0.3,0,0.5-0.3,1.1c0.8,0.3,1.6,0.3,2.7,0.5c8.1,1.6,16.3,3,24.4,4.9c4.6,1.1,8.9,2.7,13.6,3.5
	c8.9,1.9,17.6,3.8,26.6,5.4c8.9,1.6,16.5,6.2,23.9,11.7c1.4,1.1,2.7,1.9,4.1,3c-5.4-7.6-19.8-14.9-29.8-16.3
	c-8.4-1.4-16.5-3-24.7-4.9c-8.9-2.2-17.9-4.9-26.8-6.8C63.1,325.5,58.7,325.3,54.4,324.7z M161.4,400.6c0-0.3,0.3-0.3,0.3-0.5
	c-3.5-2.2-6.5-5.2-10.3-6.5c-4.3-1.6-7.6-3.8-10.6-7c-4.1-4.9-9.5-7.9-15.7-9.5c-8.4-2.2-16.8-4.1-24.9-6.5c-3-0.8-5.7-2.7-8.7-4.1
	c0.5,1.1,1.4,1.6,2.2,2.2c7.9,4.6,16.5,6.8,25.5,8.4c8.4,1.4,16.3,3.8,21.4,11.1c0.8,1.1,1.9,2.4,3.3,3
	C149.5,394.4,155.5,397.6,161.4,400.6z M199.1,444c-7-28.2-18.7-54.2-37.9-76.4C179.6,390.3,191,416.3,199.1,444z M138.1,364.6
	c16.8,11.9,30.1,26.8,41.2,44.2C169.6,390.3,156,375.1,138.1,364.6z"/>
<path class="st2" d="M322.4,346.4c-5.4-0.3-8.9,2.7-12.7,5.4c-3.8,2.4-7.9,4.3-12.5,6.8c0.3-4.9,3-7.3,5.1-10
	c10.3-12.7,23.6-20.6,38.5-26.3c2.2-0.8,4.3-1.4,6.2-2.4c1.1-0.5,2.2-1.9,3-2.7c-1.4-1.1-3-3-4.3-3c-5.2,0.3-10.6,1.1-15.7,1.9
	c-16.5,3.3-28.7,13.8-39.8,26c-3,3.3-5.1,3.3-7.6-0.8c-3.8-7-5.4-14.6-5.1-23c0.3-9.5,4.9-16.3,11.7-21.7c6.8-5.4,14.4-8.7,23-6
	c3.5,1.1,6.2,3.8,9.8,5.1c4.6,1.9,9.5,3.8,14.6,5.2c7,1.9,12.7,4.9,17.6,10.6c4.3,5.1,10.8,7,17.3,6.8c10.6-0.3,19.2,3.5,27.1,10
	s13.8,14.9,17.9,24.1c3.3,7,5.1,14.9,7.6,22.2c0.5,1.4,0.8,3,1.1,4.1c-4.9-4.6-9.8-9.5-14.9-14.4c-6.5-6.5-14.4-10.6-23.6-11.7
	c-2.2-0.3-4.1-0.8-6-1.1c-10-1.9-19.2,1.1-28.2,4.6c-12.5,4.9-21.1,14.4-30.9,22.8c-1.6,1.6-3,3.3-4.9,4.9c-3,2.7-6.5,4.6-10.6,4.9
	c-3.5,0.3-7.3,0.3-10.6,1.4c-8.1,2.7-15.4,0.3-21.7-4.6c-5.1-4.1-10-8.9-13.8-14.6c-5.7-8.4-7.9-18.2-2.4-27.9
	c1.4-2.4,3.8-4.9,6.2-6.5c3.3-2.2,6.5-0.8,9.5,1.1c1.6,1.1,3,2.7,4.6,3.8c-5.1,5.2-1.9,13,5.4,17.1c7.6,4.3,16,4.9,23-1.6
	c2.4-2.2,4.9-4.3,7.6-6.2C316.8,349.1,319.5,348,322.4,346.4z"/>
<path class="st2" d="M237.6,204.6c-0.8,2.2-1.9,4.1-2.7,6.2c-6.8,14.4-8.7,29.5-6.5,45c0.8,7.3,4.3,14.4,7.6,21.1
	c3,7,4.6,14.4,5.4,22c1.1,12.2-1.9,23.9-5.4,35.2c-2.7,8.9-5.4,17.6-8.1,26.6c-0.3,0.8-1.4,2.2-1.9,2.2c-0.8,0-2.2-0.8-2.4-1.6
	c-4.3-11.7-9.8-22.8-17.9-32.3c-6.5-7.9-9.5-17.4-10.8-27.4c-1.1-7.9-1.1-15.7-1.4-23.6c-0.3-6.2-1.4-12.5-4.9-17.9
	c-4.3-6.8-8.4-13.8-13.6-20.1c-4.9-6.2-10.6-11.9-16.5-18.4C186.4,223.9,212.9,219.8,237.6,204.6z"/>
<path class="st2" d="M264.7,381.1c5.7,3.5,11.4,7.6,17.3,10.8c6.2,3.3,13,0.5,20.1,0.8c-3.5,3.3-6.5,6.8-10.3,9.8
	c-4.9,4.1-7,9.5-9.5,14.9c-1.1,2.7-2.2,5.4-3.3,8.1c-3.5,8.7-8.9,16-15.7,22.2c-2.4,2.2-4.6,4.6-7,6.8c-1.6,1.6-3,3-5.7,1.9
	c-2.4-1.1-1.6-3-1.9-4.6c-1.9-14.4,2.4-27.7,7.3-40.9c0.3-0.8,0.5-1.6,1.1-2.2c6.2-7.3,6.5-16.5,7-25.5
	C264.7,382.5,264.7,381.6,264.7,381.1C264.7,380.8,264.7,380.8,264.7,381.1z"/>
<path class="st2" d="M316.2,387.9c3.3-3,6-5.7,8.4-8.1c7.9-7.6,15.7-15.5,26.3-19.8c6.5-2.7,13-5.1,20.1-6.2
	c4.6-0.8,9.8,0.8,14.6,1.1c10.8,1.1,19.2,6.2,26.8,13.8c3.5,3.8,7.3,7,10.6,11.1c-4.6-3.8-8.9-8.4-13.8-11.7
	c-13.6-8.9-27.6-11.1-42.3-2.2c-6.8,4.1-13.3,8.7-20.3,11.9c-8.1,3.5-16.8,6-25.2,8.9C319.7,387.3,318.4,387.3,316.2,387.9z"/>
<path class="st2" d="M204.5,188.6c-5.7,0.8-9.8,1.6-14.1,1.9c-1.1,0-2.4-1.4-3-2.4c-4.6-8.7-8.4-17.6-13.6-25.8
	c-6.8-10.8-14.1-21.1-21.4-31.7c-0.5-0.8-1.1-1.9-1.9-2.7c-0.8-1.4-1.9-3,0-3.8c0.8-0.3,2.7,0.3,3.5,1.1c3,3,6,6.2,8.9,9.5
	c9.2,9.2,18.2,18.4,25.5,29.5C193.7,171.8,198.9,180,204.5,188.6z"/>
<path class="st2" d="M222.7,365.9c1.9,0,3.5,0.3,4.9,0.3c0.5,7.3,1.1,14.4,1.9,21.7c1.1,8.4,2.7,16.5,4.3,24.9
	c2.7,12.7,6.2,25.5,8.4,38.5c1.4,8.7,0.3,17.4-2.4,26c-3.3,10.3-5.4,20.9-8.1,31.2c-0.3,1.1-0.5,2.2-1.6,3.3
	c0.3-1.6,0.5-3.3,0.8-4.9c1.4-6.8,2.7-13.3,4.1-20.1c0-0.5,0.3-1.1,0.3-1.6c0.5-7.9,0.8-15.5,1.4-23.3s-1.4-15.5-2.7-23
	c-1.9-10-3.8-20.1-5.4-30.4c-2.2-13.3-3.8-26.8-5.7-40.1C222.7,367.8,222.7,367,222.7,365.9z"/>
<path class="st2" d="M284.2,357c10.8-25.8,48.2-45.3,64.5-39.9c-1.9,0.8-3.5,1.6-4.9,2.2c-12.7,4.3-24.4,10.8-34.4,19.5
	c-5.1,4.3-9.2,10.6-13,16.3c-1.9,2.7-3.5,3.8-6.5,3.3C287.8,357.8,286.1,357.3,284.2,357z"/>
<path class="st2" d="M236.8,122.5c5.2,14.1,1.1,28.7-6.8,42c-4.6,7.6-11.4,14.1-17.6,20.6c-1.4,1.6-3.8,1.9-5.7,3
	c-0.3-0.3-0.5-0.5-0.5-0.8c3-4.1,5.7-8.4,8.9-12.2c8.9-11.4,15.4-23.9,20.1-37.7C236.3,132.5,236.3,126.8,236.8,122.5z"/>
<path class="st2" d="M68.5,234.7c-6.2-0.3-12.5-1.4-17.6-4.9c-4.1-3-4.6-7.9-1.9-12.2c4.3-7,10.8-11.4,17.9-15.5
	C56.6,216.6,57.6,225,68.5,234.7z"/>
<path class="st2" d="M281.8,354.5c-4.3-3.3-5.1-6.8-2.7-11.1C280.2,347.5,281,350.7,281.8,354.5z"/>
<path class="st2" d="M282.1,344.2c1.1,1.4,2.4,2.7,3.8,4.1c-0.5,1.1-1.4,2.2-2.4,4.1c-0.5-3.3-1.1-5.7-1.6-8.1
	C281.5,344.2,281.8,344.2,282.1,344.2z"/>
<path d="M104.8,353.5c3.3,1.9,6.5,3.5,9.8,5.4c16.8,10.3,33.9,20.6,48.5,34.2c5.4,4.9,9.5,11.4,13.8,17.3
	c7.9,10.3,14.6,21.1,19.5,33.1c1.9,4.9,3.8,9.5,5.7,14.4c-0.3,0-0.5,0.3-0.8,0.3c-1.9-4.9-3.8-9.8-6-14.6c-4.1-9.8-8.9-19-15.4-27.1
	c-3.3-4.1-6.5-8.4-9.2-12.7c-4.3-7-10.8-11.7-16.8-16.8c-12.7-10.8-27.9-18.4-41.5-27.9c-2.4-1.9-5.4-3-8.1-4.6
	C104.3,354,104.5,353.7,104.8,353.5z"/>
<path d="M54.4,324.7c4.3,0.5,8.9,0.8,13.3,1.9c8.9,2.2,17.9,4.9,26.8,6.8c8.1,1.9,16.5,3.5,24.7,4.9c10,1.6,24.4,8.7,29.8,16.3
	c-1.4-1.1-2.7-1.9-4.1-3c-7-5.4-14.6-10-23.9-11.7c-8.9-1.6-17.9-3.5-26.6-5.4c-4.6-1.1-8.9-2.7-13.6-3.5
	c-8.1-1.9-16.3-3.3-24.4-4.9c-0.8-0.3-1.6-0.3-2.7-0.5C54.1,325.3,54.1,325,54.4,324.7z"/>
<path d="M161.4,400.6c-6-3-11.7-6.2-17.3-9.2c-1.4-0.8-2.4-1.9-3.3-3c-5.4-7.3-13.3-9.8-21.4-11.1c-8.9-1.6-17.3-4.1-25.5-8.4
	c-0.8-0.5-1.6-1.1-2.2-2.2c3,1.4,5.7,3.3,8.7,4.1c8.1,2.4,16.5,4.6,24.9,6.5c6.2,1.6,11.7,4.3,15.7,9.5c2.7,3.3,6.2,5.7,10.6,7
	c3.8,1.4,6.8,4.3,10.3,6.5C161.7,400.4,161.4,400.4,161.4,400.6z"/>
<path d="M199.1,444c-8.1-27.7-19.8-53.7-37.9-76.4C180.7,389.8,192.1,415.8,199.1,444z"/>
<path d="M138.1,364.6c17.9,10.8,31.2,25.8,41.2,44.2C168.2,391.4,154.9,376.2,138.1,364.6z"/>
</svg>
