<?xml version="1.0" encoding="utf-8"?>
<!-- Generator: Adobe Illustrator 19.0.0, SVG Export Plug-In . SVG Version: 6.00 Build 0)  -->
<svg version="1.1" xmlns="http://www.w3.org/2000/svg" xmlns:xlink="http://www.w3.org/1999/xlink" x="0px" y="0px"
	 viewBox="0 0 958.2 260.2" style="enable-background:new 0 0 958.2 260.2;" xml:space="preserve">
<style type="text/css">
	.st0{fill:#97C6C6;}
	.st1{fill:#FFFFFF;}
</style>
<g id="Layer_2">
	<path class="st0" d="M263.6,129.8c0,70.1-56.9,127-127,127s-127-56.9-127-127s56.9-127,127-127S263.6,59.7,263.6,129.8"/>
	<path class="st1" d="M261.1,129.8c0,68.8-55.7,124.5-124.5,124.5S12.1,198.6,12.1,129.8S67.9,5.3,136.6,5.3S261.1,61,261.1,129.8"
		/>
	<path class="st0" d="M258.6,129.8c0,67.4-54.6,122-122,122s-122-54.6-122-122s54.6-122,122-122S258.6,62.4,258.6,129.8"/>
	<g id="Flower_1_">
		<path d="M149.9,164.1c-0.7-0.3-1.4-0.6-2.1-1c-1.5,5.8-3,11.5-4.5,17.2c-1,3.8-2.1,7.7-3.1,11.5c-1.7,6.4-3.2,12.9-4,19.5
			c-0.5,4.8-1,9.7-1.5,14.9c0-1.8-0.1-3.2,0-4.6c0.3-3.7,0.7-7.4,1-11.1c0.3-3.7,0.7-7.3,0.5-11c-0.2-4.5-0.9-9-1.6-13.4
			c-0.8-4.8-1.6-9.7-2.7-14.5c-0.5-2.3-1.4-4.6-2.5-6.7c-2.1-4-4.3-8-6.7-11.9c-0.8-1.3-1.9-2.4-2.9-3.5c-0.3-0.3-0.7-0.7-1-0.8
			c-2.2-0.5-3.2-2.3-4.4-3.8c-1.2-1.6-2.5-2.8-4.7-2.6c-1.1,0.1-1.9-0.6-2.6-1.4c-1.9-2.3-4.3-3.3-7.3-3.8c-6.4-1-12.6-2.7-17.5-7.2
			c-2.1-1.9-4.2-3.9-6.3-5.9c-1-1-2.1-1.6-3.5-2c-1-0.2-2.1-0.6-2.9-1.2c-2.7-2-5.2-4.2-7.8-6.3c-1.3-1.1-2.8-2-4.2-3
			c-0.3-0.3-0.7-0.6-0.9-0.9c-0.5-0.8-0.2-1.4,0.8-1.4c1.1,0,2.3,0.1,3.4,0.2c1.5,0.1,3.1,0.2,4.6,0.3c3.9,0.1,7.8,0.2,11.7,0.2
			c1.1,0,2.2-0.3,3.2-0.2c1.4,0.1,2.9,0.2,4.2,0.7c2.9,1.1,5.8,0.8,8.8,1c2.4,0.1,4.9-0.5,7.3,0.4c0.1,0,0.2,0,0.2,0
			c3.3,1.5,6.8,2.7,9.9,4.6c2.3,1.4,4.1,3.5,6.1,5.3c2.1,2,3.2,4.5,4.2,7.1c0.7,1.8,1.8,3.5,2.8,5.3c1.6,2.8,3.4,5.5,4.9,8.3
			c0.6,1.2,0.7,2.8,1,4.1c1.1,4.3,2.2,8.6,3.2,13c0.5,2.4,0.9,4.8,1.3,7.3c0.4,2.6,0.8,5.3,1.2,7.9c0.5,4,1.1,8.1,1.6,12.1
			c0.4,3.1,0.6,6.3,1.2,9.5c0.4-1.7,0.7-3.4,1.1-5.2c0.6-2.9,1.4-5.8,1.9-8.8c0.6-3.8,1-7.6,1.4-11.4c0.3-2.7,0.5-5.4,0.3-8.1
			c-0.2-3.1-0.7-6.2-1.1-9.2c-0.6-3.8-1.2-7.6-1.8-11.4c-0.7-4.2-1.2-8.5-1.9-12.8c-0.7-3.8-1.6-7.6-4-10.7
			c-1.3-1.7-2.8-3.4-3.9-5.3c-1.9-3.2-3.4-6.6-3.2-10.6c0.3-4,0.1-7.9-1.3-11.7c-1.3-3.4-3.3-6.3-5.7-8.9c-1.2-1.3-2.4-2.6-3.5-3.9
			c-1.5-1.9-3.5-2.9-5.8-3.4c-5-1.1-9.9-2.2-14.7-4.2c-2.5-1.1-5.1-2.1-7.8-2.6c-3.6-0.7-4.9-0.5-7,2.6c-1.5,2.3-2.3,4.7-0.6,7.1
			c0.9,1.2,2.2,2.4,3.6,3c2.1,0.9,4.4,1.3,6.6,1.9c0.4,0.1,0.8,0.3,1.2,0.7c-0.8,0-1.6,0.3-2.3,0.1c-4-0.8-8-1.6-11.9-2.7
			c-3.6-1-7.4-5.5-7.5-9.9c-0.2-5.5,0.7-10.6,3.3-15.4c2.2-4,5.5-6.7,9.6-8.8c1.2-0.6,2.5-1.2,3.3-2.1c1.1-1.1,1.9-2.6,2.8-4
			c1.9-2.7,4.1-5,7.5-5.5c1.4-0.2,3-0.1,4.4,0.2c3.1,0.6,6.2,0.6,9.3,0.1c2.3-0.4,4.6-0.3,6.9-0.8c5.3-1.2,10.5-2.7,15.8-4.1
			c4-1.1,7,0.4,9.6,3.3c3.1,3.4,3.1,7.5,3,11.7c0,2.1-0.5,4.2-0.8,6.3c1.9-0.6,3.9-1.3,5.9-2c1.4-0.4,2.5-0.1,3.5,0.9
			c1,1.2,0.7,2.6,0.3,3.9c-0.4,1.4-1.1,2.7-1.8,3.9c-1.5,2.5-2.9,5-4.7,7.2c-2.3,2.7-3.6,5.8-4.9,9c-1.4,3.5-1.9,7-1.5,10.8
			c0.4,3.9,1.9,7.5,3.2,11.2c2.4,6.9,2,13.6-0.3,20.4c-1,2.9-2.1,5.8-2.5,8.8c-0.8,5.4-0.3,10.9,0.9,16.2c1,4.7,2.3,9.3,3.3,14
			c0.4,1.6,0.5,3.2,1,4.8c0.2-0.9,0.3-1.8,0.5-2.7c0.8-5.8,2-11.6,4.7-16.9c1.1-2.2,1.4-4.5,1.4-6.9c0-0.6-0.4-1.3-0.7-1.8
			c-1.4-1.9-2.3-4.1-2.9-6.3c-0.9-3.2,0.5-5.5,2.7-7.7c2.1-2,4.3-1.9,7.1,0.8c-0.3-1.5-0.7-2.9-1-4.4c-1-5.1,1.5-10.8,6.1-13.1
			c3.6-1.8,7.4-2.4,11,0.3c1.6,1.2,3.5,1.9,5.6,2.2c2.3,0.3,4.5,1.3,6.1,3.1c1.8,2.1,4.2,2.9,6.7,3.1c2.9,0.3,5.8,0.8,8.2,2.7
			c5,3.8,8.7,8.5,10.2,14.9c0.9,3.9,2.3,7.6,3.3,11.4c0.4,1.3,0.4,2.7,0.6,4.1c-0.1,0-0.2,0-0.3,0.1c-0.6-1.6-1.2-3.3-1.9-4.9
			c-3.1-6.2-8.1-10.1-15.1-11.1c-2.3-0.3-4.6,0.7-6.7,1.8c-2.8,1.6-5.5,3.5-8.4,4.9c-2.6,1.2-5.5,2-8.3,2.9c-1.6,0.5-3.4,0.7-5,1.1
			c-1.9,0.5-3.1,1.9-4.4,3.2c-2.6,2.7-4.4,6-6,9.3c-1.6,3.2-3.3,6.3-6.1,8.5c-3.9,3.2-5.8,7.4-6.9,12.1c-1.5,6.1-3,12.3-4.4,18.5
			c-1,4.3-2,8.6-2.8,12.9c-0.6,3.3-1.1,6.7-1.5,10c-0.3,2.8-0.5,5.5-0.7,8.3c-0.1,2.1-0.1,4.2-0.2,6.3c0,0.3,0,0.6-0.3,0.9
			c-0.1-0.7-0.4-1.3-0.4-2c0-2,0-4,0.3-6c0.5-4.5,0.8-9,1.6-13.5c1.2-6.9,2.6-13.8,4.1-20.6c1.5-7.1,3.3-14.1,5.7-21
			C149.2,165.3,149.5,164.8,149.9,164.1 M132.2,62.9c0.9-1.2,1.6-2.3,2.5-3.3c3.7-4.3,6.2-9.4,8-14.7c1-2.9,0.7-6-0.3-8.8
			c-1.1-3.1-5.4-5-8.7-4.2c-1.2,0.3-2.3,0.6-3.5,0.9c-4.7,1.2-9.5,2.4-14.3,3.5c-0.9,0.2-1.8,0.2-2.7,0.3c-1,0.1-2.1-0.1-3.1,0.2
			c-3,1.1-6,0.5-9,0c-3.1-0.6-6.1-0.8-8.6,1.5c-1.4,1.3-2.8,2.8-3.7,4.5c-1.2,2.3-3.1,3.7-5.2,4.8c-3.6,1.9-6.9,4.2-9.1,7.7
			c-3.3,5.4-4.6,11.2-3.6,17.4c0.3,1.6,0.8,3.2,1.9,4.2c0.8-1.3,1.4-2.7,2.3-3.8c1-1.2,2.1-2.1,3.3-3c3.3-2.5,7-3.4,11-1.9
			c2.9,1,5.7,2.2,8.6,3.2c6.7,2.1,13.4,4.2,20.5,4.4c3.4,0.1,7,0,10.3-0.6c3.4-0.6,6.8-1.8,10-3.1c3.1-1.3,6.1-2.9,8.1-5.8
			c1.9-2.7,3.7-5.4,5.3-8.2c0.7-1.3,1.1-2.9,1.4-4.4c0.2-1.4-0.6-2.2-2-2.2c-2.5,0.1-4.8,0.8-6.7,2.3c-2,1.5-3.6,3.5-5.3,5.3
			c-1,1.1-1.9,2.2-3,3.5c3.3-0.9,6.5-3.5,8.9-6.9c0.3-0.5,1-0.7,1.5-1c-0.2,0.5-0.3,1.2-0.6,1.6c-5.4,6.2-12.4,9-20.4,9.6
			c-6.2,0.5-12-0.9-17.4-3.9c-0.5-0.3-1-0.6-1.4-0.8l0.2-0.4c5.7,2.3,11.3,5.3,18,4.4c-2.6-6.1-5.9-11.5-9.6-16.8
			c-1.4-2-2.9-4-4.3-6c-0.8-1.1-0.5-2.3,0.6-2.5c0.6-0.1,1.5,0.3,1.9,0.8c2.7,2.7,5.4,5.4,8,8.3C126,52.9,129.1,57.8,132.2,62.9
			 M136.8,202.9c0.1,0,0.2,0,0.4,0c0.2-1.5,0.5-3.1,0.4-4.6c-0.2-3-0.6-5.9-0.9-8.9c-0.4-3.4-0.8-6.9-1.2-10.3
			c-0.4-3.3-1-6.6-1.4-9.9c-0.4-2.5-0.6-5.1-1.1-7.6c-1-4.3-2.1-8.6-3.2-12.9c-0.6-2.4-0.9-4.9-2.4-7.1c-2.1-3.2-3.8-6.5-5.7-9.8
			c-0.7-1.3-1.5-2.6-2.1-4c-0.3-0.7-0.2-1.7-0.6-2.3c-1.5-1.9-3-3.8-4.7-5.5c-2.5-2.5-5.3-4.6-9-4.9c-0.7-0.1-1.5-0.7-2.2-1
			c-1.1-0.6-2.1-1.5-3.2-1.7c-1.8-0.3-3.8-0.3-5.7-0.2c-3.3,0.2-6.5,0.4-9.6-1.1c-1.6-0.8-3.4-0.8-5.3-0.5c-1.8,0.2-3.7,0.3-5.5,0.1
			c-2.1-0.3-4.2-0.5-6.4-0.3c-2.2,0.2-4.4,0.6-6.6-0.2c-1-0.3-2.1,0.1-3.5,0.2c0.5,0.6,0.6,0.9,0.9,1c3.1,1.9,5.7,4.4,8.5,6.7
			c2,1.6,3.9,3.5,6.6,3.9c2.6,0.4,4.5,2,6.1,3.9c0.9,1.1,1.9,2.1,3,3.1c3,2.8,6.3,5.2,10.4,6.2c2.7,0.6,5.5,1,8.2,1.6
			c1.5,0.4,3,0.9,4.4,1.6c1.9,1,3.6,2.3,5.5,3.2c1.6,0.8,3,1.5,4.1,3c1.1,1.6,2.5,3,4.4,3.7c0.7,0.2,1.3,0.8,1.7,1.4
			c2.9,3.7,5.3,7.7,7.4,11.8c1.8,3.5,3.5,7,4.3,10.8c0.7,3.4,1.2,6.7,1.7,10.1c0.8,5.4,1.6,10.8,2.4,16.2
			C137,200,136.8,201.5,136.8,202.9 M175.7,122.3c-1.1,0.6-2.1,1-3.1,1.6c-1,0.7-1.9,1.4-2.8,2.3c-2.6,2.4-5.7,2.2-8.5,0.6
			c-2.7-1.5-3.9-4.4-2-6.3c-0.6-0.5-1.1-1-1.7-1.4c-1.1-0.7-2.3-1.2-3.5-0.4c-0.9,0.6-1.8,1.4-2.3,2.4c-2,3.6-1.2,7.1,0.9,10.3
			c1.4,2,3.1,3.8,5.1,5.4c2.3,1.8,4.9,2.7,8,1.7c1.2-0.4,2.6-0.4,3.9-0.5c1.6-0.1,2.8-0.8,3.9-1.8c0.6-0.6,1.1-1.2,1.8-1.8
			c3.5-3.1,6.8-6.7,11.4-8.4c3.4-1.3,6.8-2.4,10.4-1.7c0.7,0.1,1.5,0.3,2.2,0.4c3.4,0.4,6.3,1.9,8.7,4.3c1.8,1.8,3.7,3.6,5.5,5.3
			c-0.1-0.4-0.2-1-0.4-1.5c-0.9-2.8-1.6-5.6-2.8-8.2c-1.5-3.4-3.7-6.4-6.6-8.9c-2.9-2.5-6.1-3.8-10-3.7c-2.4,0.1-4.8-0.6-6.4-2.5
			c-1.8-2.1-3.9-3.3-6.5-3.9c-1.8-0.5-3.6-1.2-5.4-1.9c-1.2-0.5-2.3-1.5-3.6-1.9c-3.2-1-6.1,0.2-8.5,2.2c-2.5,2-4.3,4.5-4.4,8
			c-0.1,3,0.5,5.9,1.9,8.5c0.8,1.5,1.6,1.5,2.8,0.3c4.1-4.4,8.5-8.3,14.7-9.6c1.9-0.4,3.8-0.6,5.8-0.7c0.5,0,1.1,0.7,1.6,1.1
			c-0.4,0.3-0.7,0.8-1.1,1c-0.7,0.4-1.6,0.6-2.3,0.9c-5.5,2.1-10.5,5-14.2,9.7c-0.8,1-1.7,1.9-1.9,3.7c1.7-0.9,3.2-1.6,4.6-2.5
			C172.5,123.4,173.7,122.2,175.7,122.3 M144.4,70c-9,5.6-18.8,7.1-29.3,6.2c2.2,2.4,4.3,4.5,6.1,6.8c1.8,2.4,3.3,4.9,5,7.4
			c1.3,2,1.7,4.3,1.8,6.6c0.1,2.9,0.2,5.8,0.5,8.7c0.5,3.7,1.6,7.2,4,10.1c3,3.6,5,7.6,6.6,11.9c0.1,0.3,0.6,0.7,0.9,0.6
			c0.3,0,0.6-0.5,0.7-0.8c1-3.3,1.9-6.5,3-9.8c1.3-4.2,2.4-8.5,2-13c-0.2-2.8-0.9-5.5-2-8.1c-1.1-2.5-2.4-5.1-2.8-7.8
			c-0.7-5.7-0.1-11.3,2.4-16.6C143.7,71.5,144,70.7,144.4,70 M154.4,135.1C154.5,135,154.4,135,154.4,135.1c0,0.2,0,0.5,0,0.8
			c-0.2,3.3-0.4,6.6-2.6,9.4c-0.2,0.2-0.3,0.6-0.4,0.8c-1.8,4.9-3.4,9.8-2.7,15.1c0.1,0.6-0.2,1.4,0.7,1.7c1,0.4,1.5-0.1,2.1-0.7
			c0.8-0.8,1.7-1.7,2.6-2.5c2.5-2.4,4.5-5,5.8-8.2c0.4-1,0.7-2,1.2-3c0.9-2,1.7-4,3.5-5.5c1.3-1.1,2.5-2.4,3.8-3.6
			c-2.6-0.1-5.1,0.9-7.4-0.3C158.6,137.9,156.5,136.5,154.4,135.1 M173.4,137.6c0.8-0.2,1.3-0.2,1.8-0.4c3.1-1.1,6.3-1.9,9.3-3.3
			c2.6-1.2,5-2.9,7.5-4.4c5.4-3.3,10.6-2.5,15.6,0.8c1.8,1.2,3.4,2.9,5.1,4.3c-1.2-1.5-2.6-2.8-3.9-4.1c-2.7-2.8-5.9-4.7-9.9-5.1
			c-1.8-0.2-3.7-0.7-5.4-0.4c-2.5,0.4-5,1.3-7.4,2.3c-3.8,1.6-6.7,4.5-9.7,7.3C175.6,135.5,174.6,136.4,173.4,137.6 M132.2,64.1
			c-2.1-3.2-4-6.2-5.9-9.1c-2.7-4-6-7.4-9.4-10.9c-1.1-1.1-2.1-2.4-3.3-3.5c-0.3-0.3-1-0.5-1.3-0.4c-0.7,0.3-0.4,0.9,0,1.4
			c0.2,0.3,0.4,0.7,0.7,1c2.6,3.9,5.4,7.7,7.9,11.7c1.9,3,3.3,6.3,5,9.5c0.2,0.4,0.8,0.9,1.1,0.9C128.6,64.7,130.1,64.4,132.2,64.1
			 M138.9,129.5c0,0.4,0,0.7,0.1,1c0.7,4.9,1.3,9.9,2.1,14.8c0.6,3.7,1.2,7.5,2,11.2c0.6,2.8,1.2,5.6,1,8.5
			c-0.2,2.9-0.3,5.7-0.5,8.6c0,0.2-0.1,0.4-0.1,0.6c-0.5,2.5-1,4.9-1.5,7.4c-0.1,0.6-0.2,1.2-0.3,1.8c0.3-0.4,0.4-0.8,0.6-1.2
			c1-3.8,1.8-7.7,3-11.5c1-3.2,1.5-6.4,0.9-9.6c-0.8-4.8-2.1-9.4-3.1-14.2c-0.6-3-1.2-6.1-1.6-9.2c-0.4-2.6-0.5-5.3-0.7-8
			C140.2,129.6,139.6,129.5,138.9,129.5 M161.6,126.2c0.7,0.2,1.4,0.4,2,0.5c1.1,0.2,1.7-0.2,2.4-1.2c1.4-2.2,2.9-4.4,4.8-6
			c3.8-3.2,8-5.5,12.7-7.2c0.6-0.2,1.1-0.5,1.8-0.8C179.4,109.5,165.6,116.7,161.6,126.2 M144.1,39.7c-0.2,1.5-0.2,3.6-0.8,5.5
			c-1.6,5-4,9.7-7.4,13.9c-1.2,1.5-2.2,3-3.3,4.5c0.1,0.1,0.2,0.2,0.2,0.3c0.7-0.4,1.6-0.6,2.1-1.1c2.3-2.5,4.8-4.8,6.5-7.6
			C144.5,50.3,146,45,144.1,39.7 M82,81.1c-4-3.6-4.4-6.7-0.6-12c-2.5,1.5-4.9,3.1-6.6,5.7c-1,1.6-0.8,3.4,0.7,4.5
			C77.5,80.6,79.7,81,82,81.1 M160.8,125.3c-0.4-1.4-0.7-2.6-1-4.1C158.9,122.8,159.2,124.1,160.8,125.3 M160.8,121.5
			c-0.1,0-0.1,0.1-0.2,0.1c0.2,0.9,0.4,1.8,0.6,3c0.4-0.7,0.7-1.1,0.9-1.5C161.7,122.4,161.2,122,160.8,121.5"/>
		<path class="st1" d="M132.2,62.9c-3.1-5.1-6.3-10-10.1-14.4c-2.5-2.9-5.3-5.6-8-8.3c-0.5-0.5-1.3-0.9-1.9-0.8
			c-1.1,0.2-1.3,1.4-0.6,2.5c1.4,2,2.9,4,4.3,6c3.7,5.3,7,10.7,9.6,16.8c-6.6,1-12.2-2-18-4.4l-0.2,0.4c0.5,0.3,0.9,0.6,1.4,0.8
			c5.4,3,11.2,4.4,17.4,3.9c8-0.6,15-3.5,20.4-9.6c0.4-0.4,0.4-1.1,0.6-1.6c-0.5,0.3-1.2,0.6-1.5,1c-2.4,3.4-5.6,5.9-8.9,6.9
			c1.1-1.3,2-2.5,3-3.5c1.7-1.8,3.4-3.8,5.3-5.3c1.9-1.5,4.2-2.2,6.7-2.3c1.4,0,2.3,0.8,2,2.2c-0.3,1.5-0.6,3.1-1.4,4.4
			c-1.6,2.8-3.5,5.6-5.3,8.2c-2,2.8-5,4.5-8.1,5.8c-3.2,1.3-6.6,2.5-10,3.1c-3.4,0.6-6.9,0.6-10.3,0.6c-7.1-0.1-13.8-2.2-20.5-4.4
			c-2.9-0.9-5.7-2.1-8.6-3.2c-4-1.4-7.7-0.6-11,1.9c-1.2,0.9-2.4,1.9-3.3,3c-0.9,1.1-1.5,2.4-2.3,3.8c-1.2-0.9-1.7-2.6-1.9-4.2
			c-1-6.2,0.3-12.1,3.6-17.4c2.2-3.5,5.5-5.9,9.1-7.7c2.2-1.1,4-2.5,5.3-4.8c0.9-1.7,2.3-3.2,3.7-4.5c2.5-2.3,5.5-2.1,8.6-1.5
			c3,0.6,5.9,1.1,9,0c0.9-0.3,2-0.1,3.1-0.2c0.9-0.1,1.8-0.1,2.7-0.3c4.8-1.1,9.5-2.3,14.3-3.5c1.2-0.3,2.3-0.6,3.5-0.9
			c3.3-0.8,7.5,1.1,8.7,4.2c1,2.8,1.3,5.9,0.3,8.8c-1.9,5.3-4.3,10.4-8,14.7C133.9,60.6,133.1,61.8,132.2,62.9"/>
		<path class="st1" d="M136.8,202.9c0-1.5,0.2-2.9,0-4.4c-0.7-5.4-1.5-10.8-2.4-16.2c-0.5-3.4-1.1-6.8-1.7-10.1
			c-0.8-3.9-2.5-7.4-4.3-10.8c-2.1-4.2-4.5-8.2-7.4-11.8c-0.4-0.6-1-1.2-1.7-1.4c-1.9-0.7-3.3-2.1-4.4-3.7c-1-1.5-2.5-2.3-4.1-3
			c-1.9-0.9-3.6-2.3-5.5-3.2c-1.4-0.7-2.9-1.2-4.4-1.6c-2.7-0.6-5.5-1-8.2-1.6c-4.1-1-7.4-3.3-10.4-6.1c-1-1-2-2-3-3.1
			c-1.7-1.9-3.6-3.5-6.1-3.9c-2.7-0.4-4.7-2.2-6.6-3.9c-2.8-2.3-5.4-4.8-8.5-6.7c-0.3-0.2-0.4-0.5-0.9-1c1.4-0.1,2.6-0.5,3.5-0.2
			c2.2,0.7,4.4,0.4,6.6,0.2c2.2-0.2,4.3,0,6.4,0.3c1.8,0.2,3.7,0.2,5.5-0.1c1.8-0.3,3.6-0.2,5.3,0.5c3.1,1.5,6.3,1.3,9.6,1.1
			c1.9-0.1,3.8-0.1,5.7,0.2c1.1,0.2,2.2,1.1,3.2,1.7c0.7,0.4,1.4,1,2.2,1c3.8,0.3,6.5,2.4,9,4.9c1.7,1.7,3.2,3.6,4.7,5.5
			c0.5,0.6,0.3,1.6,0.6,2.3c0.6,1.4,1.4,2.7,2.1,4c1.9,3.3,3.6,6.7,5.7,9.8c1.4,2.2,1.7,4.7,2.4,7.1c1.1,4.3,2.3,8.6,3.2,12.9
			c0.5,2.5,0.7,5,1.1,7.5c0.5,3.3,1,6.6,1.4,9.9c0.5,3.4,0.8,6.9,1.2,10.3c0.3,3,0.7,5.9,0.9,8.9c0.1,1.5-0.3,3.1-0.4,4.6
			C137,202.9,136.9,202.9,136.8,202.9 M95.4,124.9c-0.1,0.1-0.2,0.2-0.2,0.3c1,0.6,2.1,1,3,1.7c5,3.5,10.6,6.3,15.3,10.3
			c2.2,1.9,4.7,3.6,6.2,6.2c1,1.7,2.2,3.2,3.4,4.7c2.4,3.1,4.2,6.5,5.7,10c0.8,1.8,1.5,3.6,2.2,5.4c0.1,0,0.2-0.1,0.3-0.1
			c-0.7-1.8-1.4-3.5-2.1-5.3c-1.8-4.5-4.3-8.4-7.2-12.2c-1.6-2.2-3.1-4.6-5.1-6.4c-5.4-4.9-11.7-8.7-17.9-12.6
			C97.8,126.2,96.6,125.5,95.4,124.9 M76.8,114.3c0,0.1,0,0.2-0.1,0.4c0.3,0.1,0.6,0.1,1,0.2c3,0.6,6,1.1,9,1.8c1.7,0.4,3.3,1,5,1.3
			c3.3,0.7,6.5,1.4,9.8,2c3.3,0.6,6.1,2.3,8.8,4.3c0.5,0.4,1,0.7,1.5,1.1c-2-2.8-7.3-5.5-11-6c-3.1-0.5-6.1-1.1-9.1-1.8
			c-3.3-0.8-6.6-1.8-9.9-2.5C80.1,114.6,78.4,114.5,76.8,114.3 M116.3,142.3c0.1-0.1,0.1-0.1,0.1-0.2c-1.3-0.8-2.4-1.9-3.8-2.4
			c-1.6-0.6-2.8-1.4-3.9-2.6c-1.5-1.8-3.5-2.9-5.8-3.5c-3.1-0.8-6.2-1.5-9.2-2.4c-1.1-0.3-2.1-1-3.2-1.5c0.2,0.4,0.5,0.6,0.8,0.8
			c2.9,1.7,6.1,2.5,9.4,3.1c3.1,0.5,6,1.4,7.9,4.1c0.3,0.4,0.7,0.9,1.2,1.1C112,140,114.1,141.2,116.3,142.3 M130.3,158.3
			c-2.6-10.4-6.9-20-14-28.2C123,138.5,127.3,148.1,130.3,158.3 M107.7,129c6.2,4.4,11.1,9.9,15.2,16.3
			C119.3,138.5,114.3,132.9,107.7,129"/>
		<path class="st1" d="M175.7,122.3c-2-0.1-3.3,1-4.7,2c-1.4,0.9-2.9,1.6-4.6,2.5c0.1-1.8,1.1-2.7,1.9-3.7c3.8-4.7,8.7-7.6,14.2-9.7
			c0.8-0.3,1.6-0.5,2.3-0.9c0.4-0.2,0.8-0.7,1.1-1c-0.5-0.4-1.1-1.1-1.6-1.1c-1.9,0.1-3.9,0.4-5.8,0.7c-6.1,1.2-10.6,5.1-14.7,9.6
			c-1.1,1.2-1.9,1.2-2.8-0.3c-1.4-2.6-2-5.4-1.9-8.5c0.1-3.5,1.8-6,4.4-8c2.5-2,5.3-3.2,8.5-2.2c1.3,0.4,2.3,1.4,3.6,1.9
			c1.7,0.7,3.5,1.4,5.4,1.9c2.6,0.7,4.7,1.8,6.5,3.9c1.6,1.9,4,2.6,6.4,2.5c3.9-0.1,7.1,1.3,10,3.7c2.9,2.4,5.1,5.5,6.6,8.9
			c1.2,2.6,1.9,5.5,2.8,8.2c0.2,0.5,0.3,1.1,0.4,1.5c-1.8-1.7-3.6-3.5-5.5-5.3c-2.4-2.4-5.3-3.9-8.7-4.3c-0.8-0.1-1.5-0.3-2.2-0.4
			c-3.7-0.7-7.1,0.4-10.4,1.7c-4.6,1.8-7.8,5.3-11.4,8.4c-0.6,0.6-1.1,1.2-1.8,1.8c-1.1,1-2.4,1.7-3.9,1.8c-1.3,0.1-2.7,0.1-3.9,0.5
			c-3,1-5.7,0.1-8-1.7c-1.9-1.5-3.7-3.3-5.1-5.4c-2.1-3.1-2.9-6.7-0.9-10.3c0.5-0.9,1.4-1.8,2.3-2.4c1.2-0.8,2.4-0.3,3.5,0.4
			c0.6,0.4,1.1,0.9,1.7,1.4c-1.9,1.9-0.7,4.8,2,6.3c2.8,1.6,5.9,1.8,8.5-0.6c0.9-0.8,1.8-1.6,2.8-2.3
			C173.6,123.3,174.6,122.9,175.7,122.3"/>
		<path class="st1" d="M144.4,70c-0.3,0.8-0.7,1.5-1,2.3c-2.5,5.3-3.2,10.9-2.4,16.6c0.3,2.7,1.6,5.3,2.8,7.8c1.1,2.6,1.7,5.3,2,8.1
			c0.4,4.5-0.7,8.8-2,13c-1,3.3-2,6.5-3,9.8c-0.1,0.3-0.5,0.8-0.7,0.8c-0.3,0-0.8-0.3-0.9-0.6c-1.6-4.3-3.6-8.4-6.6-11.9
			c-2.4-2.9-3.5-6.4-4-10.1c-0.4-2.9-0.4-5.8-0.5-8.7c-0.1-2.3-0.5-4.6-1.8-6.6c-1.6-2.5-3.1-5.1-5-7.4c-1.8-2.3-3.9-4.4-6.1-6.8
			C125.5,77.1,135.4,75.6,144.4,70"/>
		<path class="st1" d="M154.4,135.1c2.1,1.3,4.2,2.8,6.4,4c2.3,1.2,4.8,0.2,7.4,0.3c-1.3,1.2-2.4,2.5-3.8,3.6
			c-1.8,1.5-2.6,3.5-3.5,5.5c-0.4,1-0.8,2-1.2,3c-1.3,3.2-3.3,5.9-5.8,8.2c-0.9,0.8-1.7,1.7-2.6,2.5c-0.6,0.6-1.1,1.1-2.1,0.7
			c-0.9-0.4-0.6-1.1-0.7-1.7c-0.7-5.3,0.9-10.2,2.7-15.1c0.1-0.3,0.2-0.6,0.4-0.9c2.3-2.7,2.4-6.1,2.6-9.4
			C154.4,135.6,154.4,135.3,154.4,135.1C154.4,135,154.5,135,154.4,135.1"/>
		<path class="st1" d="M173.4,137.6c1.2-1.1,2.2-2.1,3.1-3c2.9-2.8,5.8-5.7,9.7-7.3c2.4-1,4.8-1.9,7.4-2.3c1.7-0.3,3.6,0.3,5.4,0.4
			c4,0.4,7.1,2.3,9.9,5.1c1.3,1.4,2.7,2.6,3.9,4.1c-1.7-1.4-3.3-3.1-5.1-4.3c-5-3.3-10.2-4.1-15.6-0.8c-2.5,1.5-4.9,3.2-7.5,4.4
			c-3,1.3-6.2,2.2-9.3,3.3C174.7,137.4,174.2,137.4,173.4,137.6"/>
		<path class="st1" d="M132.2,64.1c-2.1,0.3-3.6,0.6-5.2,0.7c-0.4,0-0.9-0.5-1.1-0.9c-1.7-3.2-3.1-6.5-5-9.5
			c-2.5-4-5.2-7.8-7.9-11.7c-0.2-0.3-0.4-0.7-0.7-1c-0.3-0.5-0.7-1.1,0-1.4c0.3-0.1,1,0.1,1.3,0.4c1.1,1.1,2.2,2.3,3.3,3.5
			c3.4,3.4,6.7,6.8,9.4,10.9C128.2,57.9,130.1,60.9,132.2,64.1"/>
		<path class="st1" d="M138.9,129.5c0.7,0,1.3,0.1,1.8,0.1c0.2,2.7,0.4,5.3,0.7,8c0.4,3.1,1,6.1,1.6,9.2c1,4.7,2.3,9.4,3.1,14.2
			c0.5,3.2,0.1,6.4-0.9,9.6c-1.2,3.8-2,7.7-3,11.5c-0.1,0.4-0.2,0.8-0.6,1.2c0.1-0.6,0.2-1.2,0.3-1.8c0.5-2.5,1-4.9,1.5-7.4
			c0-0.2,0.1-0.4,0.1-0.6c0.2-2.9,0.3-5.7,0.5-8.6c0.2-2.9-0.5-5.7-1-8.5c-0.7-3.7-1.4-7.4-2-11.2c-0.8-4.9-1.4-9.9-2.1-14.8
			C138.9,130.2,138.9,129.9,138.9,129.5"/>
		<path class="st1" d="M161.6,126.2c4-9.5,17.8-16.7,23.8-14.7c-0.7,0.3-1.3,0.6-1.8,0.8c-4.7,1.6-9,4-12.7,7.2
			c-1.9,1.6-3.4,3.9-4.8,6c-0.7,1-1.3,1.4-2.4,1.2C163,126.5,162.3,126.3,161.6,126.2"/>
		<path class="st1" d="M144.1,39.7c1.9,5.2,0.4,10.6-2.5,15.5c-1.7,2.8-4.2,5.2-6.5,7.6c-0.5,0.6-1.4,0.7-2.1,1.1
			c-0.1-0.1-0.2-0.2-0.2-0.3c1.1-1.5,2.1-3.1,3.3-4.5c3.3-4.2,5.7-8.8,7.4-13.9C144,43.4,143.9,41.3,144.1,39.7"/>
		<path class="st1" d="M82,81.1c-2.3-0.1-4.6-0.5-6.5-1.8c-1.5-1.1-1.7-2.9-0.7-4.5c1.6-2.6,4-4.2,6.6-5.7
			C77.7,74.4,78,77.5,82,81.1"/>
		<path class="st1" d="M160.8,125.3c-1.6-1.2-1.9-2.5-1-4.1C160.1,122.7,160.4,123.9,160.8,125.3"/>
		<path class="st1" d="M160.8,121.5c0.4,0.5,0.9,1,1.4,1.5c-0.2,0.4-0.5,0.8-0.9,1.5c-0.2-1.2-0.4-2.1-0.6-3
			C160.7,121.5,160.7,121.5,160.8,121.5"/>
		<path d="M95.4,124.9c1.2,0.7,2.4,1.3,3.6,2c6.2,3.8,12.5,7.6,17.9,12.6c2,1.8,3.5,4.2,5.1,6.4c2.9,3.8,5.4,7.8,7.2,12.2
			c0.7,1.8,1.4,3.5,2.1,5.3c-0.1,0-0.2,0.1-0.3,0.1c-0.7-1.8-1.4-3.6-2.2-5.4c-1.5-3.6-3.3-7-5.7-10c-1.2-1.5-2.4-3.1-3.4-4.7
			c-1.6-2.6-4-4.3-6.2-6.2c-4.7-4-10.3-6.8-15.3-10.3c-0.9-0.7-2-1.1-3-1.7C95.3,125.1,95.3,125,95.4,124.9"/>
		<path d="M76.8,114.3c1.6,0.2,3.3,0.3,4.9,0.7c3.3,0.8,6.6,1.8,9.9,2.5c3,0.7,6.1,1.3,9.1,1.8c3.7,0.6,9,3.2,11,6
			c-0.5-0.4-1-0.7-1.5-1.1c-2.6-2-5.4-3.7-8.8-4.3c-3.3-0.6-6.6-1.3-9.8-2c-1.7-0.4-3.3-1-5-1.3c-3-0.7-6-1.2-9-1.8
			c-0.3-0.1-0.6-0.1-1-0.2C76.7,114.5,76.8,114.4,76.8,114.3"/>
		<path d="M116.3,142.3c-2.2-1.1-4.3-2.3-6.4-3.4c-0.5-0.3-0.9-0.7-1.2-1.1c-2-2.7-4.9-3.6-7.9-4.1c-3.3-0.6-6.4-1.5-9.4-3.1
			c-0.3-0.2-0.6-0.4-0.8-0.8c1.1,0.5,2.1,1.2,3.2,1.5c3,0.9,6.1,1.7,9.2,2.4c2.3,0.6,4.3,1.6,5.8,3.5c1,1.2,2.3,2.1,3.9,2.6
			c1.4,0.5,2.5,1.6,3.8,2.4C116.4,142.2,116.3,142.2,116.3,142.3"/>
		<path d="M130.3,158.3c-3-10.2-7.3-19.8-14-28.2C123.4,138.3,127.7,147.9,130.3,158.3"/>
		<path d="M107.7,129c6.6,4,11.5,9.5,15.2,16.3C118.9,138.9,114,133.3,107.7,129"/>
	</g>
</g>
<g id="Layer_1">
	<g>
		<path d="M339.8,133.8l-0.1-33.4L323.1,128h-4.2l-16.6-27.2v33h-8.9V83.4h7.7l20,33.4l19.7-33.4h7.7l0.1,50.4H339.8z"/>
		<path d="M362.2,83.4h9.4v50.4h-9.4V83.4z"/>
		<path d="M394.7,131.2c-4.1-2.2-7.3-5.3-9.6-9.3c-2.3-3.9-3.5-8.4-3.5-13.3c0-4.9,1.2-9.4,3.5-13.3c2.4-3.9,5.6-7,9.7-9.3
			s8.7-3.3,13.8-3.3c4.1,0,7.9,0.7,11.3,2.2c3.4,1.4,6.3,3.5,8.6,6.3l-6,5.7c-3.6-3.9-8.1-5.9-13.5-5.9c-3.5,0-6.6,0.8-9.3,2.3
			c-2.7,1.5-4.9,3.6-6.4,6.3c-1.5,2.7-2.3,5.7-2.3,9.1c0,3.4,0.8,6.5,2.3,9.1c1.5,2.7,3.7,4.8,6.4,6.3c2.7,1.5,5.8,2.3,9.3,2.3
			c5.3,0,9.8-2,13.5-6l6,5.8c-2.4,2.7-5.2,4.8-8.7,6.3c-3.4,1.4-7.2,2.2-11.3,2.2C403.4,134.5,398.8,133.4,394.7,131.2z"/>
		<path d="M482.3,83.4v50.4H473v-21.6h-26.1v21.6h-9.4V83.4h9.4v20.8H473V83.4H482.3z"/>
		<path d="M533.6,126v7.8h-37.8V83.4h36.8v7.8h-27.4v13.1h24.3v7.7h-24.3V126H533.6z"/>
		<path d="M544.1,83.4h9.4v42.5h26.4v7.9h-35.7V83.4z"/>
		<path d="M587.2,83.4h9.4v42.5h26.4v7.9h-35.7V83.4z"/>
		<path d="M668.1,126v7.8h-37.8V83.4h36.8v7.8h-27.4v13.1H664v7.7h-24.3V126H668.1z"/>
		<path d="M702.8,132.9c-3.6-1.1-6.5-2.6-8.6-4.4l3.2-7.3c2.1,1.6,4.6,3,7.6,4c3,1,6,1.5,9,1.5c3.7,0,6.5-0.6,8.4-1.8
			c1.8-1.2,2.8-2.8,2.8-4.8c0-1.4-0.5-2.6-1.5-3.6c-1-0.9-2.3-1.7-3.9-2.2c-1.6-0.5-3.7-1.1-6.5-1.8c-3.8-0.9-6.9-1.8-9.3-2.7
			c-2.4-0.9-4.4-2.3-6.1-4.3c-1.7-1.9-2.6-4.6-2.6-7.9c0-2.8,0.8-5.3,2.3-7.6c1.5-2.3,3.8-4.1,6.8-5.4c3-1.3,6.8-2,11.2-2
			c3.1,0,6.1,0.4,9.1,1.2c3,0.8,5.5,1.9,7.7,3.3l-3,7.3c-2.2-1.3-4.5-2.3-6.9-3c-2.4-0.7-4.7-1-7-1c-3.7,0-6.4,0.6-8.2,1.9
			c-1.8,1.2-2.7,2.9-2.7,5c0,1.4,0.5,2.6,1.5,3.5c1,0.9,2.3,1.6,3.9,2.2c1.6,0.5,3.7,1.1,6.5,1.8c3.7,0.9,6.8,1.8,9.2,2.7
			s4.5,2.4,6.2,4.3c1.7,1.9,2.6,4.5,2.6,7.8c0,2.8-0.8,5.3-2.3,7.6c-1.5,2.3-3.8,4.1-6.9,5.4c-3.1,1.3-6.8,2-11.2,2
			C710.2,134.5,706.4,134,702.8,132.9z"/>
		<path d="M790,133.8l-0.1-33.4L773.4,128h-4.2l-16.6-27.2v33h-8.9V83.4h7.7l20,33.4l19.7-33.4h7.7l0.1,50.4H790z"/>
		<path d="M812.5,83.4h9.4v50.4h-9.4V83.4z"/>
		<path d="M845.7,91.3H829v-7.9h42.8v7.9h-16.7v42.5h-9.4V91.3z"/>
	</g>
	<g>
		<path d="M300,173.1c-1.6-0.9-2.8-2.1-3.8-3.6c-0.9-1.5-1.4-3.3-1.4-5.2s0.5-3.6,1.4-5.2c0.9-1.5,2.2-2.7,3.8-3.6
			c1.6-0.9,3.4-1.3,5.4-1.3c1.6,0,3.1,0.3,4.4,0.8c1.3,0.6,2.4,1.4,3.4,2.4l-2.4,2.2c-1.4-1.5-3.2-2.3-5.2-2.3
			c-1.3,0-2.5,0.3-3.6,0.9s-1.9,1.4-2.5,2.4c-0.6,1-0.9,2.2-0.9,3.6s0.3,2.5,0.9,3.6c0.6,1,1.4,1.9,2.5,2.5s2.3,0.9,3.6,0.9
			c2.1,0,3.8-0.8,5.2-2.3l2.4,2.2c-0.9,1.1-2,1.9-3.4,2.4c-1.3,0.6-2.8,0.8-4.4,0.8C303.4,174.4,301.6,174,300,173.1z"/>
		<path d="M320.4,173.1c-1.6-0.9-2.9-2.1-3.8-3.6c-0.9-1.5-1.4-3.3-1.4-5.2c0-1.9,0.5-3.6,1.4-5.2c0.9-1.5,2.2-2.7,3.8-3.6
			s3.4-1.3,5.4-1.3c2,0,3.8,0.4,5.4,1.3s2.9,2.1,3.8,3.6c0.9,1.5,1.4,3.3,1.4,5.2s-0.5,3.6-1.4,5.2c-0.9,1.5-2.2,2.7-3.8,3.6
			c-1.6,0.9-3.4,1.3-5.4,1.3C323.8,174.4,322,174,320.4,173.1z M329.4,170.4c1-0.6,1.9-1.4,2.5-2.5s0.9-2.2,0.9-3.5
			s-0.3-2.5-0.9-3.5s-1.4-1.9-2.5-2.5s-2.2-0.9-3.5-0.9c-1.3,0-2.5,0.3-3.5,0.9s-1.9,1.4-2.5,2.5c-0.6,1.1-0.9,2.2-0.9,3.5
			s0.3,2.5,0.9,3.5c0.6,1.1,1.4,1.9,2.5,2.5s2.2,0.9,3.5,0.9C327.1,171.3,328.3,171,329.4,170.4z"/>
		<path d="M342.4,172.2c-1.5-1.5-2.3-3.7-2.3-6.5v-11.1h3.6v10.9c0,3.8,1.7,5.8,5,5.8c3.3,0,5-1.9,5-5.8v-10.9h3.6v11.1
			c0,2.8-0.8,5-2.3,6.5c-1.5,1.5-3.6,2.3-6.3,2.3C346,174.4,343.9,173.7,342.4,172.2z"/>
		<path d="M379.8,154.6v19.6h-3L366,160.9v13.3h-3.6v-19.6h3l10.8,13.3v-13.3H379.8z"/>
		<path d="M386.7,173.8c-1.4-0.4-2.5-1-3.3-1.7l1.3-2.8c0.8,0.6,1.8,1.2,3,1.6s2.3,0.6,3.5,0.6c1.5,0,2.5-0.2,3.3-0.7
			c0.7-0.5,1.1-1.1,1.1-1.8c0-0.6-0.2-1-0.6-1.4c-0.4-0.4-0.9-0.6-1.5-0.9c-0.6-0.2-1.5-0.4-2.5-0.7c-1.5-0.4-2.7-0.7-3.6-1.1
			c-0.9-0.4-1.7-0.9-2.4-1.7c-0.7-0.8-1-1.8-1-3.1c0-1.1,0.3-2.1,0.9-3c0.6-0.9,1.5-1.6,2.7-2.1c1.2-0.5,2.6-0.8,4.4-0.8
			c1.2,0,2.4,0.1,3.5,0.4c1.2,0.3,2.2,0.7,3,1.3l-1.1,2.8c-0.9-0.5-1.8-0.9-2.7-1.1c-0.9-0.3-1.8-0.4-2.7-0.4
			c-1.4,0-2.5,0.2-3.2,0.7s-1,1.1-1,1.9c0,0.6,0.2,1,0.6,1.4c0.4,0.4,0.9,0.6,1.5,0.8c0.6,0.2,1.5,0.4,2.5,0.7
			c1.5,0.3,2.7,0.7,3.6,1c0.9,0.4,1.7,0.9,2.4,1.7c0.7,0.7,1,1.8,1,3c0,1.1-0.3,2.1-0.9,2.9c-0.6,0.9-1.5,1.6-2.7,2.1
			c-1.2,0.5-2.7,0.8-4.4,0.8C389.6,174.4,388.1,174.2,386.7,173.8z"/>
		<path d="M417.3,171.1v3.1h-14.7v-19.6h14.3v3.1h-10.7v5.1h9.5v3h-9.5v5.4H417.3z"/>
		<path d="M421.4,154.6h3.6v16.5h10.2v3.1h-13.9V154.6z"/>
		<path d="M438.2,154.6h3.6v16.5h10.2v3.1h-13.9V154.6z"/>
		<path d="M454.9,154.6h3.6v19.6h-3.6V154.6z"/>
		<path d="M481.3,154.6v19.6h-3l-10.8-13.3v13.3h-3.6v-19.6h3l10.8,13.3v-13.3H481.3z"/>
		<path d="M499.9,164.1h3.4v7.8c-1,0.8-2.2,1.4-3.5,1.8c-1.3,0.4-2.7,0.6-4.1,0.6c-2,0-3.8-0.4-5.4-1.3c-1.6-0.9-2.9-2.1-3.8-3.6
			c-0.9-1.5-1.4-3.3-1.4-5.2s0.5-3.6,1.4-5.2c0.9-1.5,2.2-2.7,3.8-3.6c1.6-0.9,3.4-1.3,5.4-1.3c1.6,0,3.1,0.3,4.5,0.8
			c1.3,0.5,2.5,1.3,3.4,2.4l-2.3,2.2c-1.5-1.5-3.3-2.2-5.4-2.2c-1.4,0-2.6,0.3-3.7,0.9c-1.1,0.6-1.9,1.4-2.5,2.4
			c-0.6,1-0.9,2.2-0.9,3.6c0,1.3,0.3,2.5,0.9,3.5c0.6,1,1.4,1.9,2.5,2.5s2.3,0.9,3.7,0.9c1.5,0,2.9-0.3,4-1V164.1z"/>
		<path d="M528.4,155.4c1.3,0.6,2.2,1.4,2.9,2.4c0.7,1,1,2.3,1,3.7c0,1.4-0.3,2.7-1,3.7s-1.6,1.9-2.9,2.4c-1.3,0.6-2.7,0.8-4.4,0.8
			h-4.4v5.7h-3.6v-19.6h8.1C525.7,154.6,527.1,154.8,528.4,155.4z M527.4,164.4c0.8-0.7,1.2-1.6,1.2-2.9c0-1.3-0.4-2.2-1.2-2.9
			s-2-1-3.6-1h-4.3v7.8h4.3C525.4,165.4,526.6,165.1,527.4,164.4z"/>
		<path d="M537.9,173.8c-1.4-0.4-2.5-1-3.3-1.7l1.3-2.8c0.8,0.6,1.8,1.2,3,1.6c1.2,0.4,2.3,0.6,3.5,0.6c1.5,0,2.5-0.2,3.3-0.7
			c0.7-0.5,1.1-1.1,1.1-1.8c0-0.6-0.2-1-0.6-1.4c-0.4-0.4-0.9-0.6-1.5-0.9c-0.6-0.2-1.5-0.4-2.5-0.7c-1.5-0.4-2.7-0.7-3.6-1.1
			c-0.9-0.4-1.7-0.9-2.4-1.7c-0.7-0.8-1-1.8-1-3.1c0-1.1,0.3-2.1,0.9-3c0.6-0.9,1.5-1.6,2.7-2.1c1.2-0.5,2.6-0.8,4.4-0.8
			c1.2,0,2.4,0.1,3.5,0.4c1.2,0.3,2.2,0.7,3,1.3l-1.1,2.8c-0.9-0.5-1.8-0.9-2.7-1.1c-0.9-0.3-1.8-0.4-2.7-0.4
			c-1.4,0-2.5,0.2-3.2,0.7c-0.7,0.5-1,1.1-1,1.9c0,0.6,0.2,1,0.6,1.4c0.4,0.4,0.9,0.6,1.5,0.8c0.6,0.2,1.5,0.4,2.5,0.7
			c1.5,0.3,2.7,0.7,3.6,1c0.9,0.4,1.7,0.9,2.4,1.7c0.7,0.7,1,1.8,1,3c0,1.1-0.3,2.1-0.9,2.9c-0.6,0.9-1.5,1.6-2.7,2.1
			c-1.2,0.5-2.7,0.8-4.4,0.8C540.8,174.4,539.3,174.2,537.9,173.8z"/>
		<path d="M562.3,167.2v6.9h-3.6v-6.9l-7.7-12.7h3.9l5.7,9.5l5.8-9.5h3.6L562.3,167.2z"/>
		<path d="M576.1,173.1c-1.6-0.9-2.8-2.1-3.8-3.6c-0.9-1.5-1.4-3.3-1.4-5.2s0.5-3.6,1.4-5.2c0.9-1.5,2.2-2.7,3.8-3.6
			s3.4-1.3,5.4-1.3c1.6,0,3.1,0.3,4.4,0.8s2.4,1.4,3.4,2.4l-2.4,2.2c-1.4-1.5-3.2-2.3-5.2-2.3c-1.3,0-2.5,0.3-3.6,0.9
			c-1.1,0.6-1.9,1.4-2.5,2.4c-0.6,1-0.9,2.2-0.9,3.6s0.3,2.5,0.9,3.6c0.6,1,1.4,1.9,2.5,2.5c1.1,0.6,2.3,0.9,3.6,0.9
			c2.1,0,3.8-0.8,5.2-2.3l2.4,2.2c-0.9,1.1-2,1.9-3.4,2.4c-1.3,0.6-2.8,0.8-4.4,0.8C579.4,174.4,577.7,174,576.1,173.1z"/>
		<path d="M610.1,154.6v19.6h-3.6v-8.4h-10.1v8.4h-3.6v-19.6h3.6v8.1h10.1v-8.1H610.1z"/>
		<path d="M619.1,173.1c-1.6-0.9-2.9-2.1-3.8-3.6c-0.9-1.5-1.4-3.3-1.4-5.2c0-1.9,0.5-3.6,1.4-5.2c0.9-1.5,2.2-2.7,3.8-3.6
			s3.4-1.3,5.4-1.3c2,0,3.8,0.4,5.4,1.3c1.6,0.9,2.9,2.1,3.8,3.6c0.9,1.5,1.4,3.3,1.4,5.2s-0.5,3.6-1.4,5.2
			c-0.9,1.5-2.2,2.7-3.8,3.6c-1.6,0.9-3.4,1.3-5.4,1.3C622.5,174.4,620.7,174,619.1,173.1z M628.1,170.4c1-0.6,1.9-1.4,2.5-2.5
			c0.6-1.1,0.9-2.2,0.9-3.5s-0.3-2.5-0.9-3.5c-0.6-1.1-1.4-1.9-2.5-2.5c-1-0.6-2.2-0.9-3.5-0.9s-2.5,0.3-3.5,0.9
			c-1,0.6-1.9,1.4-2.5,2.5s-0.9,2.2-0.9,3.5s0.3,2.5,0.9,3.5s1.4,1.9,2.5,2.5c1,0.6,2.2,0.9,3.5,0.9S627,171,628.1,170.4z"/>
		<path d="M639,154.6h3.6v16.5h10.2v3.1H639V154.6z"/>
		<path d="M659.5,173.1c-1.6-0.9-2.9-2.1-3.8-3.6c-0.9-1.5-1.4-3.3-1.4-5.2c0-1.9,0.5-3.6,1.4-5.2c0.9-1.5,2.2-2.7,3.8-3.6
			s3.4-1.3,5.4-1.3c2,0,3.8,0.4,5.4,1.3c1.6,0.9,2.9,2.1,3.8,3.6c0.9,1.5,1.4,3.3,1.4,5.2s-0.5,3.6-1.4,5.2
			c-0.9,1.5-2.2,2.7-3.8,3.6c-1.6,0.9-3.4,1.3-5.4,1.3C662.9,174.4,661.1,174,659.5,173.1z M668.4,170.4c1-0.6,1.9-1.4,2.5-2.5
			c0.6-1.1,0.9-2.2,0.9-3.5s-0.3-2.5-0.9-3.5c-0.6-1.1-1.4-1.9-2.5-2.5c-1-0.6-2.2-0.9-3.5-0.9s-2.5,0.3-3.5,0.9
			c-1,0.6-1.9,1.4-2.5,2.5s-0.9,2.2-0.9,3.5s0.3,2.5,0.9,3.5s1.4,1.9,2.5,2.5c1,0.6,2.2,0.9,3.5,0.9S667.4,171,668.4,170.4z"/>
		<path d="M692.7,164.1h3.4v7.8c-1,0.8-2.2,1.4-3.5,1.8c-1.3,0.4-2.7,0.6-4.1,0.6c-2,0-3.8-0.4-5.4-1.3c-1.6-0.9-2.9-2.1-3.8-3.6
			c-0.9-1.5-1.4-3.3-1.4-5.2s0.5-3.6,1.4-5.2c0.9-1.5,2.2-2.7,3.8-3.6c1.6-0.9,3.4-1.3,5.4-1.3c1.6,0,3.1,0.3,4.5,0.8
			c1.3,0.5,2.5,1.3,3.4,2.4l-2.3,2.2c-1.5-1.5-3.3-2.2-5.4-2.2c-1.4,0-2.6,0.3-3.7,0.9c-1.1,0.6-1.9,1.4-2.5,2.4
			c-0.6,1-0.9,2.2-0.9,3.6c0,1.3,0.3,2.5,0.9,3.5c0.6,1,1.4,1.9,2.5,2.5s2.3,0.9,3.7,0.9c1.5,0,2.9-0.3,4-1V164.1z"/>
		<path d="M700.9,154.6h3.6v19.6h-3.6V154.6z"/>
		<path d="M711.5,173.8c-1.4-0.4-2.5-1-3.3-1.7l1.3-2.8c0.8,0.6,1.8,1.2,3,1.6c1.2,0.4,2.3,0.6,3.5,0.6c1.5,0,2.5-0.2,3.3-0.7
			c0.7-0.5,1.1-1.1,1.1-1.8c0-0.6-0.2-1-0.6-1.4c-0.4-0.4-0.9-0.6-1.5-0.9c-0.6-0.2-1.5-0.4-2.5-0.7c-1.5-0.4-2.7-0.7-3.6-1.1
			c-0.9-0.4-1.7-0.9-2.4-1.7c-0.7-0.8-1-1.8-1-3.1c0-1.1,0.3-2.1,0.9-3c0.6-0.9,1.5-1.6,2.7-2.1c1.2-0.5,2.6-0.8,4.4-0.8
			c1.2,0,2.4,0.1,3.5,0.4c1.2,0.3,2.2,0.7,3,1.3l-1.1,2.8c-0.9-0.5-1.8-0.9-2.7-1.1c-0.9-0.3-1.8-0.4-2.7-0.4
			c-1.4,0-2.5,0.2-3.2,0.7c-0.7,0.5-1,1.1-1,1.9c0,0.6,0.2,1,0.6,1.4c0.4,0.4,0.9,0.6,1.5,0.8c0.6,0.2,1.5,0.4,2.5,0.7
			c1.5,0.3,2.7,0.7,3.6,1c0.9,0.4,1.7,0.9,2.4,1.7c0.7,0.7,1,1.8,1,3c0,1.1-0.3,2.1-0.9,2.9c-0.6,0.9-1.5,1.6-2.7,2.1
			c-1.2,0.5-2.7,0.8-4.4,0.8C714.4,174.4,713,174.2,711.5,173.8z"/>
		<path d="M731.4,157.6h-6.5v-3.1h16.6v3.1h-6.5v16.5h-3.6V157.6z"/>
	</g>
</g>
<g id="Layer_3">
</g>
</svg>
