<?xml version="1.0" encoding="utf-8"?>
<!-- Generator: Adobe Illustrator 24.1.1, SVG Export Plug-In . SVG Version: 6.00 Build 0)  -->
<svg version="1.1" id="Layer_1" xmlns="http://www.w3.org/2000/svg" xmlns:xlink="http://www.w3.org/1999/xlink" x="0px" y="0px"
	 viewBox="0 0 1000 800" style="enable-background:new 0 0 1000 800;" xml:space="preserve">
<style type="text/css">
	.st0{fill:#ECFDF5;}
	.st1{fill:#A7F3D0;}
	.st2{fill:#34D399;}
	.st3{fill:#F0EFF3;}
</style>
<path class="st0" d="M800,400c110.5,0,200,89.5,200,200H800V400z"/>
<path class="st1" d="M400,500h100c55.2,0,100-44.8,100-100H500C444.8,400,400,444.8,400,500z"/>
<path class="st0" d="M300,600h100c55.2,0,100-44.8,100-100H400C344.8,500,300,544.8,300,600z"/>
<path class="st2" d="M400,0v200c0,110.5,89.5,200,200,200V200C600,89.5,510.5,0,400,0z"/>
<path class="st1" d="M1000,200H800c-110.5,0-200,89.5-200,200h200C910.5,400,1000,310.5,1000,200z"/>
<path class="st1" d="M1000,600H800c-110.5,0-200,89.5-200,200h200C910.5,800,1000,710.5,1000,600z"/>
<path class="st3" d="M400,600H200C89.5,600,0,689.5,0,800h200C310.5,800,400,710.5,400,600z"/>
<path class="st1" d="M520,550c0-16.6,13.4-30,30-30s30,13.4,30,30s-13.4,30-30,30S520,566.6,520,550z"/>
<path class="st2" d="M931,392c0-16.6,13.4-30,30-30s30,13.4,30,30s-13.4,30-30,30S931,408.6,931,392z"/>
<path class="st3" d="M600,500c0-55.2,44.8-100,100-100s100,44.8,100,100s-44.8,100-100,100H600V500z"/>
<path class="st3" d="M1000,100c0,55.2-44.8,100-100,100s-100-44.8-100-100S844.8,0,900,0h100V100z"/>
<path class="st1" d="M1000,50c0,27.6-22.4,50-50,50c-27.6,0-50-22.4-50-50c0-27.6,22.4-50,50-50h50V50z"/>
<path class="st3" d="M600,700c0,55.2-44.8,100-100,100s-100-44.8-100-100s44.8-100,100-100h100V700z"/>
<path class="st2" d="M600,650c0,27.6-22.4,50-50,50c-27.6,0-50-22.4-50-50c0-27.6,22.4-50,50-50h50V650z"/>
<path class="st0" d="M600,550c0-27.6,22.4-50,50-50c27.6,0,50,22.4,50,50c0,27.6-22.4,50-50,50h-50V550z"/>
<path class="st3" d="M600,100C600,44.8,644.8,0,700,0s100,44.8,100,100s-44.8,100-100,100H600V100z"/>
<path class="st0" d="M600,150c0-27.6,22.4-50,50-50c27.6,0,50,22.4,50,50c0,27.6-22.4,50-50,50h-50V150z"/>
</svg>
