<?xml version="1.0" encoding="utf-8"?>
<!-- Generator: Adobe Illustrator 19.0.0, SVG Export Plug-In . SVG Version: 6.00 Build 0)  -->
<svg version="1.1" id="Layer_1" xmlns="http://www.w3.org/2000/svg" xmlns:xlink="http://www.w3.org/1999/xlink" x="0px" y="0px"
	 viewBox="0 0 600 600" style="enable-background:new 0 0 600 600;" xml:space="preserve">
<style type="text/css">
	.st0{fill:#97C6C6;}
	.st1{fill:#FFFFFF;}
</style>
<g id="XMLID_1_">
	<path id="XMLID_40_" class="st0" d="M595,300c0,162.9-132.1,295-295,295S5,462.9,5,300S137.1,5,300,5S595,137.1,595,300"/>
	<path id="XMLID_39_" class="st1" d="M589.2,300c0,159.7-129.5,289.2-289.2,289.2S10.8,459.7,10.8,300S140.3,10.8,300,10.8
		S589.2,140.3,589.2,300"/>
	<path id="XMLID_38_" class="st0" d="M583.4,300c0,156.5-126.9,283.4-283.4,283.4S16.6,456.5,16.6,300S143.5,16.6,300,16.6
		S583.4,143.5,583.4,300"/>
	<g id="Flower_1_">
		<path id="XMLID_66_" d="M330.7,379.7c-1.7-0.8-3.2-1.5-4.8-2.2c-3.5,13.4-6.9,26.7-10.5,40c-2.4,8.9-4.8,17.8-7.2,26.7
			c-4,14.9-7.5,30-9.2,45.4c-1.2,11.2-2.3,22.5-3.6,34.5c0-4.1-0.2-7.4,0-10.7c0.7-8.6,1.7-17.2,2.3-25.8c0.6-8.5,1.6-17,1.1-25.5
			c-0.6-10.4-2.2-20.8-3.8-31.1c-1.7-11.2-3.7-22.5-6.2-33.6c-1.2-5.3-3.2-10.6-5.8-15.5c-4.8-9.4-10.1-18.5-15.5-27.6
			c-1.8-3-4.3-5.5-6.6-8.2c-0.6-0.8-1.5-1.6-2.4-1.8c-5-1.2-7.4-5.3-10.2-8.9c-2.8-3.7-5.8-6.5-10.8-5.9c-2.7,0.3-4.5-1.4-6.1-3.3
			c-4.4-5.4-10-7.6-17-8.7c-14.8-2.3-29.2-6.3-40.8-16.8c-4.9-4.5-9.8-9-14.6-13.6c-2.3-2.2-4.9-3.8-8.1-4.6
			c-2.4-0.6-4.9-1.3-6.8-2.8c-6.2-4.7-12.1-9.8-18.2-14.6c-3.1-2.5-6.5-4.7-9.6-7.1c-0.8-0.6-1.6-1.4-2.1-2.2
			c-1.2-1.9-0.5-3.4,1.7-3.4c2.7,0,5.3,0.3,8,0.5c3.6,0.2,7.1,0.5,10.7,0.6c9.1,0.2,18.1,0.4,27.2,0.5c2.5,0,5-0.6,7.5-0.4
			c3.3,0.3,6.7,0.5,9.7,1.7c6.6,2.6,13.5,1.9,20.3,2.3c5.7,0.3,11.5-1.2,17,1c0.2,0.1,0.4,0,0.5,0.1c7.7,3.5,15.8,6.3,23,10.6
			c5.3,3.2,9.5,8.1,14.1,12.4c4.9,4.5,7.4,10.4,9.7,16.6c1.6,4.3,4.1,8.2,6.5,12.2c3.8,6.5,8,12.7,11.4,19.3
			c1.5,2.8,1.6,6.4,2.4,9.6c2.5,10,5.1,20,7.4,30.1c1.3,5.6,2,11.3,2.9,16.9c1,6.1,1.8,12.3,2.7,18.4c1.3,9.4,2.6,18.7,3.7,28.1
			c0.9,7.3,1.4,14.7,2.7,22.1c0.9-4,1.7-8,2.6-12c1.5-6.8,3.2-13.5,4.3-20.3c1.4-8.8,2.4-17.6,3.3-26.4c0.6-6.3,1.1-12.6,0.8-18.9
			c-0.4-7.2-1.5-14.3-2.5-21.5c-1.3-8.9-2.9-17.7-4.2-26.6c-1.5-9.9-2.7-19.8-4.4-29.6c-1.5-8.8-3.6-17.6-9.4-24.9
			c-3.1-4-6.4-8-9-12.3c-4.5-7.5-8-15.4-7.4-24.6c0.6-9.2,0.3-18.4-3.1-27.1c-3-7.8-7.7-14.5-13.3-20.7c-2.8-3-5.5-6-8.1-9.2
			c-3.6-4.4-8.1-6.8-13.6-8c-11.6-2.5-23.1-5.2-34.1-9.8c-5.9-2.5-11.9-4.8-18.1-6.1c-8.3-1.7-11.5-1.3-16.4,6.1
			c-3.6,5.4-5.4,10.9-1.4,16.5c2.1,2.9,5.1,5.6,8.3,7.1c4.8,2.1,10.2,3.1,15.3,4.5c1,0.3,1.9,0.6,2.8,1.6c-1.8,0.1-3.7,0.6-5.5,0.2
			c-9.2-1.9-18.5-3.8-27.6-6.3c-8.4-2.3-17.1-12.8-17.5-22.9c-0.6-12.8,1.6-24.7,7.8-35.8c5.1-9.2,12.9-15.7,22.2-20.4
			c2.7-1.4,5.7-2.7,7.8-4.8c2.6-2.7,4.4-6.1,6.5-9.2c4.4-6.2,9.5-11.6,17.4-12.7c3.3-0.4,6.9-0.1,10.2,0.5
			c7.2,1.4,14.3,1.4,21.5,0.2c5.3-0.8,10.8-0.7,15.9-1.9c12.3-2.9,24.5-6.2,36.7-9.5c9.3-2.5,16.2,1,22.3,7.6
			c7.2,7.8,7.1,17.5,6.9,27.1c-0.1,4.9-1.2,9.9-1.9,14.6c4.4-1.5,9.1-3,13.7-4.6c3.2-1,5.9-0.3,8,2.2c2.4,2.8,1.7,6.1,0.8,9
			c-1,3.1-2.5,6.2-4.3,9c-3.5,5.7-6.7,11.7-11,16.7c-5.3,6.3-8.4,13.5-11.3,20.8c-3.2,8-4.3,16.3-3.4,25c0.9,9.1,4.5,17.5,7.4,26
			c5.5,15.9,4.7,31.6-0.7,47.3c-2.3,6.7-4.8,13.5-5.7,20.5c-1.8,12.6-0.7,25.3,2.1,37.7c2.4,10.9,5.2,21.7,7.7,32.6
			c0.8,3.6,1.1,7.4,2.2,11.2c0.4-2.1,0.8-4.1,1.1-6.2c1.9-13.6,4.6-26.9,11-39.3c2.6-5,3.4-10.6,3.4-16.1c0-1.4-0.8-3-1.7-4.2
			c-3.3-4.4-5.3-9.5-6.8-14.7c-2.2-7.5,1.2-12.9,6.2-17.8c4.8-4.7,10-4.4,16.5,1.8c-0.8-3.5-1.6-6.8-2.3-10.2
			c-2.4-11.8,3.4-25,14.1-30.4c8.5-4.2,17.2-5.7,25.6,0.7c3.8,2.9,8.2,4.4,13,5.1c5.4,0.8,10.6,2.9,14.1,7.1c4.2,5,9.6,6.6,15.7,7.2
			c6.8,0.7,13.5,1.9,19.1,6.2c11.7,8.9,20.2,19.9,23.7,34.5c2.1,9,5.3,17.7,7.7,26.6c0.8,3.1,0.9,6.3,1.4,9.5
			c-0.2,0.1-0.5,0.1-0.7,0.2c-1.5-3.8-2.7-7.7-4.5-11.3c-7.2-14.5-18.9-23.4-35-25.8c-5.4-0.8-10.8,1.6-15.6,4.3
			c-6.6,3.6-12.7,8.1-19.4,11.3c-6.1,2.9-12.8,4.7-19.3,6.7c-3.8,1.1-7.8,1.5-11.6,2.5c-4.4,1.1-7.3,4.4-10.2,7.4
			c-6,6.3-10.1,13.9-13.9,21.7c-3.6,7.4-7.6,14.6-14.1,19.8c-9.1,7.3-13.4,17.3-16,28.1c-3.5,14.3-6.9,28.6-10.2,42.9
			c-2.3,10-4.6,20-6.6,30c-1.5,7.7-2.5,15.5-3.4,23.3c-0.8,6.4-1.3,12.9-1.7,19.3c-0.3,4.9-0.3,9.8-0.4,14.7c0,0.7-0.1,1.4-0.8,2.1
			c-0.3-1.5-0.8-3.1-0.8-4.6c0.1-4.6,0.1-9.3,0.6-13.9c1.1-10.5,1.9-21,3.7-31.4c2.8-16,6.1-32,9.4-47.9
			c3.4-16.5,7.6-32.8,13.2-48.7C329.2,382.5,330,381.2,330.7,379.7 M289.8,144.7c2.1-2.7,3.8-5.4,5.8-7.7
			c8.7-10.1,14.4-21.8,18.7-34.2c2.4-6.8,1.7-13.9-0.7-20.5c-2.7-7.3-12.6-11.7-20.2-9.8c-2.7,0.7-5.3,1.5-8,2.2
			c-11,2.7-22,5.5-33.1,8.1c-2,0.5-4.2,0.5-6.3,0.6c-2.4,0.2-5-0.3-7.2,0.4c-7,2.5-14,1.3-20.8-0.1c-7.2-1.4-14.2-1.9-19.9,3.5
			c-3.3,3.1-6.5,6.5-8.6,10.4c-2.9,5.3-7.1,8.5-12.2,11.1c-8.4,4.3-16.1,9.7-21.2,17.9c-7.7,12.5-10.6,26-8.3,40.5
			c0.6,3.7,1.8,7.5,4.5,9.7c1.8-3.1,3.2-6.2,5.3-8.8c2.2-2.7,5-5,7.8-7.1c7.7-5.9,16.3-7.8,25.6-4.5c6.7,2.4,13.3,5.2,20,7.3
			c15.5,4.9,31.1,9.8,47.5,10.1c8,0.1,16.2,0.1,24-1.3c7.9-1.4,15.7-4.2,23.2-7.3c7.2-3,14.1-6.8,18.7-13.5
			c4.4-6.2,8.6-12.5,12.4-19.1c1.7-3,2.6-6.7,3.2-10.2c0.6-3.2-1.4-5.1-4.7-5c-5.7,0.2-11.1,1.9-15.5,5.4
			c-4.5,3.6-8.4,8.1-12.4,12.3c-2.3,2.5-4.5,5.1-7.1,8.2c7.7-2.2,15.2-8.2,20.8-16c0.8-1.1,2.3-1.6,3.5-2.4
			c-0.5,1.3-0.6,2.8-1.4,3.8c-12.6,14.3-28.9,20.9-47.5,22.4c-14.3,1.1-27.8-2.1-40.3-9.1c-1.1-0.6-2.2-1.3-3.3-2l0.4-1
			c13.3,5.5,26.3,12.3,41.7,10.1c-6-14.1-13.7-26.8-22.2-39c-3.3-4.7-6.7-9.3-10-14c-1.8-2.5-1.2-5.3,1.3-5.8
			c1.3-0.3,3.4,0.7,4.4,1.8c6.3,6.3,12.6,12.6,18.5,19.3C275.2,121.4,282.5,132.8,289.8,144.7 M300.4,469.9c0.3,0,0.5,0,0.8,0
			c0.4-3.6,1.2-7.1,1-10.7c-0.4-6.9-1.3-13.8-2-20.7c-0.9-8-1.8-16-2.8-24c-1-7.7-2.2-15.4-3.4-23c-0.8-5.8-1.3-11.8-2.6-17.5
			c-2.2-10.1-4.8-20.1-7.5-30.1c-1.5-5.6-2.1-11.3-5.5-16.4c-4.8-7.3-8.9-15.2-13.2-22.8c-1.7-3.1-3.5-6.1-4.9-9.3
			c-0.8-1.7-0.4-4.1-1.5-5.4c-3.4-4.5-7-8.9-10.9-12.9c-5.8-5.8-12.2-10.8-21-11.4c-1.7-0.1-3.4-1.5-5-2.4c-2.5-1.3-4.9-3.4-7.5-3.8
			c-4.3-0.7-8.8-0.7-13.2-0.5c-7.6,0.4-15.1,0.9-22.3-2.5c-3.8-1.8-8-1.8-12.2-1.2c-4.2,0.6-8.6,0.7-12.8,0.2
			c-5-0.6-9.8-1.2-14.9-0.7c-5.1,0.5-10.2,1.3-15.4-0.4c-2.2-0.7-5,0.2-8.2,0.4c1.1,1.3,1.5,2,2.1,2.4c7.2,4.4,13.4,10.2,19.8,15.6
			c4.6,3.8,9,8,15.4,9c6,0.9,10.4,4.5,14.2,8.9c2.2,2.5,4.5,4.9,6.9,7.2c6.9,6.6,14.6,12,24.1,14.3c6.3,1.5,12.7,2.3,19,3.7
			c3.5,0.8,7.1,2,10.3,3.6c4.4,2.2,8.4,5.4,12.8,7.5c3.7,1.7,7,3.6,9.4,7c2.6,3.8,5.8,6.9,10.3,8.6c1.5,0.6,2.9,1.9,3.9,3.3
			c6.7,8.5,12.3,17.8,17.2,27.5c4.1,8.1,8.2,16.2,9.9,25.2c1.5,7.8,2.8,15.6,4,23.5c1.9,12.5,3.8,25.1,5.5,37.6
			C300.8,463,300.4,466.5,300.4,469.9 M390.8,282.6c-2.6,1.4-5,2.3-7.1,3.7c-2.3,1.5-4.4,3.3-6.5,5.2c-6.1,5.6-13.3,5.2-19.7,1.5
			c-6.2-3.6-9-10.2-4.5-14.6c-1.3-1.1-2.5-2.4-4-3.3c-2.5-1.6-5.3-2.8-8-0.9c-2.1,1.5-4.1,3.4-5.3,5.5c-4.6,8.3-2.9,16.5,2,23.8
			c3.2,4.7,7.3,8.9,11.7,12.4c5.3,4.2,11.4,6.3,18.5,3.9c2.8-0.9,6-1,9-1.1c3.7-0.1,6.6-1.8,9.2-4.1c1.4-1.3,2.6-2.9,4.1-4.2
			c8.2-7.3,15.8-15.5,26.4-19.6c7.9-3,15.7-5.5,24.3-3.9c1.7,0.3,3.4,0.8,5.2,1c8,0.9,14.6,4.4,20.3,9.9c4.3,4.2,8.6,8.3,12.7,12.3
			c-0.2-0.9-0.5-2.3-0.9-3.5c-2.1-6.4-3.7-13-6.4-19.1c-3.5-7.9-8.5-14.9-15.3-20.6c-6.8-5.7-14.2-8.9-23.3-8.6
			c-5.5,0.2-11.1-1.5-14.8-5.8c-4.2-4.8-9.1-7.6-15.1-9.1c-4.3-1.1-8.4-2.7-12.5-4.4c-2.9-1.2-5.3-3.5-8.3-4.4
			c-7.5-2.3-14.1,0.5-19.8,5.1c-5.8,4.7-9.9,10.4-10.1,18.6c-0.1,7.1,1.1,13.6,4.4,19.7c1.9,3.4,3.8,3.4,6.4,0.6
			c9.4-10.3,19.8-19.3,34-22.2c4.4-0.9,8.9-1.5,13.4-1.7c1.2-0.1,2.5,1.6,3.8,2.5c-0.9,0.8-1.6,1.8-2.6,2.3
			c-1.7,0.9-3.6,1.4-5.4,2.2c-12.8,4.9-24.3,11.7-33.1,22.5c-1.9,2.3-4,4.5-4.4,8.6c4-2.2,7.5-3.8,10.7-5.9
			C383.3,285,386.2,282.3,390.8,282.6 M318,161.1c-21,12.9-43.8,16.5-68.2,14.3c5,5.6,9.9,10.5,14.1,15.9
			c4.2,5.5,7.8,11.5,11.5,17.3c3,4.6,4,9.9,4.2,15.3c0.3,6.7,0.4,13.5,1.2,20.2c1.1,8.5,3.6,16.8,9.3,23.4
			c7.1,8.3,11.7,17.7,15.4,27.7c0.3,0.7,1.4,1.6,2.1,1.5c0.6-0.1,1.5-1.1,1.7-1.9c2.3-7.6,4.5-15.2,6.9-22.8
			c3.1-9.9,5.7-19.8,4.7-30.3c-0.6-6.5-2-12.7-4.6-18.7c-2.6-5.9-5.6-11.9-6.4-18.2c-1.7-13.2-0.1-26.3,5.6-38.5
			C316.5,164.6,317.2,162.8,318,161.1 M341.3,312.3c0.1-0.3,0.1-0.2,0.1-0.1c0,0.6,0,1.3-0.1,1.9c-0.6,7.7-0.8,15.4-6.1,21.7
			c-0.5,0.6-0.7,1.3-1,2c-4.1,11.3-8,22.7-6.3,35c0.2,1.5-0.5,3.2,1.6,4c2.2,0.9,3.4-0.3,4.8-1.7c2-2,4-3.9,6-5.8
			c5.8-5.5,10.5-11.7,13.4-19.1c0.9-2.3,1.7-4.7,2.7-7c2-4.7,4-9.3,8.1-12.7c3.1-2.6,5.9-5.5,8.8-8.3c-6-0.2-11.9,2-17.2-0.7
			C350.9,318.9,346.3,315.5,341.3,312.3 M385.4,318c1.9-0.4,3.1-0.5,4.2-0.8c7.2-2.4,14.7-4.5,21.6-7.6c6.1-2.7,11.7-6.7,17.5-10.2
			c12.5-7.6,24.6-5.8,36.2,1.8c4.3,2.8,7.9,6.6,11.8,10c-2.8-3.4-6-6.4-9-9.6c-6.3-6.5-13.7-11-22.9-11.9c-4.2-0.4-8.6-1.7-12.6-1
			c-5.8,1-11.6,3.1-17.1,5.4c-8.9,3.7-15.6,10.5-22.4,17.1C390.5,313.2,388.2,315.3,385.4,318 M289.7,147.4
			c-4.8-7.5-9.2-14.3-13.7-21c-6.2-9.3-14-17.3-21.8-25.2c-2.6-2.6-5-5.5-7.6-8.1c-0.7-0.7-2.3-1.3-3-0.9c-1.7,0.8-0.8,2.1-0.1,3.2
			c0.5,0.8,1,1.5,1.5,2.3c6.1,9,12.6,17.9,18.3,27.2c4.3,7.1,7.7,14.7,11.6,22.1c0.5,0.9,1.8,2.1,2.6,2
			C281.3,148.7,284.9,148,289.7,147.4 M305.3,299.3c0.1,0.9,0.1,1.6,0.2,2.4c1.6,11.4,3.1,22.9,4.8,34.3c1.3,8.7,2.9,17.3,4.6,25.9
			c1.3,6.6,2.8,13,2.4,19.8c-0.4,6.6-0.8,13.3-1.1,19.9c0,0.5-0.1,0.9-0.2,1.4c-1.2,5.7-2.4,11.4-3.5,17.1c-0.3,1.4-0.4,2.7-0.7,4.1
			c0.8-0.9,1-1.8,1.3-2.8c2.3-8.9,4.1-18,7-26.7c2.4-7.4,3.4-14.9,2.2-22.4c-1.9-11.1-4.9-21.9-7.2-32.9c-1.5-7-2.8-14.1-3.8-21.3
			c-0.9-6.1-1.2-12.3-1.7-18.5C308.2,299.5,307,299.4,305.3,299.3 M358,291.5c1.7,0.4,3.2,0.9,4.7,1.1c2.5,0.4,3.9-0.4,5.5-2.8
			c3.3-5,6.7-10.2,11.2-14c8.7-7.4,18.7-12.9,29.6-16.6c1.3-0.4,2.5-1.1,4.2-1.9C399.2,252.8,367.3,269.5,358,291.5 M317.4,90.8
			c-0.5,3.6-0.4,8.4-1.8,12.8c-3.8,11.7-9.3,22.5-17.1,32.2c-2.7,3.4-5.1,7-7.6,10.6c0.2,0.2,0.4,0.4,0.6,0.6c1.7-0.8,3.8-1.3,5-2.6
			c5.2-5.7,11.1-11.2,15.1-17.7C318.4,115.3,321.8,102.9,317.4,90.8 M173.2,186.8c-9.3-8.4-10.2-15.6-1.5-27.8
			c-5.9,3.4-11.5,7.2-15.2,13.2c-2.3,3.7-1.8,7.9,1.7,10.4C162.6,185.7,167.8,186.7,173.2,186.8 M356.1,289.6
			c-0.8-3.3-1.5-6.1-2.3-9.5C351.7,283.8,352.4,286.7,356.1,289.6 M356.1,280.6c-0.1,0.1-0.3,0.2-0.4,0.2c0.4,2.1,0.9,4.2,1.5,6.9
			c1-1.6,1.6-2.6,2.2-3.6C358.2,282.9,357.1,281.7,356.1,280.6"/>
		<path id="XMLID_23_" class="st1" d="M289.8,144.7c-7.3-11.9-14.6-23.3-23.5-33.3c-5.9-6.7-12.2-13-18.5-19.3
			c-1.1-1.1-3.1-2-4.4-1.8c-2.6,0.5-3.1,3.3-1.3,5.8c3.3,4.7,6.8,9.3,10,14c8.5,12.3,16.2,25,22.2,39c-15.4,2.2-28.4-4.7-41.7-10.1
			l-0.4,1c1.1,0.7,2.2,1.3,3.3,2c12.5,7.1,26,10.3,40.3,9.1c18.6-1.5,34.9-8.1,47.5-22.4c0.8-0.9,1-2.5,1.4-3.8
			c-1.2,0.8-2.7,1.3-3.5,2.4c-5.6,7.8-13,13.8-20.8,16c2.6-3,4.7-5.7,7.1-8.2c4-4.2,7.8-8.7,12.4-12.3c4.4-3.4,9.8-5.2,15.5-5.4
			c3.3-0.1,5.3,1.8,4.7,5c-0.6,3.5-1.4,7.2-3.2,10.2c-3.8,6.6-8,12.9-12.4,19.1c-4.6,6.6-11.6,10.5-18.7,13.5
			c-7.5,3.1-15.3,5.9-23.2,7.3c-7.8,1.4-16,1.4-24,1.3c-16.5-0.3-32-5.2-47.5-10.1c-6.8-2.2-13.3-4.9-20-7.3
			c-9.4-3.3-17.9-1.4-25.7,4.5c-2.8,2.1-5.5,4.4-7.8,7.1c-2.1,2.5-3.5,5.7-5.3,8.8c-2.7-2.2-3.9-5.9-4.5-9.7
			c-2.3-14.5,0.6-28,8.3-40.5c5.1-8.2,12.8-13.6,21.2-17.9c5.1-2.6,9.3-5.8,12.2-11.1c2.1-3.9,5.3-7.4,8.6-10.4
			c5.7-5.4,12.7-4.9,19.9-3.5c6.9,1.4,13.8,2.6,20.8,0.1c2.2-0.8,4.8-0.3,7.2-0.4c2.1-0.1,4.3-0.1,6.3-0.6c11-2.6,22.1-5.4,33.1-8.1
			c2.7-0.7,5.3-1.5,8-2.2c7.6-1.9,17.5,2.5,20.2,9.8c2.4,6.6,3,13.7,0.7,20.5c-4.3,12.4-10,24.1-18.7,34.2
			C293.6,139.3,291.8,142,289.8,144.7"/>
		<path id="XMLID_58_" class="st1" d="M300.4,469.9c0-3.4,0.4-6.8-0.1-10.2c-1.7-12.6-3.6-25.1-5.5-37.6c-1.2-7.8-2.5-15.7-4-23.5
			c-1.8-9-5.8-17.1-10-25.2c-5-9.7-10.5-19-17.2-27.5c-1-1.3-2.4-2.7-3.9-3.3c-4.5-1.7-7.7-4.8-10.3-8.6c-2.4-3.4-5.7-5.3-9.4-7
			c-4.5-2.1-8.4-5.3-12.8-7.5c-3.2-1.6-6.8-2.8-10.3-3.6c-6.3-1.5-12.7-2.2-19-3.7c-9.4-2.3-17.1-7.7-24.1-14.3
			c-2.4-2.3-4.8-4.7-6.9-7.2c-3.9-4.4-8.3-8-14.2-8.9c-6.4-1-10.8-5.2-15.4-9c-6.5-5.4-12.6-11.2-19.8-15.6
			c-0.6-0.4-0.9-1.1-2.1-2.4c3.2-0.2,6-1.1,8.2-0.4c5.2,1.7,10.3,0.9,15.4,0.4c5-0.5,9.9,0,14.9,0.7c4.2,0.5,8.6,0.4,12.8-0.2
			c4.3-0.6,8.5-0.5,12.2,1.2c7.2,3.4,14.7,3,22.3,2.5c4.4-0.3,8.9-0.3,13.2,0.5c2.6,0.5,5,2.5,7.5,3.8c1.7,0.9,3.3,2.3,5,2.4
			c8.8,0.7,15.2,5.6,21,11.4c4,4,7.5,8.4,10.9,12.9c1.1,1.4,0.7,3.7,1.5,5.4c1.5,3.2,3.2,6.2,4.9,9.3c4.3,7.6,8.4,15.5,13.2,22.8
			c3.3,5.1,4,10.8,5.5,16.4c2.7,10,5.3,20,7.5,30.1c1.3,5.8,1.7,11.7,2.6,17.5c1.1,7.7,2.3,15.3,3.4,23c1,8,1.9,16,2.8,24
			c0.8,6.9,1.7,13.8,2,20.7c0.2,3.5-0.6,7.1-1,10.7C300.9,469.9,300.6,469.9,300.4,469.9 M204.3,288.5c-0.2,0.2-0.4,0.5-0.5,0.7
			c2.3,1.3,4.8,2.4,7,3.9c11.7,8.2,24.6,14.6,35.5,23.9c5.2,4.5,10.8,8.3,14.5,14.4c2.3,3.9,5.1,7.5,7.9,11
			c5.5,7.1,9.7,15,13.2,23.3c1.8,4.2,3.4,8.4,5.1,12.6c0.3-0.1,0.5-0.2,0.8-0.3c-1.6-4.1-3.2-8.2-4.8-12.3
			c-4.1-10.3-10-19.6-16.6-28.5c-3.8-5.1-7.2-10.7-11.9-14.9c-12.6-11.4-27.1-20.3-41.5-29.2C209.9,291.6,207,290.1,204.3,288.5
			 M161,264c0,0.3-0.1,0.6-0.1,0.9c0.7,0.2,1.5,0.3,2.2,0.5c7,1.4,14,2.6,20.9,4.2c3.9,0.8,7.6,2.3,11.5,3.1
			c7.6,1.7,15.2,3.2,22.8,4.6c7.8,1.4,14.3,5.3,20.4,9.9c1.2,0.9,2.4,1.7,3.6,2.5c-4.7-6.5-17-12.7-25.6-14
			c-7.1-1.1-14.2-2.5-21.2-4.1c-7.7-1.8-15.3-4.1-23.1-5.9C168.6,264.7,164.8,264.5,161,264 M252.7,329c0.1-0.1,0.2-0.3,0.3-0.4
			c-2.9-1.9-5.6-4.4-8.8-5.6c-3.7-1.3-6.6-3.2-9-6.1c-3.6-4.3-8.1-6.8-13.5-8.1c-7.2-1.8-14.3-3.6-21.4-5.6
			c-2.6-0.7-4.9-2.3-7.4-3.4c0.4,1,1.1,1.5,1.8,1.9c6.8,3.8,14.1,5.9,21.7,7.2c7.1,1.2,13.9,3.2,18.4,9.5c0.7,1,1.7,2,2.8,2.6
			C242.7,323.8,247.7,326.4,252.7,329 M285.2,366.2c-6-24.2-16-46.5-32.6-65.4C268.3,320.2,278.3,342.5,285.2,366.2 M232.9,298
			c14.4,10.1,25.9,23.1,35.3,37.8C259.7,320.2,248.2,307.3,232.9,298"/>
		<path id="XMLID_16_" class="st1" d="M390.8,282.6c-4.6-0.3-7.6,2.4-10.8,4.6c-3.2,2.1-6.7,3.7-10.7,5.9c0.3-4.2,2.5-6.3,4.4-8.6
			c8.8-10.8,20.3-17.6,33.1-22.5c1.8-0.7,3.7-1.3,5.4-2.1c1-0.5,1.8-1.5,2.6-2.3c-1.3-0.9-2.6-2.5-3.8-2.5c-4.5,0.2-9,0.8-13.4,1.7
			c-14.3,2.9-24.6,11.9-34,22.2c-2.6,2.8-4.5,2.9-6.4-0.6c-3.3-6.1-4.6-12.6-4.4-19.7c0.2-8.2,4.3-13.9,10.1-18.6
			c5.7-4.6,12.4-7.3,19.8-5.1c2.9,0.9,5.4,3.2,8.3,4.4c4.1,1.7,8.2,3.3,12.5,4.4c6,1.5,10.9,4.3,15.1,9.1c3.7,4.3,9.3,5.9,14.8,5.8
			c9.1-0.3,16.5,2.9,23.3,8.6c6.7,5.7,11.8,12.7,15.3,20.6c2.7,6.1,4.3,12.7,6.4,19.1c0.4,1.3,0.7,2.6,0.9,3.5
			c-4.2-4-8.5-8.2-12.7-12.3c-5.7-5.5-12.3-9-20.3-9.9c-1.7-0.2-3.5-0.7-5.2-1c-8.6-1.6-16.4,0.9-24.3,3.9
			c-10.7,4.1-18.2,12.3-26.4,19.6c-1.4,1.3-2.6,2.9-4.1,4.2c-2.6,2.3-5.5,3.9-9.2,4.1c-3,0.1-6.2,0.1-9,1.1
			c-7.1,2.3-13.2,0.3-18.5-3.9c-4.4-3.5-8.6-7.8-11.7-12.4c-4.9-7.3-6.7-15.5-2-23.8c1.2-2.2,3.3-4.1,5.3-5.5c2.7-1.9,5.5-0.7,8,0.9
			c1.4,0.9,2.6,2.2,4,3.3c-4.5,4.4-1.6,11,4.5,14.6c6.4,3.7,13.7,4.1,19.7-1.5c2-1.9,4.2-3.7,6.5-5.2
			C385.8,284.9,388.2,283.9,390.8,282.6"/>
		<path id="XMLID_15_" class="st1" d="M318,161.1c-0.8,1.7-1.6,3.5-2.4,5.2c-5.7,12.3-7.3,25.3-5.6,38.5c0.8,6.2,3.8,12.3,6.4,18.2
			c2.6,6,4.1,12.3,4.6,18.7c0.9,10.5-1.6,20.4-4.7,30.3c-2.4,7.6-4.5,15.2-6.9,22.8c-0.2,0.8-1.1,1.9-1.7,1.9
			c-0.7,0.1-1.8-0.8-2.1-1.5c-3.7-10.1-8.3-19.5-15.4-27.7c-5.7-6.6-8.2-14.9-9.3-23.4c-0.8-6.7-0.9-13.5-1.2-20.2
			c-0.2-5.5-1.2-10.7-4.2-15.3c-3.8-5.8-7.3-11.8-11.5-17.2c-4.2-5.4-9.1-10.3-14.1-15.9C274.3,177.5,297,174,318,161.1"/>
		<path id="XMLID_14_" class="st1" d="M341.3,312.3c5,3.1,9.7,6.6,14.8,9.2c5.4,2.8,11.2,0.5,17.2,0.7c-2.9,2.8-5.7,5.8-8.8,8.3
			c-4.1,3.4-6.1,8-8.1,12.7c-1,2.3-1.8,4.7-2.7,7c-2.9,7.5-7.7,13.7-13.4,19.1c-2,1.9-4,3.9-6,5.8c-1.3,1.3-2.6,2.6-4.8,1.7
			c-2.1-0.8-1.4-2.5-1.6-4c-1.7-12.3,2.1-23.7,6.3-35c0.3-0.7,0.5-1.4,1-2c5.2-6.4,5.5-14.1,6.1-21.7c0-0.6,0-1.3,0.1-1.9
			C341.3,312.1,341.4,312.1,341.3,312.3"/>
		<path id="XMLID_13_" class="st1" d="M385.4,318c2.8-2.6,5.1-4.8,7.3-6.9c6.8-6.5,13.6-13.3,22.4-17.1c5.5-2.3,11.2-4.4,17.1-5.4
			c4-0.7,8.4,0.6,12.6,1c9.2,0.9,16.6,5.4,22.9,11.9c3,3.2,6.3,6.1,9,9.6c-3.9-3.4-7.6-7.2-11.8-10c-11.6-7.7-23.7-9.4-36.2-1.8
			c-5.8,3.5-11.3,7.4-17.5,10.2c-6.9,3.1-14.4,5.1-21.6,7.6C388.5,317.5,387.4,317.6,385.4,318"/>
		<path id="XMLID_12_" class="st1" d="M289.7,147.4c-4.8,0.7-8.4,1.3-12.1,1.6c-0.8,0.1-2.1-1.1-2.6-2c-3.9-7.3-7.3-15-11.6-22.1
			c-5.7-9.3-12.1-18.2-18.3-27.2c-0.5-0.8-1-1.5-1.5-2.3c-0.8-1.1-1.6-2.5,0-3.2c0.7-0.3,2.3,0.3,3,0.9c2.6,2.6,5,5.4,7.6,8.1
			c7.8,8,15.6,15.9,21.8,25.2C280.5,133.1,284.9,139.9,289.7,147.4"/>
		<path id="XMLID_11_" class="st1" d="M305.3,299.3c1.7,0.1,2.9,0.2,4.1,0.3c0.6,6.2,0.9,12.4,1.7,18.5c1,7.1,2.3,14.2,3.8,21.3
			c2.3,11,5.4,21.9,7.2,32.9c1.3,7.4,0.3,14.9-2.2,22.4c-2.9,8.7-4.7,17.8-7,26.7c-0.2,1-0.5,1.9-1.3,2.8c0.2-1.4,0.4-2.8,0.7-4.1
			c1.2-5.7,2.4-11.4,3.6-17.1c0.1-0.4,0.2-0.9,0.2-1.4c0.4-6.6,0.7-13.3,1.1-19.9c0.5-6.8-1.1-13.2-2.4-19.8
			c-1.7-8.6-3.3-17.2-4.6-25.9c-1.8-11.4-3.2-22.9-4.8-34.3C305.4,300.9,305.4,300.2,305.3,299.3"/>
		<path id="XMLID_10_" class="st1" d="M358,291.5c9.3-22.1,41.3-38.7,55.2-34.2c-1.7,0.8-2.9,1.4-4.2,1.9
			c-10.9,3.7-20.9,9.3-29.6,16.6c-4.5,3.8-8,9-11.2,14c-1.6,2.4-3,3.2-5.5,2.8C361.2,292.4,359.7,291.9,358,291.5"/>
		<path id="XMLID_9_" class="st1" d="M317.4,90.8c4.3,12.1,0.9,24.6-5.9,35.9c-3.9,6.6-9.8,12-15.1,17.7c-1.2,1.3-3.3,1.7-5,2.6
			c-0.2-0.2-0.4-0.4-0.6-0.6c2.5-3.5,4.9-7.2,7.6-10.6c7.7-9.7,13.3-20.5,17.1-32.2C317.1,99.2,317,94.3,317.4,90.8"/>
		<path id="XMLID_8_" class="st1" d="M173.2,186.8c-5.4-0.1-10.6-1.1-15-4.3c-3.5-2.5-4-6.7-1.7-10.4c3.8-5.9,9.4-9.7,15.2-13.2
			C163,171.2,163.9,178.4,173.2,186.8"/>
		<path id="XMLID_7_" class="st1" d="M356.1,289.6c-3.7-2.9-4.4-5.7-2.3-9.5C354.6,283.5,355.3,286.2,356.1,289.6"/>
		<path id="XMLID_6_" class="st1" d="M356.1,280.6c1,1.1,2.1,2.3,3.2,3.6c-0.6,0.9-1.2,1.9-2.2,3.6c-0.6-2.7-1-4.8-1.5-6.9
			C355.8,280.8,356,280.7,356.1,280.6"/>
		<path id="XMLID_5_" d="M204.3,288.5c2.8,1.6,5.7,3,8.4,4.7c14.4,8.9,28.9,17.8,41.5,29.2c4.7,4.2,8.1,9.8,11.9,14.9
			c6.6,8.8,12.6,18.1,16.6,28.5c1.6,4.1,3.2,8.2,4.8,12.3c-0.3,0.1-0.5,0.2-0.8,0.3c-1.7-4.2-3.3-8.4-5.1-12.6
			c-3.5-8.3-7.6-16.2-13.2-23.3c-2.8-3.6-5.6-7.2-7.9-11c-3.6-6.1-9.3-10-14.5-14.4c-10.9-9.4-23.8-15.7-35.5-23.9
			c-2.2-1.5-4.6-2.6-7-3.9C203.9,289,204.1,288.8,204.3,288.5"/>
		<path id="XMLID_4_" d="M161,264c3.8,0.5,7.6,0.8,11.3,1.7c7.7,1.8,15.3,4.1,23.1,5.9c7,1.6,14.1,3.1,21.2,4.1
			c8.7,1.3,21,7.5,25.6,14c-1.2-0.8-2.4-1.6-3.6-2.5c-6.1-4.7-12.6-8.5-20.4-9.9c-7.6-1.4-15.2-2.9-22.8-4.6
			c-3.9-0.8-7.6-2.3-11.5-3.1c-6.9-1.5-13.9-2.8-20.9-4.2c-0.7-0.1-1.5-0.3-2.2-0.5C160.9,264.5,161,264.2,161,264"/>
		<path id="XMLID_3_" d="M252.7,329c-5-2.7-10-5.2-15-8c-1.1-0.6-2.1-1.6-2.8-2.6c-4.6-6.3-11.3-8.3-18.4-9.5
			c-7.6-1.3-15-3.4-21.7-7.2c-0.7-0.4-1.4-0.9-1.8-1.9c2.5,1.2,4.8,2.7,7.4,3.4c7.1,2.1,14.2,3.9,21.4,5.6c5.4,1.3,9.9,3.8,13.5,8.1
			c2.4,2.9,5.4,4.8,9,6.1c3.2,1.1,5.9,3.7,8.8,5.6C253,328.7,252.9,328.9,252.7,329"/>
		<path id="XMLID_41_" d="M285.2,366.2c-7-23.8-16.9-46-32.6-65.4C269.2,319.8,279.2,342,285.2,366.2"/>
		<path id="XMLID_42_" d="M232.9,298c15.3,9.3,26.8,22.1,35.3,37.8C258.7,321.1,247.3,308.2,232.9,298"/>
	</g>
</g>
</svg>
