<?xml version="1.0" encoding="utf-8"?>
<!-- Generator: Adobe Illustrator 19.0.0, SVG Export Plug-In . SVG Version: 6.00 Build 0)  -->
<svg version="1.1" id="Layer_2" xmlns="http://www.w3.org/2000/svg" xmlns:xlink="http://www.w3.org/1999/xlink" x="0px" y="0px"
	 viewBox="0 0 534 343.3" style="enable-background:new 0 0 534 343.3;" xml:space="preserve">
<style type="text/css">
	.st0{fill:#9CA3AF;}
</style>
<g id="XMLID_56_">
	<path id="XMLID_320_" class="st0" d="M373.1,22c0,0-88.2,31.6-122.2,110.1c-28.8,66.7,16,135.4,16,135.4s80.8-14.4,109.6-81.1
		C410.6,107.9,373.1,22,373.1,22z M276.5,245.5c0,0-36.8-56.4-13.2-111.2C291.2,69.9,363.6,44,363.6,44s30.7,70.5,2.9,134.9
		C342.8,233.7,276.5,245.5,276.5,245.5z"/>
	<path id="XMLID_322_" class="st0" d="M518.6,176.5c0,0-83.5-42.6-163.9-13.5C286.3,187.7,267,267.5,267,267.5s65.8,49,134.2,24.3
		C481.6,262.7,518.6,176.5,518.6,176.5z M289.6,259.4c0,0,15.8-65.5,71.9-85.8c66-23.9,134.5,11.1,134.5,11.1s-30.3,70.7-96.3,94.6
		C343.6,299.6,289.6,259.4,289.6,259.4z"/>
	<g id="XMLID_206_">
		<path id="XMLID_207_" class="st0" d="M239,58.9C253,37.1,267,24,267,24s14,13.1,28,34.9c3.5-3,7.1-6,10.8-8.8
			C287.3,19,267,0,267,0s-20.3,19-38.8,50.1C231.9,53,235.5,55.9,239,58.9z"/>
	</g>
	<g id="XMLID_65_">
		<g id="XMLID_73_">
			<g id="XMLID_74_">
				<path id="XMLID_80_" class="st0" d="M399.7,104.2c25.5-4.8,44.7-3.5,44.7-3.5s0.1,19.2-6.2,44.3c4.7,0.5,9.3,1.1,13.8,1.8
					c10-34.8,9.9-62.5,9.9-62.5s-27.7-1.8-63.1,6.1C399.2,94.9,399.5,99.6,399.7,104.2z"/>
			</g>
		</g>
	</g>
	<g id="XMLID_57_">
		<path id="XMLID_62_" class="st0" d="M486.4,242c-3.1,3.5-6.3,6.9-9.5,10.2c20.9,15.3,33.2,30.1,33.2,30.1s-55.9,52.9-125.9,48.6
			c-27.7-1.7-49.8-15.2-65.5-29.2c-15.2-4.3-28.3-10.2-38.1-15.4c17.6,21.4,51.8,53.7,100,56.6c85.4,5.2,153.4-59.2,153.4-59.2
			S516.3,262.4,486.4,242z"/>
	</g>
	<path id="XMLID_124_" class="st0" d="M157.4,186.4c28.8,66.7,109.6,81.1,109.6,81.1s44.9-68.7,16-135.4
		C249.1,53.6,160.9,22,160.9,22S123.4,107.9,157.4,186.4z M167.5,178.9C139.7,114.5,170.4,44,170.4,44s72.4,25.9,100.3,90.4
		c23.7,54.8-13.2,111.2-13.2,111.2S191.2,233.7,167.5,178.9z"/>
	<path id="XMLID_98_" class="st0" d="M132.8,291.8c68.4,24.7,134.2-24.3,134.2-24.3s-19.3-79.8-87.7-104.5
		c-80.4-29.1-163.9,13.5-163.9,13.5S52.4,262.7,132.8,291.8z M134.3,279.3c-66-23.9-96.3-94.6-96.3-94.6s68.5-35,134.5-11.1
		c56.1,20.3,71.9,85.8,71.9,85.8S190.4,299.6,134.3,279.3z"/>
	<g id="XMLID_71_">
		<path id="XMLID_72_" class="st0" d="M134.3,104.2c-25.5-4.8-44.7-3.5-44.7-3.5s-0.1,19.2,6.2,44.3c-4.7,0.5-9.3,1.1-13.8,1.8
			c-10-34.8-9.9-62.5-9.9-62.5s27.7-1.8,63.1,6.1C134.8,94.9,134.5,99.6,134.3,104.2z"/>
	</g>
	<g id="XMLID_58_">
		<path id="XMLID_63_" class="st0" d="M47.6,242c3.1,3.5,6.3,6.9,9.5,10.2c-20.9,15.3-33.2,30.1-33.2,30.1s55.9,52.9,125.9,48.6
			c27.7-1.7,49.8-15.2,65.5-29.2c15.2-4.3,28.3-10.2,38.1-15.4c-17.6,21.4-51.8,53.7-100,56.6C68.1,348.2,0,283.8,0,283.8
			S17.7,262.4,47.6,242z"/>
	</g>
</g>
</svg>
