<?xml version="1.0" encoding="utf-8"?>
<!-- Generator: Adobe Illustrator 24.1.1, SVG Export Plug-In . SVG Version: 6.00 Build 0)  -->
<svg version="1.1" id="Layer_1" xmlns="http://www.w3.org/2000/svg" xmlns:xlink="http://www.w3.org/1999/xlink" x="0px" y="0px"
	 viewBox="0 0 958.2 260.2" style="enable-background:new 0 0 958.2 260.2;" xml:space="preserve">
<style type="text/css">
	.st0{fill:#CCFFD9;}
	.st1{fill:#FFFFFF;}
</style>
<g>
	<circle class="st0" cx="131.3" cy="130.3" r="125.7"/>
	<g>
		<path d="M144.5,164.6c-0.7-0.3-1.4-0.6-2.1-1c-1.5,5.8-3,11.5-4.5,17.2c-1,3.8-2.1,7.7-3.1,11.5c-1.7,6.4-3.2,12.9-4,19.5
			c-0.5,4.8-1,9.7-1.5,14.9c0-1.8-0.1-3.2,0-4.6c0.3-3.7,0.7-7.4,1-11.1c0.3-3.7,0.7-7.3,0.5-11c-0.2-4.5-0.9-9-1.6-13.4
			c-0.8-4.8-1.6-9.7-2.7-14.5c-0.5-2.3-1.4-4.6-2.5-6.7c-2.1-4-4.3-8-6.7-11.9c-0.8-1.3-1.9-2.4-2.9-3.5c-0.3-0.3-0.7-0.7-1-0.8
			c-2.2-0.5-3.2-2.3-4.4-3.8c-1.2-1.6-2.5-2.8-4.7-2.6c-1.1,0.1-1.9-0.6-2.6-1.4c-1.9-2.3-4.3-3.3-7.3-3.7c-6.4-1-12.6-2.7-17.5-7.2
			c-2.1-1.9-4.2-3.9-6.3-5.9c-1-1-2.1-1.6-3.5-2c-1-0.2-2.1-0.6-2.9-1.2c-2.7-2-5.2-4.2-7.8-6.3c-1.3-1.1-2.8-2-4.2-3
			c-0.3-0.3-0.7-0.6-0.9-0.9c-0.5-0.8-0.2-1.4,0.8-1.4c1.1,0,2.3,0.1,3.4,0.2c1.5,0.1,3.1,0.2,4.6,0.3c3.9,0.1,7.8,0.2,11.7,0.2
			c1.1,0,2.2-0.3,3.2-0.2c1.4,0.1,2.9,0.2,4.2,0.7c2.9,1.1,5.8,0.8,8.8,1c2.4,0.1,4.9-0.5,7.3,0.4c0.1,0,0.2,0,0.2,0
			c3.3,1.5,6.8,2.7,9.9,4.6c2.3,1.4,4.1,3.5,6.1,5.3c2.1,2,3.2,4.5,4.2,7.1c0.7,1.8,1.8,3.5,2.8,5.3c1.6,2.8,3.4,5.5,4.9,8.3
			c0.6,1.2,0.7,2.8,1,4.1c1.1,4.3,2.2,8.6,3.2,13c0.5,2.4,0.9,4.8,1.3,7.3c0.4,2.6,0.8,5.3,1.2,7.9c0.5,4,1.1,8.1,1.6,12.1
			c0.4,3.1,0.6,6.3,1.2,9.5c0.4-1.7,0.7-3.4,1.1-5.2c0.6-2.9,1.4-5.8,1.9-8.8c0.6-3.8,1-7.6,1.4-11.4c0.3-2.7,0.5-5.4,0.3-8.1
			c-0.2-3.1-0.7-6.2-1.1-9.2c-0.6-3.8-1.2-7.6-1.8-11.4c-0.7-4.2-1.2-8.5-1.9-12.8c-0.7-3.8-1.6-7.6-4-10.7
			c-1.4-1.7-2.8-3.4-3.9-5.3c-1.9-3.2-3.4-6.6-3.2-10.6c0.3-4,0.1-7.9-1.3-11.7c-1.3-3.4-3.3-6.3-5.7-8.9c-1.2-1.3-2.4-2.6-3.5-3.9
			c-1.5-1.9-3.5-2.9-5.8-3.4c-5-1.1-9.9-2.2-14.7-4.2c-2.5-1.1-5.1-2.1-7.8-2.6c-3.6-0.7-4.9-0.5-7,2.6c-1.5,2.3-2.3,4.7-0.6,7.1
			c0.9,1.2,2.2,2.4,3.6,3c2.1,0.9,4.4,1.3,6.6,1.9c0.4,0.1,0.8,0.3,1.2,0.7c-0.8,0-1.6,0.3-2.3,0.1c-4-0.8-8-1.6-11.9-2.7
			c-3.6-1-7.4-5.5-7.5-9.9c-0.2-5.5,0.7-10.6,3.3-15.4c2.2-4,5.5-6.7,9.6-8.8c1.2-0.6,2.5-1.2,3.3-2.1c1.1-1.1,1.9-2.6,2.8-4
			c1.9-2.7,4.1-5,7.5-5.5c1.4-0.2,3-0.1,4.4,0.2c3.1,0.6,6.2,0.6,9.3,0.1c2.3-0.4,4.6-0.3,6.9-0.8c5.3-1.2,10.5-2.7,15.8-4.1
			c4-1.1,7,0.4,9.6,3.3c3.1,3.4,3.1,7.5,3,11.7c0,2.1-0.5,4.2-0.8,6.3c1.9-0.6,3.9-1.3,5.9-2c1.4-0.4,2.5-0.1,3.5,0.9
			c1,1.2,0.7,2.6,0.3,3.9c-0.4,1.4-1.1,2.7-1.8,3.9c-1.5,2.5-2.9,5-4.7,7.2c-2.3,2.7-3.6,5.8-4.9,9c-1.4,3.5-1.9,7-1.5,10.8
			c0.4,3.9,1.9,7.5,3.2,11.2c2.4,6.9,2,13.6-0.3,20.4c-1,2.9-2.1,5.8-2.5,8.8c-0.8,5.4-0.3,10.9,0.9,16.2c1,4.7,2.3,9.3,3.3,14
			c0.4,1.6,0.5,3.2,1,4.8c0.2-0.9,0.3-1.8,0.5-2.7c0.8-5.8,2-11.6,4.7-16.9c1.1-2.2,1.4-4.5,1.4-7c0-0.6-0.4-1.3-0.7-1.8
			c-1.4-1.9-2.3-4.1-2.9-6.3c-0.9-3.2,0.5-5.5,2.7-7.7c2.1-2,4.3-1.9,7.1,0.8c-0.3-1.5-0.7-2.9-1-4.4c-1-5.1,1.5-10.8,6.1-13.1
			c3.6-1.8,7.4-2.4,11,0.3c1.6,1.2,3.5,1.9,5.6,2.2c2.3,0.3,4.5,1.3,6.1,3.1c1.8,2.1,4.2,2.9,6.7,3.1c2.9,0.3,5.8,0.8,8.2,2.7
			c5,3.8,8.7,8.5,10.2,14.9c0.9,3.9,2.3,7.6,3.3,11.4c0.4,1.3,0.4,2.7,0.6,4.1c-0.1,0-0.2,0-0.3,0.1c-0.6-1.6-1.2-3.3-1.9-4.9
			c-3.1-6.2-8.1-10.1-15.1-11.1c-2.3-0.3-4.6,0.7-6.7,1.8c-2.8,1.6-5.5,3.5-8.4,4.9c-2.6,1.2-5.5,2-8.3,2.9c-1.6,0.5-3.4,0.7-5,1.1
			c-1.9,0.5-3.1,1.9-4.4,3.2c-2.6,2.7-4.4,6-6,9.3c-1.6,3.2-3.3,6.3-6.1,8.5c-3.9,3.2-5.8,7.4-6.9,12.1c-1.5,6.1-3,12.3-4.4,18.5
			c-1,4.3-2,8.6-2.8,12.9c-0.6,3.3-1.1,6.7-1.5,10c-0.3,2.8-0.5,5.5-0.7,8.3c-0.1,2.1-0.1,4.2-0.2,6.3c0,0.3,0,0.6-0.3,0.9
			c-0.1-0.7-0.4-1.3-0.4-2c0-2,0-4,0.3-6c0.5-4.5,0.8-9,1.6-13.5c1.2-6.9,2.6-13.8,4.1-20.6c1.5-7.1,3.3-14.1,5.7-21
			C143.8,165.8,144.2,165.2,144.5,164.6z M126.9,63.4c0.9-1.2,1.6-2.3,2.5-3.3c3.7-4.3,6.2-9.4,8-14.7c1-2.9,0.7-6-0.3-8.8
			c-1.1-3.1-5.4-5-8.7-4.2c-1.2,0.3-2.3,0.6-3.5,0.9c-4.7,1.2-9.5,2.4-14.3,3.5c-0.9,0.2-1.8,0.2-2.7,0.3c-1,0.1-2.1-0.1-3.1,0.2
			c-3,1.1-6,0.5-9,0c-3.1-0.6-6.1-0.8-8.6,1.5c-1.4,1.3-2.8,2.8-3.7,4.5c-1.2,2.3-3.1,3.7-5.2,4.8c-3.6,1.9-6.9,4.2-9.1,7.7
			C66,61,64.8,66.8,65.8,73.1c0.3,1.6,0.8,3.2,1.9,4.2c0.8-1.3,1.4-2.7,2.3-3.8c1-1.2,2.1-2.1,3.3-3c3.3-2.5,7-3.4,11-1.9
			c2.9,1,5.7,2.2,8.6,3.2c6.7,2.1,13.4,4.2,20.5,4.4c3.4,0.1,7,0,10.3-0.6c3.4-0.6,6.8-1.8,10-3.1c3.1-1.3,6.1-2.9,8.1-5.8
			c1.9-2.7,3.7-5.4,5.3-8.2c0.7-1.3,1.1-2.9,1.4-4.4c0.2-1.4-0.6-2.2-2-2.2c-2.5,0.1-4.8,0.8-6.7,2.3c-2,1.5-3.6,3.5-5.3,5.3
			c-1,1.1-1.9,2.2-3,3.5c3.3-0.9,6.5-3.5,8.9-6.9c0.3-0.5,1-0.7,1.5-1c-0.2,0.5-0.3,1.2-0.6,1.6c-5.4,6.2-12.4,9-20.4,9.6
			c-6.2,0.5-12-0.9-17.4-3.9c-0.5-0.3-1-0.6-1.4-0.8c0.1-0.1,0.1-0.3,0.2-0.4c5.7,2.3,11.3,5.3,18,4.4c-2.6-6.1-5.9-11.5-9.6-16.8
			c-1.4-2-2.9-4-4.3-6c-0.8-1.1-0.5-2.3,0.6-2.5c0.6-0.1,1.5,0.3,1.9,0.8c2.7,2.7,5.4,5.4,8,8.3C120.6,53.4,123.7,58.3,126.9,63.4z
			 M131.4,203.4c0.1,0,0.2,0,0.4,0c0.2-1.5,0.5-3.1,0.4-4.6c-0.2-3-0.5-5.9-0.9-8.9c-0.4-3.4-0.8-6.9-1.2-10.3
			c-0.4-3.3-1-6.6-1.4-9.9c-0.4-2.5-0.6-5.1-1.1-7.6c-1-4.3-2.1-8.6-3.2-12.9c-0.6-2.4-0.9-4.9-2.4-7.1c-2.1-3.2-3.8-6.5-5.7-9.8
			c-0.7-1.3-1.5-2.6-2.1-4c-0.3-0.7-0.2-1.7-0.6-2.3c-1.5-1.9-3-3.8-4.7-5.5c-2.5-2.5-5.3-4.6-9-4.9c-0.7-0.1-1.5-0.7-2.2-1
			c-1.1-0.6-2.1-1.5-3.2-1.7c-1.8-0.3-3.8-0.3-5.7-0.2c-3.3,0.2-6.5,0.4-9.6-1.1c-1.6-0.8-3.4-0.8-5.3-0.5c-1.8,0.2-3.7,0.3-5.5,0.1
			c-2.1-0.3-4.2-0.5-6.4-0.3c-2.2,0.2-4.4,0.6-6.6-0.2c-1-0.3-2.1,0.1-3.5,0.2c0.5,0.6,0.6,0.9,0.9,1c3.1,1.9,5.7,4.4,8.5,6.7
			c2,1.6,3.9,3.5,6.6,3.9c2.6,0.4,4.5,1.9,6.1,3.9c0.9,1.1,1.9,2.1,3,3.1c3,2.8,6.3,5.2,10.4,6.2c2.7,0.6,5.5,1,8.2,1.6
			c1.5,0.4,3,0.9,4.4,1.6c1.9,1,3.6,2.3,5.5,3.2c1.6,0.8,3,1.5,4.1,3c1.1,1.6,2.5,3,4.4,3.7c0.7,0.2,1.3,0.8,1.7,1.4
			c2.9,3.7,5.3,7.7,7.4,11.8c1.8,3.5,3.5,7,4.3,10.8c0.7,3.4,1.2,6.7,1.7,10.1c0.8,5.4,1.6,10.8,2.4,16.2
			C131.6,200.5,131.4,202,131.4,203.4z M170.4,122.8c-1.1,0.6-2.1,1-3.1,1.6c-1,0.7-1.9,1.4-2.8,2.3c-2.6,2.4-5.7,2.2-8.5,0.6
			c-2.7-1.5-3.9-4.4-2-6.3c-0.6-0.5-1.1-1-1.7-1.4c-1.1-0.7-2.3-1.2-3.5-0.4c-0.9,0.6-1.8,1.4-2.3,2.4c-2,3.6-1.2,7.1,0.9,10.3
			c1.4,2,3.2,3.8,5.1,5.4c2.3,1.8,4.9,2.7,8,1.7c1.2-0.4,2.6-0.4,3.9-0.5c1.6-0.1,2.8-0.8,3.9-1.8c0.6-0.6,1.1-1.2,1.8-1.8
			c3.5-3.1,6.8-6.7,11.4-8.4c3.4-1.3,6.8-2.4,10.4-1.7c0.7,0.1,1.5,0.3,2.2,0.4c3.4,0.4,6.3,1.9,8.7,4.3c1.8,1.8,3.7,3.6,5.5,5.3
			c-0.1-0.4-0.2-1-0.4-1.5c-0.9-2.8-1.6-5.6-2.8-8.2c-1.5-3.4-3.7-6.4-6.6-8.9c-2.9-2.5-6.1-3.8-10-3.7c-2.4,0.1-4.8-0.6-6.4-2.5
			c-1.8-2.1-3.9-3.3-6.5-3.9c-1.8-0.5-3.6-1.2-5.4-1.9c-1.2-0.5-2.3-1.5-3.6-1.9c-3.2-1-6.1,0.2-8.5,2.2c-2.5,2-4.3,4.5-4.3,8
			c-0.1,3,0.5,5.9,1.9,8.5c0.8,1.5,1.6,1.5,2.8,0.3c4.1-4.4,8.5-8.3,14.7-9.6c1.9-0.4,3.8-0.6,5.8-0.7c0.5,0,1.1,0.7,1.6,1.1
			c-0.4,0.3-0.7,0.8-1.1,1c-0.7,0.4-1.6,0.6-2.3,0.9c-5.5,2.1-10.5,5-14.2,9.7c-0.8,1-1.7,1.9-1.9,3.7c1.7-0.9,3.2-1.6,4.6-2.5
			C167.1,123.8,168.4,122.7,170.4,122.8z M139,70.5c-9,5.6-18.8,7.1-29.3,6.2c2.2,2.4,4.3,4.5,6.1,6.8c1.8,2.4,3.3,4.9,5,7.4
			c1.3,2,1.7,4.3,1.8,6.6c0.1,2.9,0.2,5.8,0.5,8.7c0.5,3.7,1.6,7.2,4,10.1c3,3.6,5,7.6,6.6,11.9c0.1,0.3,0.6,0.7,0.9,0.6
			c0.3,0,0.6-0.5,0.7-0.8c1-3.3,1.9-6.5,3-9.8c1.3-4.2,2.4-8.5,2-13c-0.2-2.8-0.9-5.5-2-8.1c-1.1-2.5-2.4-5.1-2.8-7.8
			c-0.7-5.7-0.1-11.3,2.4-16.6C138.4,72,138.7,71.2,139,70.5z M149,135.6C149.1,135.5,149.1,135.5,149,135.6c0,0.2,0,0.5,0,0.8
			c-0.2,3.3-0.4,6.6-2.6,9.4c-0.2,0.2-0.3,0.6-0.4,0.8c-1.8,4.9-3.4,9.8-2.7,15.1c0.1,0.6-0.2,1.4,0.7,1.7c1,0.4,1.5-0.1,2.1-0.7
			c0.8-0.8,1.7-1.7,2.6-2.5c2.5-2.4,4.5-5,5.8-8.2c0.4-1,0.7-2,1.2-3c0.9-2,1.7-4,3.5-5.5c1.3-1.1,2.5-2.4,3.8-3.6
			c-2.6-0.1-5.1,0.9-7.4-0.3C153.2,138.4,151.2,136.9,149,135.6z M168.1,138c0.8-0.2,1.3-0.2,1.8-0.4c3.1-1.1,6.3-1.9,9.3-3.3
			c2.6-1.2,5-2.9,7.5-4.4c5.4-3.3,10.6-2.5,15.6,0.8c1.8,1.2,3.4,2.9,5.1,4.3c-1.2-1.5-2.6-2.8-3.9-4.1c-2.7-2.8-5.9-4.7-9.9-5.1
			c-1.8-0.2-3.7-0.7-5.4-0.4c-2.5,0.4-5,1.3-7.4,2.3c-3.8,1.6-6.7,4.5-9.7,7.3C170.2,136,169.3,136.9,168.1,138z M126.8,64.6
			c-2.1-3.2-4-6.2-5.9-9.1c-2.7-4-6-7.4-9.4-10.9c-1.1-1.1-2.1-2.4-3.3-3.5c-0.3-0.3-1-0.5-1.3-0.4c-0.7,0.3-0.4,0.9,0,1.4
			c0.2,0.3,0.4,0.7,0.7,1c2.6,3.9,5.4,7.7,7.9,11.7c1.9,3,3.3,6.3,5,9.5c0.2,0.4,0.8,0.9,1.1,0.9C123.2,65.1,124.8,64.9,126.8,64.6z
			 M133.6,130c0,0.4,0,0.7,0.1,1c0.7,4.9,1.3,9.9,2.1,14.8c0.6,3.7,1.2,7.5,2,11.2c0.6,2.8,1.2,5.6,1,8.5c-0.2,2.9-0.3,5.7-0.5,8.6
			c0,0.2-0.1,0.4-0.1,0.6c-0.5,2.5-1,4.9-1.5,7.4c-0.1,0.6-0.2,1.2-0.3,1.8c0.3-0.4,0.4-0.8,0.6-1.2c1-3.8,1.8-7.7,3-11.5
			c1-3.2,1.5-6.4,0.9-9.6c-0.8-4.8-2.1-9.4-3.1-14.2c-0.6-3-1.2-6.1-1.6-9.2c-0.4-2.6-0.5-5.3-0.7-8
			C134.8,130.1,134.3,130,133.6,130z M156.2,126.6c0.7,0.2,1.4,0.4,2,0.5c1.1,0.2,1.7-0.2,2.4-1.2c1.4-2.2,2.9-4.4,4.8-6
			c3.8-3.2,8-5.5,12.7-7.2c0.6-0.2,1.1-0.5,1.8-0.8C174,110,160.2,117.2,156.2,126.6z M138.8,40.2c-0.2,1.5-0.2,3.6-0.8,5.5
			c-1.6,5-4,9.7-7.4,13.9c-1.2,1.5-2.2,3-3.3,4.5c0.1,0.1,0.2,0.2,0.2,0.3c0.7-0.4,1.6-0.5,2.1-1.1c2.3-2.5,4.8-4.8,6.5-7.6
			C139.2,50.8,140.7,45.4,138.8,40.2z M76.7,81.6c-4-3.6-4.4-6.7-0.6-12c-2.5,1.5-4.9,3.1-6.6,5.7c-1,1.6-0.8,3.4,0.7,4.5
			C72.1,81.1,74.4,81.5,76.7,81.6z M155.4,125.8c-0.4-1.4-0.7-2.6-1-4.1C153.5,123.3,153.8,124.6,155.4,125.8z M155.4,121.9
			c-0.1,0-0.1,0.1-0.2,0.1c0.2,0.9,0.4,1.8,0.6,3c0.4-0.7,0.7-1.1,0.9-1.5C156.3,122.9,155.9,122.4,155.4,121.9z"/>
		<path class="st1" d="M126.9,63.4c-3.1-5.1-6.3-10-10.1-14.4c-2.5-2.9-5.3-5.6-8-8.3c-0.5-0.5-1.3-0.9-1.9-0.8
			c-1.1,0.2-1.3,1.4-0.6,2.5c1.4,2,2.9,4,4.3,6c3.7,5.3,7,10.7,9.6,16.8c-6.6,1-12.2-2-18-4.4c-0.1,0.1-0.1,0.3-0.2,0.4
			c0.5,0.3,0.9,0.6,1.4,0.8c5.4,3,11.2,4.4,17.4,3.9c8-0.6,15-3.5,20.4-9.6c0.4-0.4,0.4-1.1,0.6-1.6c-0.5,0.3-1.2,0.6-1.5,1
			c-2.4,3.4-5.6,5.9-8.9,6.9c1.1-1.3,2-2.5,3-3.5c1.7-1.8,3.4-3.8,5.3-5.3c1.9-1.5,4.2-2.2,6.7-2.3c1.4,0,2.3,0.8,2,2.2
			c-0.3,1.5-0.6,3.1-1.4,4.4c-1.6,2.8-3.5,5.6-5.3,8.2c-2,2.8-5,4.5-8.1,5.8c-3.2,1.3-6.6,2.5-10,3.1c-3.4,0.6-6.9,0.6-10.3,0.6
			c-7.1-0.1-13.8-2.2-20.5-4.4c-2.9-0.9-5.7-2.1-8.6-3.2c-4-1.4-7.7-0.6-11,1.9c-1.2,0.9-2.4,1.9-3.3,3c-0.9,1.1-1.5,2.4-2.3,3.8
			c-1.2-0.9-1.7-2.6-1.9-4.2c-1-6.2,0.3-12.1,3.6-17.4c2.2-3.5,5.5-5.9,9.1-7.7c2.2-1.1,4-2.5,5.2-4.8c0.9-1.7,2.3-3.2,3.7-4.5
			c2.5-2.3,5.5-2.1,8.6-1.5c3,0.6,5.9,1.1,9,0c0.9-0.3,2-0.1,3.1-0.2c0.9-0.1,1.8-0.1,2.7-0.3c4.8-1.1,9.5-2.3,14.3-3.5
			c1.2-0.3,2.3-0.7,3.5-0.9c3.3-0.8,7.5,1.1,8.7,4.2c1,2.8,1.3,5.9,0.3,8.8c-1.9,5.3-4.3,10.4-8,14.7
			C128.5,61.1,127.8,62.3,126.9,63.4z"/>
		<path class="st1" d="M131.4,203.4c0-1.5,0.2-2.9,0-4.4c-0.7-5.4-1.5-10.8-2.4-16.2c-0.5-3.4-1.1-6.8-1.7-10.1
			c-0.8-3.9-2.5-7.4-4.3-10.8c-2.1-4.2-4.5-8.2-7.4-11.8c-0.4-0.6-1-1.2-1.7-1.4c-1.9-0.7-3.3-2.1-4.4-3.7c-1-1.5-2.5-2.3-4.1-3
			c-1.9-0.9-3.6-2.3-5.5-3.2c-1.4-0.7-2.9-1.2-4.4-1.6c-2.7-0.6-5.5-1-8.2-1.6c-4.1-1-7.4-3.3-10.4-6.2c-1-1-2-2-3-3.1
			c-1.7-1.9-3.6-3.5-6.1-3.9c-2.7-0.4-4.7-2.2-6.6-3.9c-2.8-2.3-5.4-4.8-8.5-6.7c-0.3-0.2-0.4-0.5-0.9-1c1.4-0.1,2.6-0.5,3.5-0.2
			c2.2,0.7,4.4,0.4,6.6,0.2c2.2-0.2,4.3,0,6.4,0.3c1.8,0.2,3.7,0.2,5.5-0.1c1.8-0.3,3.6-0.2,5.3,0.5c3.1,1.5,6.3,1.3,9.6,1.1
			c1.9-0.1,3.8-0.1,5.7,0.2c1.1,0.2,2.2,1.1,3.2,1.7c0.7,0.4,1.4,1,2.2,1c3.8,0.3,6.5,2.4,9,4.9c1.7,1.7,3.2,3.6,4.7,5.5
			c0.5,0.6,0.3,1.6,0.6,2.3c0.6,1.4,1.4,2.7,2.1,4c1.9,3.3,3.6,6.7,5.7,9.8c1.4,2.2,1.7,4.7,2.4,7.1c1.1,4.3,2.3,8.6,3.2,12.9
			c0.5,2.5,0.7,5,1.1,7.6c0.5,3.3,1,6.6,1.4,9.9c0.5,3.4,0.8,6.9,1.2,10.3c0.3,3,0.7,5.9,0.9,8.9c0.1,1.5-0.3,3.1-0.4,4.6
			C131.7,203.4,131.5,203.4,131.4,203.4z M90.1,125.4c-0.1,0.1-0.2,0.2-0.2,0.3c1,0.6,2.1,1,3,1.7c5,3.5,10.6,6.3,15.3,10.3
			c2.2,1.9,4.7,3.6,6.2,6.2c1,1.7,2.2,3.2,3.4,4.7c2.4,3.1,4.2,6.5,5.7,10c0.8,1.8,1.5,3.6,2.2,5.4c0.1,0,0.2-0.1,0.3-0.1
			c-0.7-1.8-1.4-3.5-2.1-5.3c-1.8-4.5-4.3-8.4-7.2-12.2c-1.6-2.2-3.1-4.6-5.1-6.4c-5.4-4.9-11.7-8.7-17.9-12.6
			C92.5,126.7,91.3,126,90.1,125.4z M71.4,114.8c0,0.1,0,0.2-0.1,0.4c0.3,0.1,0.6,0.1,1,0.2c3,0.6,6,1.1,9,1.8c1.7,0.4,3.3,1,5,1.3
			c3.3,0.7,6.5,1.4,9.8,2c3.3,0.6,6.1,2.3,8.8,4.3c0.5,0.4,1,0.7,1.5,1.1c-2-2.8-7.3-5.5-11-6c-3.1-0.5-6.1-1.1-9.1-1.8
			c-3.3-0.8-6.6-1.8-9.9-2.5C74.7,115.1,73.1,115,71.4,114.8z M110.9,142.8c0-0.1,0.1-0.1,0.1-0.2c-1.3-0.8-2.4-1.9-3.8-2.4
			c-1.6-0.6-2.8-1.4-3.9-2.6c-1.5-1.8-3.5-2.9-5.8-3.5c-3.1-0.8-6.2-1.5-9.2-2.4c-1.1-0.3-2.1-1-3.2-1.5c0.2,0.4,0.5,0.6,0.8,0.8
			c2.9,1.7,6.1,2.5,9.4,3.1c3.1,0.5,6,1.4,7.9,4.1c0.3,0.4,0.7,0.9,1.2,1.1C106.6,140.5,108.8,141.6,110.9,142.8z M124.9,158.8
			c-2.6-10.4-6.9-20-14-28.2C117.6,139,121.9,148.6,124.9,158.8z M102.4,129.4c6.2,4.4,11.1,9.9,15.2,16.3
			C113.9,139,109,133.4,102.4,129.4z"/>
		<path class="st1" d="M170.4,122.8c-2-0.1-3.3,1-4.7,2c-1.4,0.9-2.9,1.6-4.6,2.5c0.1-1.8,1.1-2.7,1.9-3.7c3.8-4.7,8.7-7.6,14.2-9.7
			c0.8-0.3,1.6-0.5,2.3-0.9c0.4-0.2,0.8-0.7,1.1-1c-0.5-0.4-1.1-1.1-1.6-1.1c-1.9,0.1-3.9,0.4-5.8,0.7c-6.1,1.2-10.6,5.1-14.7,9.6
			c-1.1,1.2-1.9,1.2-2.8-0.3c-1.4-2.6-2-5.4-1.9-8.5c0.1-3.5,1.8-6,4.3-8c2.5-2,5.3-3.2,8.5-2.2c1.3,0.4,2.3,1.4,3.6,1.9
			c1.7,0.7,3.5,1.4,5.4,1.9c2.6,0.7,4.7,1.8,6.5,3.9c1.6,1.9,4,2.6,6.4,2.5c3.9-0.1,7.1,1.3,10,3.7c2.9,2.4,5.1,5.5,6.6,8.9
			c1.2,2.6,1.9,5.5,2.8,8.2c0.2,0.5,0.3,1.1,0.4,1.5c-1.8-1.7-3.6-3.5-5.5-5.3c-2.4-2.4-5.3-3.9-8.7-4.3c-0.8-0.1-1.5-0.3-2.2-0.4
			c-3.7-0.7-7.1,0.4-10.4,1.7c-4.6,1.8-7.8,5.3-11.4,8.4c-0.6,0.6-1.1,1.2-1.8,1.8c-1.1,1-2.4,1.7-3.9,1.8c-1.3,0.1-2.7,0.1-3.9,0.5
			c-3,1-5.7,0.1-8-1.7c-1.9-1.5-3.7-3.3-5.1-5.4c-2.1-3.1-2.9-6.7-0.9-10.3c0.5-0.9,1.4-1.8,2.3-2.4c1.2-0.8,2.4-0.3,3.5,0.4
			c0.6,0.4,1.1,1,1.7,1.4c-1.9,1.9-0.7,4.8,2,6.3c2.8,1.6,5.9,1.8,8.5-0.6c0.9-0.8,1.8-1.6,2.8-2.3
			C168.2,123.8,169.2,123.4,170.4,122.8z"/>
		<path class="st1" d="M139,70.5c-0.3,0.8-0.7,1.5-1,2.3c-2.5,5.3-3.2,10.9-2.4,16.6c0.3,2.7,1.6,5.3,2.8,7.8c1.1,2.6,1.7,5.3,2,8.1
			c0.4,4.5-0.7,8.8-2,13c-1,3.3-2,6.5-3,9.8c-0.1,0.3-0.5,0.8-0.7,0.8c-0.3,0-0.8-0.3-0.9-0.6c-1.6-4.3-3.6-8.4-6.6-11.9
			c-2.4-2.9-3.5-6.4-4-10.1c-0.4-2.9-0.4-5.8-0.5-8.7c-0.1-2.3-0.5-4.6-1.8-6.6c-1.6-2.5-3.1-5.1-5-7.4c-1.8-2.3-3.9-4.4-6.1-6.8
			C120.2,77.6,130,76,139,70.5z"/>
		<path class="st1" d="M149,135.6c2.1,1.3,4.2,2.8,6.4,4c2.3,1.2,4.8,0.2,7.4,0.3c-1.3,1.2-2.4,2.5-3.8,3.6
			c-1.8,1.5-2.6,3.5-3.5,5.5c-0.4,1-0.8,2-1.2,3c-1.3,3.2-3.3,5.9-5.8,8.2c-0.9,0.8-1.7,1.7-2.6,2.5c-0.6,0.6-1.1,1.1-2.1,0.7
			c-0.9-0.4-0.6-1.1-0.7-1.7c-0.7-5.3,0.9-10.2,2.7-15.1c0.1-0.3,0.2-0.6,0.4-0.8c2.3-2.7,2.4-6.1,2.6-9.4
			C149.1,136.1,149.1,135.8,149,135.6C149.1,135.5,149.1,135.5,149,135.6z"/>
		<path class="st1" d="M168.1,138c1.2-1.1,2.2-2.1,3.1-3c2.9-2.8,5.8-5.7,9.7-7.3c2.4-1,4.8-1.9,7.4-2.3c1.7-0.3,3.6,0.3,5.4,0.4
			c4,0.4,7.1,2.3,9.9,5.1c1.3,1.4,2.7,2.6,3.9,4.1c-1.7-1.4-3.3-3.1-5.1-4.3c-5-3.3-10.2-4.1-15.6-0.8c-2.5,1.5-4.9,3.2-7.5,4.4
			c-3,1.3-6.2,2.2-9.3,3.3C169.4,137.8,168.9,137.9,168.1,138z"/>
		<path class="st1" d="M126.8,64.6c-2.1,0.3-3.6,0.6-5.2,0.7c-0.4,0-0.9-0.5-1.1-0.9c-1.7-3.2-3.1-6.5-5-9.5
			c-2.5-4-5.2-7.8-7.9-11.7c-0.2-0.3-0.4-0.7-0.7-1c-0.3-0.5-0.7-1.1,0-1.4c0.3-0.1,1,0.1,1.3,0.4c1.1,1.1,2.2,2.3,3.3,3.5
			c3.4,3.4,6.7,6.8,9.4,10.9C122.9,58.4,124.8,61.4,126.8,64.6z"/>
		<path class="st1" d="M133.6,130c0.7,0,1.3,0.1,1.8,0.1c0.2,2.7,0.4,5.3,0.7,8c0.4,3.1,1,6.1,1.6,9.2c1,4.7,2.3,9.4,3.1,14.2
			c0.5,3.2,0.1,6.4-0.9,9.6c-1.2,3.8-2,7.7-3,11.5c-0.1,0.4-0.2,0.8-0.6,1.2c0.1-0.6,0.2-1.2,0.3-1.8c0.5-2.5,1-4.9,1.5-7.4
			c0-0.2,0.1-0.4,0.1-0.6c0.2-2.9,0.3-5.7,0.5-8.6c0.2-2.9-0.5-5.7-1-8.5c-0.7-3.7-1.4-7.4-2-11.2c-0.8-4.9-1.4-9.9-2.1-14.8
			C133.6,130.7,133.6,130.4,133.6,130z"/>
		<path class="st1" d="M156.2,126.6c4-9.5,17.8-16.7,23.8-14.7c-0.7,0.3-1.3,0.6-1.8,0.8c-4.7,1.6-9,4-12.7,7.2
			c-1.9,1.6-3.4,3.9-4.8,6c-0.7,1-1.3,1.4-2.4,1.2C157.6,127,157,126.8,156.2,126.6z"/>
		<path class="st1" d="M138.8,40.2c1.9,5.2,0.4,10.6-2.5,15.5c-1.7,2.8-4.2,5.2-6.5,7.6c-0.5,0.6-1.4,0.7-2.1,1.1
			c-0.1-0.1-0.2-0.2-0.2-0.3c1.1-1.5,2.1-3.1,3.3-4.5c3.3-4.2,5.7-8.8,7.4-13.9C138.6,43.8,138.6,41.7,138.8,40.2z"/>
		<path class="st1" d="M76.7,81.6c-2.3-0.1-4.6-0.5-6.5-1.8c-1.5-1.1-1.7-2.9-0.7-4.5c1.6-2.6,4-4.2,6.6-5.7
			C72.3,74.8,72.7,77.9,76.7,81.6z"/>
		<path class="st1" d="M155.4,125.8c-1.6-1.2-1.9-2.5-1-4.1C154.8,123.2,155.1,124.4,155.4,125.8z"/>
		<path class="st1" d="M155.4,121.9c0.4,0.5,0.9,1,1.4,1.5c-0.2,0.4-0.5,0.8-0.9,1.5c-0.2-1.2-0.4-2.1-0.6-3
			C155.3,122,155.4,122,155.4,121.9z"/>
		<path d="M90.1,125.4c1.2,0.7,2.4,1.3,3.6,2c6.2,3.8,12.5,7.6,17.9,12.6c2,1.8,3.5,4.2,5.1,6.4c2.9,3.8,5.4,7.8,7.2,12.2
			c0.7,1.8,1.4,3.5,2.1,5.3c-0.1,0-0.2,0.1-0.3,0.1c-0.7-1.8-1.4-3.6-2.2-5.4c-1.5-3.6-3.3-7-5.7-10c-1.2-1.5-2.4-3.1-3.4-4.7
			c-1.6-2.6-4-4.3-6.2-6.2c-4.7-4-10.3-6.8-15.3-10.3c-0.9-0.7-2-1.1-3-1.7C89.9,125.6,90,125.5,90.1,125.4z"/>
		<path d="M71.4,114.8c1.6,0.2,3.3,0.3,4.9,0.7c3.3,0.8,6.6,1.8,9.9,2.5c3,0.7,6.1,1.3,9.1,1.8c3.7,0.6,9,3.2,11,6
			c-0.5-0.4-1-0.7-1.5-1.1c-2.6-2-5.4-3.7-8.8-4.3c-3.3-0.6-6.6-1.3-9.8-2c-1.7-0.4-3.3-1-5-1.3c-3-0.7-6-1.2-9-1.8
			c-0.3-0.1-0.6-0.1-1-0.2C71.4,115,71.4,114.9,71.4,114.8z"/>
		<path d="M110.9,142.8c-2.2-1.1-4.3-2.3-6.4-3.4c-0.5-0.3-0.9-0.7-1.2-1.1c-2-2.7-4.9-3.6-7.9-4.1c-3.3-0.6-6.4-1.5-9.4-3.1
			c-0.3-0.2-0.6-0.4-0.8-0.8c1.1,0.5,2.1,1.2,3.2,1.5c3,0.9,6.1,1.7,9.2,2.4c2.3,0.6,4.3,1.6,5.8,3.5c1,1.2,2.3,2.1,3.9,2.6
			c1.4,0.5,2.5,1.6,3.8,2.4C111,142.7,111,142.7,110.9,142.8z"/>
		<path d="M124.9,158.8c-3-10.2-7.3-19.8-14-28.2C118,138.8,122.3,148.4,124.9,158.8z"/>
		<path d="M102.4,129.4c6.6,4,11.5,9.5,15.2,16.3C113.5,139.4,108.6,133.8,102.4,129.4z"/>
	</g>
	<g>
	</g>
	<g>
		<g>
			<path d="M339.8,133.8l-0.1-33.4L323.1,128h-4.2l-16.6-27.2v33h-8.9V83.4h7.7l20,33.4l19.7-33.4h7.7l0.1,50.4H339.8z"/>
			<path d="M362.2,83.4h9.4v50.4h-9.4V83.4z"/>
			<path d="M394.7,131.2c-4.1-2.2-7.3-5.3-9.6-9.3c-2.3-3.9-3.5-8.4-3.5-13.3c0-4.9,1.2-9.4,3.5-13.3c2.4-3.9,5.6-7,9.7-9.3
				s8.7-3.3,13.8-3.3c4.1,0,7.9,0.7,11.3,2.2c3.4,1.4,6.3,3.5,8.6,6.3l-6,5.7c-3.6-3.9-8.1-5.9-13.5-5.9c-3.5,0-6.6,0.8-9.3,2.3
				c-2.7,1.5-4.9,3.6-6.4,6.3c-1.5,2.7-2.3,5.7-2.3,9.1c0,3.4,0.8,6.5,2.3,9.1c1.5,2.7,3.7,4.8,6.4,6.3c2.7,1.5,5.8,2.3,9.3,2.3
				c5.3,0,9.8-2,13.5-6l6,5.8c-2.4,2.7-5.2,4.8-8.7,6.3c-3.4,1.4-7.2,2.2-11.3,2.2C403.4,134.5,398.8,133.4,394.7,131.2z"/>
			<path d="M482.3,83.4v50.4H473v-21.6h-26.1v21.6h-9.4V83.4h9.4v20.8H473V83.4H482.3z"/>
			<path d="M533.6,126v7.8h-37.8V83.4h36.8v7.8h-27.4v13.1h24.3v7.7h-24.3V126H533.6z"/>
			<path d="M544.1,83.4h9.4v42.5h26.4v7.9h-35.7V83.4z"/>
			<path d="M587.2,83.4h9.4v42.5h26.4v7.9h-35.7V83.4z"/>
			<path d="M668.1,126v7.8h-37.8V83.4h36.8v7.8h-27.4v13.1H664v7.7h-24.3V126H668.1z"/>
			<path d="M702.8,132.9c-3.6-1.1-6.5-2.6-8.6-4.4l3.2-7.3c2.1,1.6,4.6,3,7.6,4c3,1,6,1.5,9,1.5c3.7,0,6.5-0.6,8.4-1.8
				c1.8-1.2,2.8-2.8,2.8-4.8c0-1.4-0.5-2.6-1.5-3.6c-1-0.9-2.3-1.7-3.9-2.2c-1.6-0.5-3.7-1.1-6.5-1.8c-3.8-0.9-6.9-1.8-9.3-2.7
				c-2.4-0.9-4.4-2.3-6.1-4.3c-1.7-1.9-2.6-4.6-2.6-7.9c0-2.8,0.8-5.3,2.3-7.6c1.5-2.3,3.8-4.1,6.8-5.4c3-1.3,6.8-2,11.2-2
				c3.1,0,6.1,0.4,9.1,1.2c3,0.8,5.5,1.9,7.7,3.3l-3,7.3c-2.2-1.3-4.5-2.3-6.9-3c-2.4-0.7-4.7-1-7-1c-3.7,0-6.4,0.6-8.2,1.9
				c-1.8,1.2-2.7,2.9-2.7,5c0,1.4,0.5,2.6,1.5,3.5c1,0.9,2.3,1.6,3.9,2.2c1.6,0.5,3.7,1.1,6.5,1.8c3.7,0.9,6.8,1.8,9.2,2.7
				s4.5,2.4,6.2,4.3c1.7,1.9,2.6,4.5,2.6,7.8c0,2.8-0.8,5.3-2.3,7.6c-1.5,2.3-3.8,4.1-6.9,5.4c-3.1,1.3-6.8,2-11.2,2
				C710.2,134.5,706.4,134,702.8,132.9z"/>
			<path d="M790,133.8l-0.1-33.4L773.4,128h-4.2l-16.6-27.2v33h-8.9V83.4h7.7l20,33.4l19.7-33.4h7.7l0.1,50.4H790z"/>
			<path d="M812.5,83.4h9.4v50.4h-9.4V83.4z"/>
			<path d="M845.7,91.3H829v-7.9h42.8v7.9h-16.7v42.5h-9.4V91.3z"/>
		</g>
		<g>
			<path d="M306.7,161.4c1.3,0.6,2.2,1.4,2.9,2.4c0.7,1,1,2.3,1,3.7c0,1.4-0.3,2.7-1,3.7c-0.7,1.1-1.6,1.9-2.9,2.4
				c-1.3,0.6-2.7,0.8-4.4,0.8h-4.4v5.7h-3.6v-19.6h8.1C304,160.6,305.5,160.8,306.7,161.4z M305.7,170.4c0.8-0.7,1.2-1.6,1.2-2.9
				c0-1.3-0.4-2.2-1.2-2.9c-0.8-0.7-2-1-3.6-1h-4.3v7.8h4.3C303.7,171.4,304.9,171.1,305.7,170.4z"/>
			<path d="M316.2,179.8c-1.4-0.4-2.5-1-3.3-1.7l1.3-2.8c0.8,0.6,1.8,1.2,3,1.6s2.3,0.6,3.5,0.6c1.5,0,2.5-0.2,3.3-0.7
				c0.7-0.5,1.1-1.1,1.1-1.8c0-0.6-0.2-1-0.6-1.4s-0.9-0.6-1.5-0.9c-0.6-0.2-1.5-0.4-2.5-0.7c-1.5-0.4-2.7-0.7-3.6-1.1
				c-0.9-0.4-1.7-0.9-2.4-1.7c-0.7-0.8-1-1.8-1-3.1c0-1.1,0.3-2.1,0.9-3c0.6-0.9,1.5-1.6,2.7-2.1c1.2-0.5,2.6-0.8,4.4-0.8
				c1.2,0,2.4,0.1,3.5,0.4c1.2,0.3,2.2,0.7,3,1.3l-1.1,2.8c-0.9-0.5-1.8-0.9-2.7-1.1c-0.9-0.3-1.8-0.4-2.7-0.4
				c-1.4,0-2.5,0.2-3.2,0.7s-1,1.1-1,1.9c0,0.6,0.2,1,0.6,1.4c0.4,0.4,0.9,0.6,1.5,0.8c0.6,0.2,1.5,0.4,2.5,0.7
				c1.5,0.3,2.7,0.7,3.6,1.1c0.9,0.4,1.7,0.9,2.4,1.7c0.7,0.7,1,1.8,1,3c0,1.1-0.3,2.1-0.9,2.9s-1.5,1.6-2.7,2.1
				c-1.2,0.5-2.7,0.8-4.4,0.8C319.1,180.4,317.6,180.2,316.2,179.8z"/>
			<path d="M340.2,173.2v6.9h-3.6v-6.9l-7.7-12.7h3.9l5.7,9.5l5.8-9.5h3.6L340.2,173.2z"/>
			<path d="M353.1,179.1c-1.6-0.9-2.8-2.1-3.8-3.6c-0.9-1.5-1.4-3.3-1.4-5.2c0-1.9,0.5-3.6,1.4-5.2c0.9-1.5,2.2-2.7,3.8-3.6
				c1.6-0.9,3.4-1.3,5.4-1.3c1.6,0,3.1,0.3,4.4,0.8c1.3,0.6,2.4,1.4,3.4,2.4l-2.4,2.2c-1.4-1.5-3.2-2.3-5.2-2.3
				c-1.3,0-2.5,0.3-3.6,0.9s-1.9,1.4-2.5,2.5c-0.6,1-0.9,2.2-0.9,3.6s0.3,2.5,0.9,3.6c0.6,1,1.4,1.9,2.5,2.5s2.3,0.9,3.6,0.9
				c2.1,0,3.8-0.8,5.2-2.3l2.4,2.2c-0.9,1.1-2,1.9-3.4,2.4c-1.3,0.6-2.8,0.8-4.4,0.8C356.5,180.4,354.7,180,353.1,179.1z"/>
			<path d="M387.2,160.6v19.6h-3.6v-8.4h-10.1v8.4h-3.6v-19.6h3.6v8.1h10.1v-8.1H387.2z"/>
			<path d="M396.2,179.1c-1.6-0.9-2.9-2.1-3.8-3.6c-0.9-1.5-1.4-3.3-1.4-5.2s0.5-3.6,1.4-5.2c0.9-1.5,2.2-2.7,3.8-3.6
				c1.6-0.9,3.4-1.3,5.4-1.3c2,0,3.8,0.4,5.4,1.3c1.6,0.9,2.9,2.1,3.8,3.6c0.9,1.5,1.4,3.3,1.4,5.2c0,1.9-0.5,3.6-1.4,5.2
				c-0.9,1.5-2.2,2.7-3.8,3.6s-3.4,1.3-5.4,1.3C399.6,180.4,397.8,180,396.2,179.1z M405.1,176.4c1-0.6,1.9-1.4,2.5-2.5
				s0.9-2.2,0.9-3.5s-0.3-2.5-0.9-3.5s-1.4-1.9-2.5-2.5s-2.2-0.9-3.5-0.9c-1.3,0-2.5,0.3-3.5,0.9s-1.9,1.4-2.5,2.5
				c-0.6,1.1-0.9,2.2-0.9,3.5s0.3,2.5,0.9,3.5c0.6,1.1,1.4,1.9,2.5,2.5s2.2,0.9,3.5,0.9C402.9,177.2,404.1,177,405.1,176.4z"/>
			<path d="M416,160.6h3.6v16.5h10.2v3.1H416V160.6z"/>
			<path d="M436.2,179.1c-1.6-0.9-2.9-2.1-3.8-3.6c-0.9-1.5-1.4-3.3-1.4-5.2s0.5-3.6,1.4-5.2c0.9-1.5,2.2-2.7,3.8-3.6
				c1.6-0.9,3.4-1.3,5.4-1.3c2,0,3.8,0.4,5.4,1.3c1.6,0.9,2.9,2.1,3.8,3.6c0.9,1.5,1.4,3.3,1.4,5.2c0,1.9-0.5,3.6-1.4,5.2
				c-0.9,1.5-2.2,2.7-3.8,3.6s-3.4,1.3-5.4,1.3C439.6,180.4,437.8,180,436.2,179.1z M445.1,176.4c1-0.6,1.9-1.4,2.5-2.5
				s0.9-2.2,0.9-3.5s-0.3-2.5-0.9-3.5s-1.4-1.9-2.5-2.5c-1-0.6-2.2-0.9-3.5-0.9c-1.3,0-2.5,0.3-3.5,0.9s-1.9,1.4-2.5,2.5
				c-0.6,1.1-0.9,2.2-0.9,3.5s0.3,2.5,0.9,3.5c0.6,1.1,1.4,1.9,2.5,2.5s2.2,0.9,3.5,0.9C442.9,177.2,444.1,177,445.1,176.4z"/>
			<path d="M469.4,170.1h3.4v7.8c-1,0.8-2.2,1.4-3.5,1.8c-1.3,0.4-2.7,0.6-4.1,0.6c-2,0-3.8-0.4-5.4-1.3s-2.9-2.1-3.8-3.6
				c-0.9-1.5-1.4-3.3-1.4-5.2c0-1.9,0.5-3.6,1.4-5.2c0.9-1.5,2.2-2.7,3.8-3.6c1.6-0.9,3.4-1.3,5.4-1.3c1.6,0,3.1,0.3,4.5,0.8
				c1.3,0.5,2.5,1.3,3.4,2.4l-2.3,2.2c-1.5-1.5-3.3-2.2-5.4-2.2c-1.4,0-2.6,0.3-3.7,0.9c-1.1,0.6-1.9,1.4-2.5,2.4
				c-0.6,1-0.9,2.2-0.9,3.6c0,1.3,0.3,2.5,0.9,3.5c0.6,1,1.4,1.9,2.5,2.5s2.3,0.9,3.7,0.9c1.5,0,2.9-0.3,4-1V170.1z"/>
			<path d="M477.6,160.6h3.6v19.6h-3.6V160.6z"/>
			<path d="M488.2,179.8c-1.4-0.4-2.5-1-3.3-1.7l1.3-2.8c0.8,0.6,1.8,1.2,3,1.6c1.2,0.4,2.3,0.6,3.5,0.6c1.5,0,2.5-0.2,3.3-0.7
				s1.1-1.1,1.1-1.8c0-0.6-0.2-1-0.6-1.4c-0.4-0.4-0.9-0.6-1.5-0.9c-0.6-0.2-1.5-0.4-2.5-0.7c-1.5-0.4-2.7-0.7-3.6-1.1
				c-0.9-0.4-1.7-0.9-2.4-1.7c-0.7-0.8-1-1.8-1-3.1c0-1.1,0.3-2.1,0.9-3s1.5-1.6,2.7-2.1c1.2-0.5,2.6-0.8,4.4-0.8
				c1.2,0,2.4,0.1,3.5,0.4c1.2,0.3,2.2,0.7,3,1.3l-1.1,2.8c-0.9-0.5-1.8-0.9-2.7-1.1c-0.9-0.3-1.8-0.4-2.7-0.4
				c-1.4,0-2.5,0.2-3.2,0.7c-0.7,0.5-1,1.1-1,1.9c0,0.6,0.2,1,0.6,1.4c0.4,0.4,0.9,0.6,1.5,0.8c0.6,0.2,1.5,0.4,2.5,0.7
				c1.5,0.3,2.7,0.7,3.6,1.1c0.9,0.4,1.7,0.9,2.4,1.7c0.7,0.7,1,1.8,1,3c0,1.1-0.3,2.1-0.9,2.9s-1.5,1.6-2.7,2.1
				c-1.2,0.5-2.7,0.8-4.4,0.8C491.1,180.4,489.6,180.2,488.2,179.8z"/>
			<path d="M507.9,163.6h-6.5v-3.1H518v3.1h-6.5v16.5h-3.6V163.6z"/>
			<path d="M545.6,179.8c-1.4-0.4-2.5-1-3.3-1.7l1.3-2.8c0.8,0.6,1.8,1.2,3,1.6c1.2,0.4,2.3,0.6,3.5,0.6c1.5,0,2.5-0.2,3.3-0.7
				s1.1-1.1,1.1-1.8c0-0.6-0.2-1-0.6-1.4c-0.4-0.4-0.9-0.6-1.5-0.9c-0.6-0.2-1.5-0.4-2.5-0.7c-1.5-0.4-2.7-0.7-3.6-1.1
				c-0.9-0.4-1.7-0.9-2.4-1.7c-0.7-0.8-1-1.8-1-3.1c0-1.1,0.3-2.1,0.9-3s1.5-1.6,2.7-2.1c1.2-0.5,2.6-0.8,4.4-0.8
				c1.2,0,2.4,0.1,3.5,0.4c1.2,0.3,2.2,0.7,3,1.3l-1.1,2.8c-0.9-0.5-1.8-0.9-2.7-1.1c-0.9-0.3-1.8-0.4-2.7-0.4
				c-1.4,0-2.5,0.2-3.2,0.7c-0.7,0.5-1,1.1-1,1.9c0,0.6,0.2,1,0.6,1.4c0.4,0.4,0.9,0.6,1.5,0.8c0.6,0.2,1.5,0.4,2.5,0.7
				c1.5,0.3,2.7,0.7,3.6,1.1c0.9,0.4,1.7,0.9,2.4,1.7c0.7,0.7,1,1.8,1,3c0,1.1-0.3,2.1-0.9,2.9s-1.5,1.6-2.7,2.1
				c-1.2,0.5-2.7,0.8-4.4,0.8C548.5,180.4,547,180.2,545.6,179.8z"/>
			<path d="M563.6,178.2c-1.5-1.5-2.3-3.7-2.3-6.5v-11.1h3.6v10.9c0,3.8,1.7,5.8,5,5.8c3.3,0,5-1.9,5-5.8v-10.9h3.6v11.1
				c0,2.8-0.8,5-2.3,6.5c-1.5,1.5-3.6,2.3-6.3,2.3C567.2,180.4,565.1,179.7,563.6,178.2z"/>
			<path d="M600.1,171.7c0.6,0.8,1,1.9,1,3.1c0,1.7-0.7,3-2,3.9s-3.2,1.4-5.7,1.4h-9.7v-19.6h9.2c2.3,0,4.1,0.5,5.3,1.4
				c1.3,0.9,1.9,2.2,1.9,3.7c0,1-0.2,1.8-0.7,2.6c-0.4,0.7-1.1,1.3-1.8,1.7C598.6,170.3,599.4,170.9,600.1,171.7z M587.3,163.4v5.4
				h5.2c1.3,0,2.2-0.2,2.9-0.7c0.7-0.5,1-1.1,1-2c0-0.9-0.3-1.6-1-2s-1.7-0.7-2.9-0.7H587.3z M597.4,174.5c0-1.9-1.4-2.8-4.2-2.8
				h-5.9v5.7h5.9C596,177.3,597.4,176.4,597.4,174.5z"/>
			<path d="M606.6,179.8c-1.4-0.4-2.5-1-3.3-1.7l1.3-2.8c0.8,0.6,1.8,1.2,3,1.6c1.2,0.4,2.3,0.6,3.5,0.6c1.5,0,2.5-0.2,3.3-0.7
				s1.1-1.1,1.1-1.8c0-0.6-0.2-1-0.6-1.4c-0.4-0.4-0.9-0.6-1.5-0.9c-0.6-0.2-1.5-0.4-2.5-0.7c-1.5-0.4-2.7-0.7-3.6-1.1
				c-0.9-0.4-1.7-0.9-2.4-1.7c-0.7-0.8-1-1.8-1-3.1c0-1.1,0.3-2.1,0.9-3s1.5-1.6,2.7-2.1c1.2-0.5,2.6-0.8,4.4-0.8
				c1.2,0,2.4,0.1,3.5,0.4c1.2,0.3,2.2,0.7,3,1.3l-1.1,2.8c-0.9-0.5-1.8-0.9-2.7-1.1c-0.9-0.3-1.8-0.4-2.7-0.4
				c-1.4,0-2.5,0.2-3.2,0.7c-0.7,0.5-1,1.1-1,1.9c0,0.6,0.2,1,0.6,1.4c0.4,0.4,0.9,0.6,1.5,0.8c0.6,0.2,1.5,0.4,2.5,0.7
				c1.5,0.3,2.7,0.7,3.6,1.1c0.9,0.4,1.7,0.9,2.4,1.7c0.7,0.7,1,1.8,1,3c0,1.1-0.3,2.1-0.9,2.9s-1.5,1.6-2.7,2.1
				c-1.2,0.5-2.7,0.8-4.4,0.8C609.5,180.4,608,180.2,606.6,179.8z"/>
			<path d="M626.2,163.6h-6.5v-3.1h16.6v3.1h-6.5v16.5h-3.6V163.6z"/>
			<path d="M650.8,175.6H641l-1.9,4.5h-3.8l8.8-19.6h3.6l8.8,19.6h-3.8L650.8,175.6z M649.6,172.8l-3.7-8.6l-3.7,8.6H649.6z"/>
			<path d="M676.5,160.6v19.6h-3l-10.8-13.3v13.3h-3.6v-19.6h3l10.8,13.3v-13.3H676.5z"/>
			<path d="M685.5,179.1c-1.6-0.9-2.8-2.1-3.8-3.6c-0.9-1.5-1.4-3.3-1.4-5.2c0-1.9,0.5-3.6,1.4-5.2c0.9-1.5,2.2-2.7,3.8-3.6
				c1.6-0.9,3.4-1.3,5.4-1.3c1.6,0,3.1,0.3,4.4,0.8c1.3,0.6,2.4,1.4,3.4,2.4l-2.4,2.2c-1.4-1.5-3.2-2.3-5.2-2.3
				c-1.3,0-2.5,0.3-3.6,0.9c-1.1,0.6-1.9,1.4-2.5,2.5c-0.6,1-0.9,2.2-0.9,3.6s0.3,2.5,0.9,3.6c0.6,1,1.4,1.9,2.5,2.5
				c1.1,0.6,2.3,0.9,3.6,0.9c2.1,0,3.8-0.8,5.2-2.3l2.4,2.2c-0.9,1.1-2,1.9-3.4,2.4c-1.3,0.6-2.8,0.8-4.4,0.8
				C688.9,180.4,687.1,180,685.5,179.1z"/>
			<path d="M716.8,177.1v3.1h-14.7v-19.6h14.3v3.1h-10.7v5.1h9.5v3h-9.5v5.4H716.8z"/>
			<path d="M732.6,163.6h-6.5v-3.1h16.6v3.1h-6.5v16.5h-3.6V163.6z"/>
			<path d="M762.9,160.6v19.6h-3.6v-8.4h-10.1v8.4h-3.6v-19.6h3.6v8.1h10.1v-8.1H762.9z"/>
			<path d="M782.9,177.1v3.1h-14.7v-19.6h14.3v3.1h-10.7v5.1h9.5v3h-9.5v5.4H782.9z"/>
			<path d="M799.7,180.2l-4-5.7c-0.2,0-0.4,0-0.8,0h-4.4v5.7h-3.6v-19.6h8.1c1.7,0,3.2,0.3,4.4,0.8s2.2,1.4,2.9,2.4
				c0.7,1,1,2.3,1,3.7c0,1.5-0.4,2.7-1.1,3.8c-0.7,1.1-1.8,1.9-3.1,2.4l4.5,6.4H799.7z M798.4,164.7c-0.8-0.7-2-1-3.6-1h-4.3v7.8
				h4.3c1.6,0,2.8-0.3,3.6-1s1.2-1.6,1.2-2.9C799.7,166.3,799.3,165.3,798.4,164.7z"/>
			<path d="M820.1,175.6h-9.8l-1.9,4.5h-3.8l8.8-19.6h3.6l8.8,19.6h-3.8L820.1,175.6z M818.9,172.8l-3.7-8.6l-3.7,8.6H818.9z"/>
			<path d="M840.9,161.4c1.3,0.6,2.2,1.4,2.9,2.4c0.7,1,1,2.3,1,3.7c0,1.4-0.3,2.7-1,3.7c-0.7,1.1-1.6,1.9-2.9,2.4
				c-1.3,0.6-2.7,0.8-4.4,0.8H832v5.7h-3.6v-19.6h8.1C838.1,160.6,839.6,160.8,840.9,161.4z M839.9,170.4c0.8-0.7,1.2-1.6,1.2-2.9
				c0-1.3-0.4-2.2-1.2-2.9s-2-1-3.6-1H832v7.8h4.3C837.8,171.4,839.1,171.1,839.9,170.4z"/>
			<path d="M856.9,173.2v6.9h-3.6v-6.9l-7.7-12.7h3.9l5.7,9.5l5.8-9.5h3.6L856.9,173.2z"/>
		</g>
		<circle cx="531.6" cy="170.5" r="4"/>
	</g>
</g>
</svg>
