<svg xmlns="http://www.w3.org/2000/svg" width="70" height="32" fill="black" viewBox="0 0 70 16">
  <path fill="black" d="M6.68 15.62c-.9733 0-1.8667-.1733-2.68-.52-.8133-.3467-1.52-.84-2.12-1.48-.6-.6533-1.0667-1.42-1.4-2.3C.16 10.44 0 9.4733 0 8.42c0-1 .1733-1.9267.52-2.78.36-.8667.8533-1.6267 1.48-2.28.6267-.6533 1.3533-1.16 2.18-1.52.8267-.36 1.72-.54 2.68-.54.68 0 1.34.1067 1.98.32.6533.2 1.24.4867 1.76.86.5333.36.9667.7733 1.3 1.24l-1.44 1.5c-.3867-.3867-.78-.7067-1.18-.96-.3867-.2667-.7867-.4667-1.2-.6-.4-.1333-.8067-.2-1.22-.2-.6533 0-1.2667.1267-1.84.38-.56.24-1.0533.58-1.48 1.02-.4133.44-.74.9667-.98 1.58-.24.6-.36 1.26-.36 1.98 0 .76.1133 1.4533.34 2.08.24.6133.5733 1.14 1 1.58.4267.44.9333.78 1.52 1.02.6.2267 1.26.34 1.98.34.44 0 .8733-.06 1.3-.18a4.8088 4.8088 0 0 0 1.2-.52 5.4019 5.4019 0 0 0 1.02-.8l1.08 1.76c-.3067.36-.7267.6867-1.26.98-.52.2933-1.1067.5267-1.76.7-.64.16-1.2867.24-1.94.24ZM17.5742 15.62c-1.0266 0-1.9466-.2333-2.76-.7-.8-.48-1.4333-1.1267-1.9-1.94-.4666-.8267-.7-1.7667-.7-2.82s.2334-1.9867.7-2.8c.4667-.8267 1.1-1.4733 1.9-1.94.8134-.48 1.7334-.72 2.76-.72 1.0134 0 1.92.24 2.72.72.8134.4667 1.4534 1.1133 1.92 1.94.4667.8133.7 1.7467.7 2.8s-.2333 1.9933-.7 2.82c-.4666.8133-1.1066 1.46-1.92 1.94-.8.4667-1.7066.7-2.72.7Zm0-1.88c.6267 0 1.1867-.1533 1.68-.46.4934-.32.88-.7467 1.16-1.28.28-.5467.4134-1.16.4-1.84.0134-.6933-.12-1.3067-.4-1.84-.28-.5467-.6666-.9733-1.16-1.28-.4933-.3067-1.0533-.46-1.68-.46-.6266 0-1.1933.16-1.7.48-.4933.3067-.88.7333-1.16 1.28-.28.5333-.4133 1.14-.4 1.82-.0133.68.12 1.2933.4 1.84.28.5333.6667.96 1.16 1.28.5067.3067 1.0734.46 1.7.46ZM23.9589 15.42V4.92h2.06v2.16l-.36.24c.1333-.4667.3933-.8933.78-1.28.3867-.4.8467-.72 1.38-.96.5333-.2533 1.08-.38 1.64-.38.8 0 1.4667.16 2 .48.5333.3067.9333.78 1.2 1.42.2667.64.4 1.4467.4 2.42v6.4h-2.06V9.16c0-.6-.08-1.0933-.24-1.48-.16-.4-.4067-.6867-.74-.86-.3333-.1867-.7467-.2667-1.24-.24-.4 0-.7667.0667-1.1.2-.3333.12-.6267.2933-.88.52-.24.2267-.4333.4933-.58.8-.1333.2933-.2.6133-.2.96v6.36h-2.06ZM39.1134 15.62c-.9733 0-1.8466-.24-2.62-.72-.76-.48-1.3666-1.1333-1.82-1.96-.44-.8267-.66-1.7533-.66-2.78 0-1.0267.22-1.9533.66-2.78.4534-.8267 1.06-1.48 1.82-1.96.7734-.48 1.6467-.72 2.62-.72.9334 0 1.78.1933 2.54.58.7734.3733 1.36.8867 1.76 1.54l-1.14 1.4c-.2133-.3067-.4866-.5867-.82-.84-.3333-.2533-.6866-.4533-1.06-.6-.3733-.1467-.7333-.22-1.08-.22-.64 0-1.2133.16-1.72.48-.4933.3067-.8866.7333-1.18 1.28-.2933.5467-.44 1.16-.44 1.84 0 .68.1534 1.2933.46 1.84.3067.5333.7134.96 1.22 1.28.5067.32 1.0667.48 1.68.48.36 0 .7067-.06 1.04-.18.3467-.12.68-.3 1-.54.32-.24.62-.5333.9-.88l1.14 1.4c-.4266.6-1.04 1.0933-1.84 1.48-.7866.3867-1.6066.58-2.46.58ZM44.4966 15.42V4.92h2.06v10.5h-2.06Zm1-12.82c-.44 0-.78-.1133-1.02-.34s-.36-.5467-.36-.96c0-.3867.12-.7.36-.94.2533-.24.5933-.36 1.02-.36.44 0 .78.1133 1.02.34s.36.5467.36.96c0 .3867-.1267.7-.38.94-.24.24-.5734.36-1 .36ZM52.023 15.62c-.88 0-1.6734-.1533-2.38-.46-.7067-.3067-1.2934-.76-1.76-1.36l1.4-1.2c.4.4667.8333.8067 1.3 1.02.48.2 1.02.3 1.62.3.24 0 .46-.0267.66-.08.2133-.0667.3933-.16.54-.28.16-.12.28-.26.36-.42.08-.1733.12-.36.12-.56 0-.3467-.1267-.6267-.38-.84-.1334-.0933-.3467-.1933-.64-.3-.28-.12-.6467-.24-1.1-.36-.7734-.2-1.4067-.4267-1.9-.68-.4934-.2533-.8734-.54-1.14-.86-.2-.2533-.3467-.5267-.44-.82-.0934-.3067-.14-.64-.14-1 0-.44.0933-.84.28-1.2.2-.3733.4666-.6933.8-.96.3466-.28.7466-.4933 1.2-.64.4666-.1467.96-.22 1.48-.22.4933 0 .98.0667 1.46.2.4933.1333.9466.3267 1.36.58.4133.2533.76.5533 1.04.9l-1.18 1.3a4.4764 4.4764 0 0 0-.84-.66c-.2934-.2-.5934-.3533-.9-.46-.3067-.1067-.5867-.16-.84-.16-.28 0-.5334.0267-.76.08-.2267.0533-.42.1333-.58.24-.1467.1067-.26.24-.34.4-.08.16-.12.34-.12.54.0133.1733.0533.34.12.5.08.1467.1866.2733.32.38.1466.1067.3666.22.66.34.2933.12.6666.2333 1.12.34.6666.1733 1.2133.3667 1.64.58.44.2.7866.4333 1.04.7.2666.2533.4533.5467.56.88.1066.3333.16.7067.16 1.12 0 .6-.1734 1.14-.52 1.62-.3334.4667-.7867.8333-1.36 1.1-.5734.2667-1.2134.4-1.92.4ZM61.7933 15.62c-1.08 0-2.04-.2267-2.88-.68-.8267-.4667-1.48-1.1-1.96-1.9-.4667-.8-.7-1.72-.7-2.76 0-.8267.1333-1.58.4-2.26.2666-.68.6333-1.2667 1.1-1.76.48-.5067 1.0466-.8933 1.7-1.16.6666-.28 1.3866-.42 2.16-.42.68 0 1.3133.1333 1.9.4.5866.2533 1.0933.6067 1.52 1.06.44.4533.7733.9933 1 1.62.24.6133.3533 1.2867.34 2.02l-.02.88h-8.58l-.46-1.64h7.26l-.3.34v-.48c-.04-.44-.1867-.8333-.44-1.18-.2534-.3467-.5734-.62-.96-.82-.3867-.2-.8067-.3-1.26-.3-.72 0-1.3267.14-1.82.42-.4934.2667-.8667.6667-1.12 1.2-.2534.52-.38 1.1667-.38 1.94 0 .7333.1533 1.3733.46 1.92.3066.5333.74.9467 1.3 1.24s1.2066.44 1.94.44c.52 0 1-.0867 1.44-.26.4533-.1733.94-.4867 1.46-.94l1.04 1.46c-.32.32-.7134.6-1.18.84-.4534.24-.94.4333-1.46.58-.5067.1333-1.0067.2-1.5.2ZM68.252 15.64c-.44 0-.78-.1267-1.02-.38-.24-.2667-.36-.64-.36-1.12 0-.44.1267-.8.38-1.08.2534-.28.5867-.42 1-.42.44 0 .78.1333 1.02.4.24.2533.36.62.36 1.1 0 .44-.1266.8-.38 1.08-.2533.28-.5866.42-1 .42Z"/>
</svg>