<svg xmlns="http://www.w3.org/2000/svg" width="100" height="32" fill="black" viewBox="0 0 100 22">
  <path fill="black" d="M84.8375 1.9977v.6452l-.6444-.0007v.6452h1.2896v12.9043h-.6452v.6451h-.645l.0006.6445h4.5145v-1.2896h-.6452l.0008-14.194h-3.2257Z"/>
  <path fill="black" d="m76.4504 7.1587.0007.6444h-1.291v2.5812h1.9354V7.8038h2.5805l.0006.6445h.6452v3.2269h-3.2256v.6451l-1.2903-.0007-.0006.6472h-.6452l.0008.6444h-.6452v2.5812h.6452l-.0008.6444 1.2903-.0007v.6452h2.5811v-.6445h1.2903l-.0007-.6444h-2.5798v-.6452l-.6458-.002v-2.5804h1.2903v-.6445h1.936l-.0007 3.8721h.6451l.0007.6444h.6451l.0006.6445h1.9354v-.6445h.6445v-.6451h-.6445l-.6458.0007V9.0947h-.6451l.0007-1.2916-1.2916.0007v-.6451h-4.5158ZM89.3548 7.8038h-.6452v-.6451h5.1617v.6451h-1.2916l-.0008 1.9353h.6452v1.9368l.6472-.0007v1.2896l.6444.002v.6444h.6444l-.0007-1.936h.6452l.002-1.2916h.6451V7.8038h-1.2923v-.6451h3.8728v.6451h-.6472v.6445h-.6444v.6471h-.6444v1.9333h-.6445v1.2916h-.6451l-.002 1.9361h-.6445v1.2888l-.6444.002v1.9341h-.6444v1.936h-.6452l-.002 1.2916h-.6444v1.2889h-1.9341v-.6452h.6452l-.0007-1.2889.6444-.002v-.6451l.6444.0007v-1.2896l.6472-.002-.002-2.5805h-.6452v-1.2896l-.6444.0008.0007-1.9361h-.6451v-1.2896l-.6445-.002-.002-1.2888h-.6451l.0007-1.2916h-.6452l.0008-.6445ZM57.0955 7.8031l-.6444.0007v-.6451h3.8701v.6451h.645v-.6451h3.8714v.6451l1.2903-.0007v.6452h.645l.0008.6471h-.6458v7.097l.6458-.0007-.0008.6444h.6452v.6452h-4.5159v-.6452l.6445.0007v-.6451l.6458.0007-.0007-7.097h-.6451l.0007-.6471h-3.2262v7.7441l.6457-.0007v1.2896h-4.5158v-.6452h.6452l-.0008-.6444.6458.0007-.0006-7.7441h-.6452V7.803ZM67.4187 7.1587v.6451l-.6458-.0007v.6452h3.2257l.0006 1.2916h.6452v6.4525l-.6452-.0007v.6451l-.6458-.0007v.6452h4.5172v-.6452l-.6458.0007v-.6451l-.6458.0007V8.4503l-.6444-.002V7.803l-.6458.0007v-.6451h-3.8701Z"/>
  <path fill="black" fill-rule="evenodd" d="M48.0639 7.8038v-.6451h4.5159l-.0008.6444h1.291v.6452l.6444.002v.6451l.6458-.0007v1.2896l.6458-.0007v3.2283h-.6458v1.2889h-.6458v1.2916H53.87v.6444h-1.936v.6445h-3.2257l.0008-.6445h-1.291v-.6451l-.6444.0007-.0007-.6472h-.6451l-.0007-1.2888h-.6451v-3.8728l.6458.0007V9.0947l.6458.0007v-.6451l.6444-.002V7.803l.6458.0007Zm1.2896.6445v-.6445h2.5805l.0006.6445h.6452l-.0008 1.2916h.6452l.0006 4.5165-.6458-.0008v1.2896l-.6444.002v.6452l-.6458-.0007v.6451l-1.2902-.0007.0007-.6444-1.2902.0007v-1.2923l-.6458.0007V9.0954h.6458v-.6451l.6444-.002ZM26.1272 3.2873v-.6451h1.291v.6452l.6444.002v1.934l.6458-.0008v1.9368l.6458-.0007v1.2896l.6445.002v1.934l.6458-.0007-.0008 1.936h.6452v1.9368l.6458-.0008v1.2896l.6444.002v.6452l.6458-.0007-.0007.6444.6458.0007v-.6451h.6452V8.4483H33.87l-.0006-.6445h-.6452v-.6451h3.8714l-.0007.6444.6458.0007v-.6451h4.5158v.6451l.6458-.0007-.0007 1.2916h.6452v7.0977l.6458-.0007-.0008.6444h.6452v.6452h-4.5158v-1.2896l.6457.0007-.0006-7.097h-.6451v-.6451l-2.5811-.002v.6471h-.6445l-.0007 7.0963h.6452v1.2896h-9.6768v-.6452l.6458.0007v-.6451h.6451v-1.9353h-.6451l-.0007-1.9361h-5.1609v.6445h-.6458v1.936h-.6444v1.2916l1.2902-.0007v1.2896h-3.8714v-.6452l.6458.0007v-.6451h.6451l-.0007-.6445.6458-.002v-1.934h.6452l-.0008-1.2916.6458.0007v-1.9367l.6445.0007v-1.934h.6451l.0007-1.936h.6451l-.0007-1.2917.6458.0008v-1.934l.6444-.002Zm-.645 2.5805.645.002v1.2896h.6452l.0006 1.2889h.6452l-.0007 1.936h.6451l.0007.6444h-3.8714V9.0954h.6458v-1.936h.6445V5.8678Z" clip-rule="evenodd"/>
  <path fill="black" d="m5.6564 4.842 1.4142 1.4142-1.4142 1.4142-1.4142-1.4142 1.4142-1.4143ZM7.7775 6.963l1.4142 1.4143-1.4142 1.4142-1.4142-1.4142L7.7775 6.963ZM9.8985 9.0841l1.4142 1.4143-1.4142 1.4142-1.4142-1.4142 1.4142-1.4143ZM12.0196 11.2052l1.4142 1.4142-1.4142 1.4143-1.4142-1.4143 1.4142-1.4142ZM9.8985 4.842l1.4142 1.4142-1.4142 1.4142-1.4142-1.4142 1.4142-1.4143ZM6.553 1.9319 7.0704 0l1.9319.5176-.5176 1.9319-1.9319-.5176ZM12.0196 6.963l1.4142 1.4143-1.4142 1.4142-1.4142-1.4142 1.4142-1.4143ZM14.1407 9.0841l1.4142 1.4143-1.4142 1.4142-1.4142-1.4142 1.4142-1.4143ZM3.5353 6.963l1.4143 1.4143-1.4143 1.4142-1.4142-1.4142L3.5353 6.963ZM1.4142 9.0841l1.4142 1.4143-1.4142 1.4142L0 10.4984l1.4142-1.4143ZM5.6564 9.0841l1.4142 1.4143-1.4142 1.4142-1.4142-1.4142 1.4142-1.4143ZM3.5353 11.2052l1.4143 1.4142-1.4143 1.4143-1.4142-1.4143 1.4142-1.4142ZM7.7775 11.2052l1.4142 1.4142-1.4142 1.4143-1.4142-1.4143 1.4142-1.4142ZM5.6564 13.3263l1.4142 1.4142-1.4142 1.4143-1.4142-1.4143 1.4142-1.4142ZM9.8985 13.3263l1.4142 1.4142-1.4142 1.4143-1.4142-1.4143 1.4142-1.4142ZM7.7775 15.4474l1.4142 1.4142-1.4142 1.4143-1.4142-1.4143 1.4142-1.4142Z"/>
</svg>