<svg xmlns="http://www.w3.org/2000/svg" width="85" height="32" fill="black" viewBox="0 0 85 12">
  <path fill="black" d="M0 11.7969V.1562h4.5469c.8802 0 1.6302.1667 2.25.5.625.3334 1.1015.7943 1.4297 1.3829.328.5885.4922 1.2682.4922 2.039 0 .7656-.1667 1.4427-.5 2.0313-.3282.5833-.8073 1.0416-1.4375 1.375-.6303.3281-1.3933.4922-2.2891.4922H1.539V6.039h2.6015c.4792 0 .875-.0834 1.1875-.25.3177-.1667.5547-.3959.711-.6875.1562-.297.2343-.638.2343-1.0235 0-.3958-.078-.737-.2343-1.0234-.1563-.2917-.3933-.5182-.711-.6797-.3125-.1615-.7083-.2422-1.1875-.2422h-1.75v9.6641H0ZM13.3744.1563v11.6406h-2.3906V.1562h2.3906ZM16.0769 11.7969V.1562h2.6484l3.6797 5.8985c.1823.2916.3672.612.5547.961.1927.3437.388.729.5859 1.1562.2032.4218.4037.8906.6016 1.4062l-.25.0703c-.0313-.427-.0625-.8828-.0938-1.3672-.026-.4843-.0494-.9479-.0703-1.3906-.0156-.4479-.0234-.8229-.0234-1.125V.1562h2.4297V11.797h-2.6485l-3.3437-5.3516a37.962 37.962 0 0 1-.6719-1.1328 32.6416 32.6416 0 0 1-.6562-1.25c-.2292-.4583-.5-.9974-.8125-1.6172l.3203-.0312c.0312.5625.0599 1.1015.0859 1.6172.0313.5156.0547.9817.0703 1.3984.0209.4114.0313.75.0313 1.0156v5.3516h-2.4375ZM28.8419 11.7969V.1562h7.8593v1.9844h-5.4687v2.7969h5.0469v1.9531h-5.0469v2.9219h5.4766v1.9844h-7.8672ZM43.5906 11.7969V.1562h2.3907v9.6563h5.0468v1.9844h-7.4375ZM64.4319 11.7969V.1562h4.625c.8541 0 1.5651.1303 2.1328.3907.5729.2552 1.0026.6068 1.2891 1.0547.2864.4479.4296.9635.4296 1.5468 0 .4584-.0911.8594-.2734 1.2032-.1823.3385-.4297.6171-.7422.8359-.3125.2188-.6719.375-1.0781.4688v.1015c.4427.0209.8568.1485 1.2422.3828.3854.2292.6979.5495.9375.961.2448.4114.3672.9036.3672 1.4765 0 .6198-.1511 1.1719-.4532 1.6563-.302.4844-.7526.8672-1.3515 1.1484-.5938.2761-1.3281.4141-2.2031.4141h-4.9219Zm2.3828-1.9532h2.0781c.6927 0 1.2005-.1354 1.5235-.4062.3229-.2708.4843-.6276.4843-1.0703 0-.3281-.0781-.6172-.2343-.8672-.1563-.2552-.3803-.4531-.6719-.5938-.2917-.1458-.638-.2187-1.0391-.2187h-2.1406v3.1563Zm0-4.8046h1.9062c.3438 0 .6485-.06.9141-.1797.2708-.125.4818-.2995.6328-.5235.1563-.224.2344-.4921.2344-.8046 0-.4271-.1511-.7735-.4531-1.0391-.3021-.2656-.7292-.3984-1.2813-.3984h-1.9531V5.039ZM79.9234 11.9688c-.9427 0-1.7604-.1433-2.4531-.4297-.6875-.2917-1.2239-.7188-1.6094-1.2813-.3854-.5677-.5885-1.2656-.6093-2.0937h2.3203c.0312.3958.1458.7265.3437.9922.2032.2656.474.4661.8125.6015.3438.1354.7344.2031 1.1719.2031.4271 0 .7995-.0625 1.1172-.1875s.5651-.2994.7422-.5234c.1771-.224.2656-.4818.2656-.7734 0-.2657-.0781-.487-.2344-.6641-.1562-.1823-.3854-.3385-.6875-.4688-.2968-.1302-.6614-.2473-1.0937-.3515l-1.2735-.3125c-1.0052-.2396-1.7864-.6172-2.3437-1.1328-.5573-.5156-.8359-1.1953-.8359-2.039 0-.7032.1875-1.3178.5625-1.8438.3802-.526.8984-.935 1.5546-1.2266C78.3349.1458 79.0901 0 79.9391 0c.8645 0 1.6172.1484 2.2578.4453.6406.2917 1.1406.7005 1.5 1.2266.3594.526.5469 1.1354.5625 1.8281h-2.3047c-.0417-.474-.2422-.8411-.6016-1.1016C80.9938 2.1328 80.5172 2 79.9234 2c-.4062 0-.7552.0599-1.0468.1797-.2865.1146-.5052.2734-.6563.4766-.151.203-.2265.4375-.2265.703 0 .2813.0833.5157.25.7032.1718.1823.401.3333.6875.4531.2864.1198.6015.2214.9453.3047l1.0547.2578c.5052.1146.9713.2656 1.3984.4531.4271.1875.7969.4193 1.1094.6954.3125.2708.5547.5911.7265.9609.1719.3698.2578.7969.2578 1.2813 0 .7083-.1796 1.3255-.539 1.8515-.3542.5261-.8672.9323-1.5391 1.2188-.6719.2864-1.4792.4297-2.4219.4297ZM58.7168 11.9688h-1.8125v-1.5h1.8125v1.5ZM62.1729 8.665c.2515.329.0167.8038-.3975.8038h-7.9326c-.4141-.0002-.6489-.4748-.3975-.8038l2.1768-2.8466h4.374l2.1768 2.8466ZM57.4062.5977c.1999-.2709.6049-.2709.8047 0l2.5264 3.4248c.2432.33.0078.7968-.4023.7968h-5.0528c-.4101 0-.6456-.4668-.4023-.7968L57.4062.5977Z"/>
</svg>