<svg xmlns="http://www.w3.org/2000/svg" width="75" height="32" fill="black" viewBox="0 0 75 23">
  <path fill="black" d="M.1729 9.8672c.5036.4611 1.1666.7502 1.8984.7705A12.7716 12.7716 0 0 0 2 12.0049c-.0134 4.1625 2.0462 8.7153 6.3896 10.2373a7.8703 7.8703 0 0 0 1.4825.3408 7.149 7.149 0 0 1-1.5586.0313C3.5274 22.2001.105 17.2231 0 12.4648v-.9189c.0123-.5591.0721-1.1213.1729-1.6787Z"/>
  <path fill="black" fill-rule="evenodd" d="M32.9707 10.1123c1.0386-1.1169 2.2436-1.6757 3.6152-1.6758.9603 0 1.813.2552 2.5577.7647.7446.5094 1.3228 1.2246 1.7343 2.1455.4116.9014.6172 1.9501.6172 3.1455 0 1.3326-.2541 2.5286-.7637 3.5869-.5095 1.0582-1.2157 1.8906-2.1171 2.498-.9015.6075-1.9104.9112-3.0274.9112-1.2346 0-2.3327-.3618-3.293-1.0869h-.1171l-.8819.7929h-.2353V1.999l-1.7344-.6465v-.206L32.7354 0h.2353v10.1123Zm2.6162-.794c-.529 0-1.0288.1078-1.499.3233-.4508.2156-.8232.5202-1.1172.9121v7.6719c0 .9015.2347 1.627.7051 2.1758.4703.5291 1.0979.7929 1.8818.7929 1.1365 0 2.0379-.5482 2.7041-1.6455.6859-1.117 1.0293-2.5973 1.0293-4.4394 0-1.7832-.3337-3.1939-1-4.2324-.6467-1.0387-1.5479-1.5586-2.7041-1.5586Z" clip-rule="evenodd"/>
  <path fill="black" d="M53.4395 5.9385v2.792h3.3515l-.1767.4707h-3.1748v8.9951c0 .6856.1078 1.1951.3232 1.5283.2352.4704.6765.7061 1.3232.7061.3135-.0001.6173-.0786.9112-.2354.2939-.1568.6169-.4119.9697-.7646l.1182.0888c-.294.6075-.716 1.0877-1.2647 1.4405-.5289.3524-1.0969.5282-1.7041.5283-.627 0-1.1859-.1757-1.6758-.5283-.333-.2351-.5688-.539-.706-.9112-.1372-.3723-.2051-.8631-.2051-1.4707V9.1719h-1.3818l-.0586-.1475 3.2334-3.1162.1172.0303Z"/>
  <path fill="black" fill-rule="evenodd" d="M63.834 8.4658c.5483 0 1.0087.108 1.3808.3233.392.2155.6762.5201.8526.912.0979.2548.1571.5683.1767.9405.0392.3724.0586 1.0875.0586 2.1455v5.6152c0 .7054.0689 1.1954.2061 1.4698.1371.2545.3819.3817.7344.3818.5291 0 .921-.1862 1.1757-.5586l.1182.0586c-.2351.4897-.5487.8721-.9404 1.1465-.392.2548-.8139.3828-1.2647.3828-.5094 0-.9305-.1475-1.2636-.4414-.3332-.3136-.5194-.7249-.5586-1.2344l-.0879-.0293c-.4508.5684-.9707 1.0194-1.5586 1.3526-.5878.3134-1.1856.4697-1.793.4697-.7445 0-1.3617-.2544-1.8515-.7637-.4703-.529-.706-1.2054-.7061-2.0283 0-.9799.4413-1.7646 1.3232-2.3525.9015-.5878 2.4201-1.0973 4.5557-1.5284v-2.6748c0-1.1365-.1271-1.9203-.3818-2.3515-.2547-.4507-.6954-.6767-1.3223-.6768-.6075 0-1.0983.1669-1.4707.5-.3722.3136-.5576.7454-.5576 1.294l.0293.7929c0 .4898-.0982.8819-.294 1.1758-.1763.2744-.4315.4121-.7646.4121-.294 0-.5394-.098-.7354-.2939-.1763-.196-.2636-.4512-.2636-.7647 0-.4703.2251-.9796.6757-1.5283.4704-.5683 1.0679-1.0388 1.793-1.4111.8819-.49 1.7937-.7354 2.7344-.7354Zm.5576 6.585c-1.0189.2547-1.8126.5099-2.3809.7646-.5486.2548-.9406.5585-1.1757.9112-.2352.3527-.3526.7941-.3526 1.3232.0001.6857.1669 1.234.5 1.6455.3331.3919.7834.5878 1.3516.5879.4115 0 .7937-.0883 1.1465-.2646.3721-.1959.676-.4698.9111-.8223v-4.1455Z" clip-rule="evenodd"/>
  <path fill="black" d="M24.0215 11.0234c1.0974-1.7244 2.1267-2.5869 3.0869-2.5869.3918.0001.7247.1379.999.4121.2743.2548.4121.5682.4121.9405 0 .3135-.1086.5783-.3242.7939-.2154.2153-.4797.3232-.793.3232-.1959 0-.3628-.0397-.5-.1181-.1175-.098-.2447-.2349-.3818-.4111-.1372-.1568-.2652-.2742-.3828-.3526-.098-.0784-.2251-.1181-.3818-.1181-.3135 0-.6367.1864-.9698.5585-.3135.3724-.5395.804-.6767 1.294v8.9658l2.3515.2354v.2343h-6.0556V20.96l1.7939-.2354V10.4355l-1.7344-.6464v-.206l3.3213-1.1466h.2354v2.5869ZM47.1045 20.7246l1.793.2354v.2343h-5.4971V20.96l1.793-.2354V10.4355l-1.7344-.6464v-.206l3.4101-1.1466h.2354v12.2881ZM72.9648 20.7246l1.793.2354v.2343h-5.4971V20.96l1.793-.2354V1.999l-1.7344-.6465v-.206L72.7295 0h.2353v20.7246ZM10.417 2.9756c4.2354.2823 7.2934 4.8277 7.1885 9.0293.1048 4.2016-2.9531 8.747-7.1885 9.0293a5.9864 5.9864 0 0 1-1.3272-.0547 6.6964 6.6964 0 0 0 1.251-.3174c3.6365-1.376 5.2681-5.183 5.2647-8.6572.0035-3.4742-1.6282-7.2812-5.2647-8.6572a6.6971 6.6971 0 0 0-1.251-.3174c.433-.0667.879-.086 1.3272-.0547ZM2.1514 6.3232c.761 0 1.3779.617 1.3779 1.378 0 .761-.617 1.3779-1.378 1.3779-.761 0-1.3778-.617-1.3779-1.378 0-.761.617-1.3778 1.378-1.3779ZM45.9873 2.793c.4114 0 .7443.137.999.4111.2744.2548.4121.5884.4121 1-.0001.4114-.1378.754-.4121 1.0283-.2547.2547-.5876.3818-.999.3819-.4115 0-.7549-.1271-1.0293-.3819-.2545-.2742-.3817-.617-.3818-1.0283 0-.4115.1271-.7452.3818-1 .2744-.2744.6178-.4111 1.0293-.4111ZM8.3135 1.3945a7.1452 7.1452 0 0 1 1.5586.0313 7.8726 7.8726 0 0 0-1.4825.3408c-1.9513.6837-3.4407 1.9801-4.4892 3.5772-.4137-.3068-.909-.5103-1.4492-.5645 1.4635-1.8582 3.4956-3.18 5.8623-3.3848Z"/>
</svg>