<svg xmlns="http://www.w3.org/2000/svg" width="85" height="32" fill="black" viewBox="0 0 85 13">
    <path
        d="M3.6364 0h1.8182v1.8182H3.6364V0ZM1.8182 1.8182h1.8182v1.8182H1.8182V1.8182Zm3.6364 0h1.8181v1.8182H5.4545V1.8182ZM18.0071 1.8182h1.8182v5.4545h-1.8182V1.8182Zm0 7.2727h1.8182v3.6364h-1.8182V9.0909ZM57.3082 0h1.8182v1.8182h-1.8182V0Zm-1.8181 1.8182h1.8181v1.8182h-1.8181V1.8182Zm3.6363 0h1.8182v1.8182h-1.8182V1.8182ZM66.2244 10.9091h5.4546v1.8182h-5.4546v-1.8182Zm5.4546-1.8182h1.8182v1.8182H71.679V9.0909ZM66.2244 0h5.4546v1.8182h-5.4546V0Zm5.4546 1.8182h1.8182v1.8182H71.679V1.8182Z" />
    <path
        d="M1.8182 3.6364H0v9.0909h1.8182V9.0909h5.4545v3.6364H9.091v-9.091H7.2727v3.6364H1.8182V3.6364ZM18.0071 0h-7.2727v12.7273h1.8182V9.0909H18.0071V7.2727h-5.4545V1.8182h5.4545V0ZM21.4688 0h9.0909v1.8182h-3.6364v10.9091h-1.8182V1.8182h-3.6363V0ZM35.8395 1.8182h-3.6364V0h9.0909v1.8182h-3.6363v9.0909h3.6363v1.8182h-9.0909v-1.8182h3.6364v-9.091ZM42.9375 0h9.0909v1.8182h-7.2727v3.6364h5.4545v1.8181h-5.4545v5.4546h-1.8182V0ZM55.4901 3.6364h-1.8182v9.0909h1.8182V9.0909h5.4545v3.6364h1.8182v-9.091h-1.8182v3.6364h-5.4545V3.6364ZM66.2244 1.8182h-1.8182v9.0909h1.8182v-9.091ZM75.1406 0h9.0909v1.8182h-3.6363v10.9091H78.777V1.8182h-3.6364V0Z" />
</svg>