<svg xmlns="http://www.w3.org/2000/svg" width="51" height="32" fill="white" viewBox="0 0 51 18">
  <path fill="white" d="M12.6074 17.8809H9.4238l-1.6797-2.5196a1.8685 1.8685 0 0 1-.2636.0196H7.246c-.664 0-1.3053-.0879-1.9238-.2637a7.3542 7.3542 0 0 1-1.7286-.7227A7.5182 7.5182 0 0 1 2.129 13.252a7.5205 7.5205 0 0 1-1.1426-1.4649c-.3125-.5404-.5566-1.1165-.7324-1.7285C.0846 9.4401 0 8.7988 0 8.1348c0-.6641.0846-1.3054.254-1.9239.1757-.6184.4198-1.1946.7323-1.7285A7.519 7.519 0 0 1 2.129 3.0176a7.2291 7.2291 0 0 1 1.4649-1.1328 7.3528 7.3528 0 0 1 1.7285-.7227C5.9408.9863 6.582.8984 7.246.8984c.664 0 1.3053.088 1.9238.2637.6185.1693 1.1947.4102 1.7285.7227a7.228 7.228 0 0 1 1.4649 1.1328c.4427.4427.8203.931 1.1328 1.4648.3125.5339.5534 1.11.7227 1.7285.1757.6185.2636 1.2598.2636 1.9239 0 .69-.0976 1.3606-.2929 2.0117-.1888.651-.459 1.2597-.8106 1.8262-.3516.5599-.778 1.0677-1.2793 1.5234-.4948.4557-1.0482.8366-1.6601 1.1426l2.1679 3.2422Zm-.9082-9.7461c0-.612-.1172-1.1882-.3515-1.7286-.2344-.5468-.5534-1.0188-.9571-1.416-.3971-.4036-.8691-.7226-1.416-.957-.5404-.2344-1.1165-.3516-1.7285-.3516-.6185 0-1.198.1172-1.7383.3516-.5403.2344-1.0124.5534-1.416.957-.4037.3972-.7227.8692-.957 1.416-.2344.5404-.3516 1.1166-.3516 1.7286 0 .612.1172 1.1881.3516 1.7285.2343.5338.5534 1.0026.957 1.4062.4036.4037.8757.7227 1.416.9571.5404.2343 1.1198.3515 1.7383.3515.612 0 1.1881-.1172 1.7285-.3515.5469-.2344 1.0189-.5534 1.416-.9571.4037-.4036.7227-.8724.9571-1.4062.2343-.5404.3515-1.1166.3515-1.7285ZM23.7305 13.8574a7.4194 7.4194 0 0 1-.6934.5567 5.5782 5.5782 0 0 1-.7617.4492 4.6514 4.6514 0 0 1-.8301.2929 3.179 3.179 0 0 1-.8594.1172c-.6445 0-1.25-.1139-1.8164-.3418-.5664-.2278-1.0644-.5501-1.4941-.9668-.4232-.4231-.7585-.9342-1.0059-1.5332-.2409-.6054-.3613-1.2825-.3613-2.0312V4.6191h2.6563v5.7813c0 .3516.052.6673.1562.9473.1107.2734.2572.5045.4395.6933.1822.1888.3938.332.6347.4297.2474.0977.5111.1465.791.1465a1.665 1.665 0 0 0 .7715-.1856 2.2258 2.2258 0 0 0 .6446-.5078 2.43 2.43 0 0 0 .4296-.7031 2.2377 2.2377 0 0 0 .1563-.8203V4.6191h2.666v10.459h-.6445l-.8789-1.2207ZM32.4395 1.7773c0 .2474-.0489.4786-.1465.6934a1.7717 1.7717 0 0 1-.3809.5664c-.1628.1563-.3548.2832-.5762.3809-.2148.0911-.4459.1367-.6933.1367s-.4818-.0456-.7031-.1367c-.2149-.0977-.4037-.2246-.5665-.3809-.1562-.1627-.2832-.3516-.3808-.5664-.0912-.2148-.1367-.446-.1367-.6934 0-.2408.0455-.4687.1367-.6836.0976-.2213.2246-.4101.3808-.5664a1.7717 1.7717 0 0 1 .5665-.3808A1.7224 1.7224 0 0 1 30.6426 0c.2474 0 .4785.0488.6933.1465.2214.0911.4134.218.5762.3808.1628.1563.2897.3451.3809.5665.0976.2148.1465.4427.1465.6835Zm-2.459 13.3008h-2.6856V4.6191h2.6856v10.459ZM34.6875 15.0781h-2.666V4.6191h.6445l.8789 1.2403c.4297-.3906.918-.6901 1.4649-.8985a4.6064 4.6064 0 0 1 1.6992-.3222h2.3535v2.6562H36.709c-.28 0-.5436.0521-.791.1563-.2474.1041-.4623.2474-.6446.4297-.1823.1823-.3255.397-.4296.6445-.1042.2474-.1563.511-.1563.791v5.7617ZM42.9883 15.0781h-2.6856V.459h2.6856v9.2187l3.9746-5.039h3.0664L46.5625 8.994l3.4668 6.084h-3.0664l-2.1191-3.7988-1.8555 2.4609v1.3379Z"/>
</svg>