<svg xmlns="http://www.w3.org/2000/svg" width="85" height="28" fill="white" viewBox="0 0 85 28">
  <path fill="white" d="M83.0357 24.5198c-.412 0-.7678-.1311-1.0675-.3932-.2809-.2809-.4213-.6461-.4213-1.0956 0-.4307.1404-.7771.4213-1.0393.2997-.2809.6555-.4214 1.0675-.4214.3745 0 .7116.1405 1.0113.4214.2996.2622.4494.6086.4494 1.0393 0 .4495-.1498.8147-.4494 1.0956-.2997.2621-.6368.3932-1.0113.3932Zm-8.6127-.2522c-.2247 0-.3371-.103-.3371-.309 0-.1873.103-.2996.309-.3371l.3933-.0562c.3933-.0561.6835-.1685.8708-.337.1873-.1686.2809-.4495.2809-.8428V6.2895c0-.337-.0562-.5711-.1685-.7022-.0936-.1311-.2716-.206-.5337-.2248l-.6461-.0842c-.206-.0375-.309-.1498-.309-.3371 0-.1873.103-.2997.309-.3371.5243-.1124.9738-.2435 1.3483-.3933.3746-.1498.6836-.2996.927-.4494.2997-.1873.5244-.281.6742-.281.206 0 .309.1499.309.4495v18.4556c0 .3933.0562.6742.1685.8428.1311.1498.3933.2528.7866.309l.6461.0842c.206.0375.309.1498.309.3371 0 .206-.1124.309-.3371.309H74.423Zm-8.4138.2515c-.7865 0-1.4326-.2434-1.9382-.7303-.5057-.5057-.7585-1.1705-.7585-1.9945 0-.8052.2528-1.5637.7585-2.2753.5056-.7304 1.1985-1.3858 2.0787-1.9664.8801-.5805 1.882-1.0487 3.0057-1.4045.2434-.0749.3652-.2341.3652-.4776v-2.5562c0-.8989-.1405-1.5356-.4214-1.9102-.2809-.3933-.6648-.5899-1.1517-.5899-.4682 0-.8989.2154-1.2922.6461-.3745.412-.6461 1.1143-.8146 2.1068-.0937.5993-.2997 1.0394-.618 1.3203-.2997.2621-.6087.3932-.927.3932-.5244 0-.7866-.2621-.7866-.7865 0-.5431.1499-1.0768.4495-1.6012.3183-.5431.7304-1.03 1.236-1.4607.5056-.4494 1.0581-.8053 1.6573-1.0674.5993-.2622 1.1986-.3933 1.7978-.3933 1.854 0 2.781 1.0768 2.781 3.2304v8.5958c0 .7865.1967 1.1798.5899 1.1798.2435 0 .4682-.1592.6742-.4775.206-.3371.309-.899.309-1.6855 0-.2996.1217-.4494.3652-.4494.2247 0 .3371.1591.3371.4775 0 1.3671-.2435 2.3596-.7304 2.9776-.4682.5993-1.0019.8989-1.6012.8989-.4494 0-.8052-.1779-1.0674-.5337-.2622-.3745-.4401-.8146-.5337-1.3203-.0188-.1872-.103-.2809-.2528-.2809-.1311-.0187-.2622.0656-.3933.2528-.4495.618-.9083 1.0862-1.3765 1.4046-.4681.3183-1.0487.4775-1.7416.4775Zm.7585-1.2922c.4869 0 .9363-.1685 1.3483-.5056.412-.3558.7491-.824 1.0113-1.4045.2622-.5806.3933-1.236.3933-1.9664v-2.0506c0-.3558-.1967-.4588-.59-.309-1.1423.412-2.0318.9832-2.6686 1.7135-.618.7117-.927 1.5731-.927 2.5844 0 1.2922.4776 1.9382 1.4327 1.9382Zm-8.7235 1.2922c-.8989 0-1.7042-.2996-2.4158-.8989s-1.2828-1.442-1.7135-2.5282c-.412-1.1049-.618-2.3783-.618-3.8203 0-1.4794.2153-2.781.6461-3.9046.4307-1.1236 1.0206-2.0038 1.7697-2.6405.7491-.6368 1.5824-.9551 2.5001-.9551 1.1049 0 1.9944.4588 2.6686 1.3764.6929.8989 1.0393 2.369 1.0393 4.4103 0 .618-.2341.927-.7022.927h-5.3373c-.3745 0-.5618.2153-.5618.6461 0 1.985.2903 3.4738.8708 4.4664.5806.9925 1.3203 1.4888 2.2192 1.4888.7116 0 1.2922-.2528 1.7416-.7585.4495-.5056.8146-1.3577 1.0956-2.5562.0561-.206.1779-.309.3651-.309.2248 0 .309.1873.2529.5618-.2997 1.6667-.7772 2.8372-1.4327 3.5113-.6554.6555-1.4513.9832-2.3877.9832Zm-2.2473-8.7362h2.8372c.8989 0 1.3484-.4682 1.3484-1.4045 0-1.2173-.1499-2.1724-.4495-2.8653-.2996-.6929-.7491-1.0393-1.3483-1.0393-.7304 0-1.3484.4213-1.854 1.264-.4869.8428-.8053 2.0413-.9551 3.5956-.0375.2997.103.4495.4213.4495Zm-22.0787 8.4834c-.2809 0-.4213-.103-.4213-.309 0-.1685.1217-.2809.3652-.3371l.337-.0562c.3933-.0749.6461-.1872.7585-.3371.1311-.1685.1966-.4494.1966-.8427v-9.4385c0-.3371-.0562-.5618-.1685-.6741-.0937-.1311-.2716-.2154-.5337-.2529l-.5899-.0842c-.2435-.0188-.3652-.1218-.3652-.309 0-.1498.1498-.2528.4494-.309.5806-.0937 1.0207-.2435 1.3203-.4495.3184-.206.6461-.4588.9832-.7584.1685-.1686.309-.2528.4213-.2528.1686 0 .2528.1123.2528.337v1.2641c0 .1311.0562.2341.1686.309.1124.0562.2341.0188.3652-.1123.7678-.7304 1.4326-1.2267 1.9944-1.4888.5806-.2622 1.1611-.3933 1.7416-.3933.5431 0 1.0207.1498 1.4327.4494.4307.2809.7491.7117.9551 1.2922.0561.1498.1498.2435.2809.2809.1498.0187.2902-.0374.4213-.1685.7678-.7117 1.4326-1.1986 1.9945-1.4607.5618-.2622 1.133-.3933 1.7135-.3933.7865 0 1.4233.2996 1.9102.8989.5056.5805.7584 1.442.7584 2.5843v9.1295c0 .3933.0562.6742.1686.8427.131.1499.3932.2529.7865.309l.618.0843c.206.0375.309.1498.309.3371 0 .206-.1124.309-.3371.309h-4.8035c-.2622 0-.3933-.103-.3933-.309 0-.1873.103-.2996.309-.3371l.3933-.0562c.4307-.0561.7116-.1685.8427-.3371.1311-.1685.1966-.4494.1966-.8427v-8.8205c0-.9176-.1685-1.5637-.5056-1.9382-.3184-.3746-.7584-.5618-1.3203-.5618-.5618 0-1.0768.1779-1.5449.5337-.4495.3371-.8147.7959-1.0956 1.3764-.2809.5618-.4213 1.1892-.4213 1.8821v7.5283c0 .3933.0655.6742.1966.8427.1311.1499.4026.2529.8146.309l.618.0843c.206.0375.309.1498.309.3371 0 .206-.1123.309-.3371.309h-4.7754c-.2622 0-.3933-.103-.3933-.309 0-.1873.103-.2996.309-.3371l.3933-.0562c.3933-.0561.6461-.1685.7585-.3371.131-.1685.1966-.4494.1966-.8427v-8.8205c0-.9176-.1686-1.5637-.5056-1.9382-.3184-.3746-.7585-.5618-1.3203-.5618-.5618 0-1.0768.1779-1.545.5337-.4495.3371-.8146.7959-1.0955 1.3764-.2809.5618-.4214 1.1892-.4214 1.8821v7.5283c0 .3933.0562.6742.1685.8427.1311.1686.3933.2716.7866.309l.7584.0843c.206.0375.309.1405.309.309 0 .2247-.1404.3371-.4213.3371h-4.7474Zm-3.9831.2521c-.6554 0-1.1985-.2247-1.6292-.6742-.412-.4682-.618-1.2266-.618-2.2753v-10.506c0-.2247-.1124-.3371-.3371-.3371h-.8146c-.2997 0-.4495-.1123-.4495-.337 0-.1499.0843-.2809.2528-.3933.618-.4307 1.1143-.8895 1.4888-1.3765.3746-.5056.7023-1.1891.9832-2.0506.1311-.3932.2903-.5899.4776-.5899.206 0 .309.1498.309.4495v3.118c0 .2622.1311.3933.3932.3933h1.8259c.2997 0 .4495.1311.4495.3933s-.1498.3932-.4495.3932h-1.8259c-.2621 0-.3932.1311-.3932.3933V21.597c0 .412.0655.7397.1966.9831.1311.2248.3745.3371.7304.3371.3932 0 .7116-.1966.955-.5899.2622-.3932.4308-1.03.5057-1.9101.0374-.2622.1592-.3933.3652-.3933.2247 0 .337.1404.337.4213-.0561 1.442-.3558 2.4814-.8989 3.1181-.5243.6367-1.1423.9551-1.854.9551Zm-11.8118.0007c-.7866 0-1.4327-.2434-1.9383-.7303-.5056-.5057-.7584-1.1705-.7584-1.9945 0-.8052.2528-1.5637.7584-2.2753.5056-.7304 1.1986-1.3858 2.0787-1.9664.8802-.5805 1.8821-1.0487 3.0057-1.4045.2435-.0749.3652-.2341.3652-.4776v-2.5562c0-.8989-.1404-1.5356-.4213-1.9102-.281-.3933-.6649-.5899-1.1518-.5899-.4681 0-.8989.2154-1.2921.6461-.3746.412-.6461 1.1143-.8147 2.1068-.0936.5993-.2996 1.0394-.618 1.3203-.2996.2621-.6086.3932-.927.3932-.5243 0-.7865-.2621-.7865-.7865 0-.5431.1498-1.0768.4494-1.6012.3184-.5431.7304-1.03 1.236-1.4607.5057-.4494 1.0581-.8053 1.6574-1.0674.5993-.2622 1.1985-.3933 1.7978-.3933 1.854 0 2.781 1.0768 2.781 3.2304v8.5958c0 .7865.1966 1.1798.5899 1.1798.2434 0 .4682-.1592.6742-.4775.206-.3371.309-.899.309-1.6855 0-.2996.1217-.4494.3651-.4494.2248 0 .3371.1591.3371.4775 0 1.3671-.2434 2.3596-.7303 2.9776-.4682.5993-1.0019.8989-1.6012.8989-.4494 0-.8053-.1779-1.0674-.5337-.2622-.3745-.4401-.8146-.5338-1.3203-.0187-.1872-.103-.2809-.2528-.2809-.1311-.0187-.2622.0656-.3933.2528-.4494.618-.9082 1.0862-1.3764 1.4046-.4682.3183-1.0487.4775-1.7416.4775Zm.7584-1.2922c.4869 0 .9364-.1685 1.3484-.5056.412-.3558.7491-.824 1.0112-1.4045.2622-.5806.3933-1.236.3933-1.9664v-2.0506c0-.3558-.1966-.4588-.5899-.309-1.1423.412-2.0319.9832-2.6686 1.7135-.618.7117-.927 1.5731-.927 2.5844 0 1.2922.4775 1.9382 1.4326 1.9382ZM6.9648 24.5208c-.899 0-1.7416-.2622-2.5282-.7866-.7865-.5431-1.4794-1.2828-2.0787-2.2191-.5805-.9364-1.0394-2.0319-1.3765-3.2867C.6631 16.955.504 15.5879.504 14.1272c0-1.4607.1592-2.8184.4775-4.0732.3371-1.2547.796-2.3502 1.3765-3.2866.5993-.955 1.2922-1.6948 2.0787-2.2191.7866-.5244 1.6293-.7866 2.5282-.7866s1.7322.2622 2.5.7866c.7866.5243 1.4795 1.264 2.0788 2.2191.5992.9364 1.058 2.032 1.3764 3.2866.3371 1.2548.5056 2.6125.5056 4.0732s-.1685 2.8278-.5056 4.1012c-.3184 1.2548-.7772 2.3503-1.3764 3.2867-.5993.9363-1.2922 1.676-2.0787 2.2191-.7679.5244-1.6012.7866-2.5001.7866Zm0-.7585c1.3296 0 2.369-.7959 3.118-2.3877.7491-1.5918 1.1237-4.0076 1.1237-7.2474s-.3746-5.6462-1.1237-7.2193c-.749-1.5918-1.7884-2.3877-3.118-2.3877-1.311 0-2.3503.7959-3.1181 2.3877-.749 1.573-1.1236 3.9795-1.1236 7.2193s.3745 5.6556 1.1236 7.2474c.7678 1.5918 1.8072 2.3877 3.118 2.3877Z"/>
</svg>