<svg width="24" height="24" viewBox="0 0 24 24" fill="none" xmlns="http://www.w3.org/2000/svg">
<g clip-path="url(#clip0)">
<path d="M18.8652 23C18.5626 23 18.26 22.89 18.0709 22.67L12.0189 16.7667L5.9669 22.67C5.62648 23 5.13475 23.11 4.71868 22.9267C4.26478 22.7433 4 22.34 4 21.9V4.22667C4 2.43 5.47518 1 7.32861 1H16.6714C18.487 1 20 2.43 20 4.22667V21.9C20 22.34 19.7352 22.7433 19.2813 22.9267C19.1678 23 19.0165 23 18.8652 23ZM11.9811 14.1633C12.2837 14.1633 12.5863 14.2733 12.7754 14.4933L17.6927 19.26V4.22667C17.7305 3.64 17.2388 3.2 16.6714 3.2H7.32861C6.7234 3.2 6.2695 3.64 6.2695 4.22667V19.26L11.1868 14.4933C11.4137 14.2733 11.6785 14.1633 11.9811 14.1633Z" fill="#172B4D"/>
</g>
<defs>
<clipPath id="clip0">
<rect x="4" y="1" width="16" height="22" fill="white"/>
</clipPath>
</defs>
</svg>
