<svg width="24" height="24" viewBox="0 0 24 24" fill="none" xmlns="http://www.w3.org/2000/svg">
<g clip-path="url(#clip0)">
<path d="M12 12.5107C11.7667 12.5107 11.5333 12.4445 11.3667 12.2788L2.36666 4.75634C1.93333 4.39182 1.9 3.76219 2.23333 3.36453C2.6 2.93373 3.23333 2.90059 3.63333 3.23197L12 10.191L20.3667 3.23197C20.8 2.86745 21.4333 2.93373 21.7667 3.36453C22.1333 3.79533 22.0667 4.42496 21.6333 4.75634L12.6667 12.2788C12.4667 12.4113 12.2333 12.5107 12 12.5107Z" fill="#172B4D"/>
<path d="M21 20H3C2.43333 20 2 19.5692 2 19.0058V3.99415C2 3.4308 2.43333 3 3 3H21C21.5667 3 22 3.4308 22 3.99415V19.0058C22 19.5692 21.5667 20 21 20ZM4 18.0117H20V4.9883H4V18.0117Z" fill="#172B4D"/>
</g>
<defs>
<clipPath id="clip0">
<rect x="2" y="3" width="20" height="17" fill="white"/>
</clipPath>
</defs>
</svg>
