<svg width="24" height="24" viewBox="0 0 24 24" fill="none" xmlns="http://www.w3.org/2000/svg">
<path d="M8.81 20H2.1C1.47667 20 1 19.5094 1 18.8679C1 18.2264 1.47667 17.7358 2.1 17.7358H8.81C9.43333 17.7358 9.91 18.2264 9.91 18.8679C9.91 19.5094 9.39667 20 8.81 20Z" fill="#172B4D"/>
<path d="M8.81 13.1321H2.1C1.47667 13.1321 1 12.6415 1 12C1 11.3585 1.47667 10.8679 2.1 10.8679H8.81C9.43333 10.8679 9.91 11.3585 9.91 12C9.91 12.6415 9.39667 13.1321 8.81 13.1321Z" fill="#172B4D"/>
<path d="M8.81 6.26415H2.1C1.47667 6.26415 1 5.77358 1 5.13208C1 4.49057 1.47667 4 2.1 4H8.81C9.43333 4 9.91 4.49057 9.91 5.13208C9.91 5.77358 9.39667 6.26415 8.81 6.26415Z" fill="#172B4D"/>
<path d="M7.30667 20C6.68333 20 6.20667 19.5094 6.20667 18.8679C6.20667 18.2264 6.68333 17.7358 7.30667 17.7358H21.9C22.5233 17.7358 23 18.2264 23 18.8679C23 19.5094 22.5233 20 21.9 20H7.30667C7.34333 20 7.34333 20 7.30667 20Z" fill="#172B4D"/>
<path d="M7.30667 13.1321C6.68333 13.1321 6.20667 12.6415 6.20667 12C6.20667 11.3585 6.68333 10.8679 7.30667 10.8679H21.9C22.5233 10.8679 23 11.3585 23 12C23 12.6415 22.5233 13.1321 21.9 13.1321H7.30667C7.34333 13.1321 7.34333 13.1321 7.30667 13.1321Z" fill="#172B4D"/>
<path d="M7.30667 6.26415C6.68333 6.26415 6.20667 5.77358 6.20667 5.13208C6.20667 4.49057 6.68333 4 7.30667 4H21.9C22.5233 4 23 4.49057 23 5.13208C23 5.77358 22.5233 6.26415 21.9 6.26415H7.30667C7.34333 6.26415 7.34333 6.26415 7.30667 6.26415Z" fill="#172B4D"/>
</svg>
