<svg width="24" height="24" viewBox="0 0 24 24" fill="none" xmlns="http://www.w3.org/2000/svg">
<g clip-path="url(#clip0)">
<path d="M2.10184 22C1.9182 22 1.77129 21.964 1.62437 21.8921C1.2571 21.7122 1 21.3165 1 20.9209V5.09353C1 3.40288 2.43239 2 4.1586 2H19.8781C21.6043 2 23.0367 3.40288 23.0367 5.09353V15.705C23.0367 17.3957 21.6043 18.7986 19.8781 18.7986H6.87646L2.76294 21.7842C2.5793 21.9281 2.3222 22 2.10184 22ZM4.1586 4.15827C3.64441 4.15827 3.20367 4.58993 3.20367 5.09353V18.7626L5.84808 16.8561C6.03172 16.7122 6.25209 16.6403 6.50918 16.6403H19.8781C20.3923 16.6403 20.8331 16.2086 20.8331 15.705V5.09353C20.8331 4.58993 20.3923 4.15827 19.8781 4.15827H4.1586Z" fill="#172B4D"/>
</g>
<defs>
<clipPath id="clip0">
<rect x="1" y="2" width="22" height="20" fill="white"/>
</clipPath>
</defs>
</svg>
