<svg width="24" height="24" viewBox="0 0 24 24" fill="none" xmlns="http://www.w3.org/2000/svg">
<g clip-path="url(#clip0)">
<path d="M19.9933 23.0683C9.54333 23.0683 1 14.525 1 4.03828C1 2.38828 2.35667 1.03162 4.00667 1.03162H7.74667C8.95667 1.03162 9.91 1.98495 9.91 3.19495C9.91 4.77162 10.24 6.27495 10.9 7.70495C11.0833 8.10828 11.01 8.62162 10.68 8.95162L9.06667 10.5283C8.92 10.6749 8.84667 10.8949 8.84667 11.115C8.84667 11.3349 8.92 11.5183 9.06667 11.7016L12.33 14.9649C12.6233 15.2583 13.1733 15.2583 13.4667 14.9649L15.0433 13.3883C15.3733 13.0583 15.85 12.9849 16.29 13.1683C17.72 13.8283 19.26 14.1583 20.8733 14.1583C22.0467 14.1583 23.0367 15.1116 23.0367 16.3216V20.0616C23 21.7116 21.68 23.0683 19.9933 23.0683ZM4.00667 3.23162C3.56667 3.23162 3.2 3.59828 3.2 4.03828C3.2 13.3149 10.7533 20.8683 19.9933 20.8683C20.4333 20.8683 20.8 20.5016 20.8 20.0616V16.3583C19.15 16.3583 17.5733 16.0649 16.07 15.4416L15.0433 16.4683C14.4933 17.0183 13.7233 17.3483 12.9167 17.3483C12.11 17.3483 11.3767 17.0183 10.79 16.4683L7.52667 13.205C6.97667 12.655 6.64667 11.8849 6.64667 11.0783C6.64667 10.2716 6.97667 9.53828 7.52667 8.95162L8.59 7.88828C8.00333 6.38495 7.71 4.80828 7.71 3.19495H4.00667V3.23162Z" fill="#172B4D"/>
</g>
<defs>
<clipPath id="clip0">
<rect x="1" y="1.03162" width="22" height="22.0367" fill="white"/>
</clipPath>
</defs>
</svg>
